<mxfile host="app.diagrams.net" modified="2024-05-31T12:26:25.118Z" agent="Mozilla/5.0 (Windows NT 10.0; Win64; x64) AppleWebKit/537.36 (KHTML, like Gecko) Chrome/125.0.0.0 Safari/537.36" etag="79a4YXAYO2Ygt-on7IvC" version="24.4.11" type="github">
  <diagram name="第 1 页" id="xZeA5y-aKZEaSnk0Amm5">
    <mxGraphModel dx="1434" dy="772" grid="1" gridSize="10" guides="1" tooltips="1" connect="1" arrows="1" fold="1" page="1" pageScale="1" pageWidth="827" pageHeight="1169" math="0" shadow="0">
      <root>
        <mxCell id="0" />
        <mxCell id="1" parent="0" />
        <mxCell id="xT-eKAD9LfHPb0j01mVK-3" value="&lt;span style=&quot;color: rgb(0, 0, 0); font-family: Helvetica; font-size: 15px; font-style: normal; font-variant-ligatures: normal; font-variant-caps: normal; font-weight: 700; letter-spacing: normal; orphans: 2; text-align: center; text-indent: 0px; text-transform: none; widows: 2; word-spacing: 0px; -webkit-text-stroke-width: 0px; white-space: nowrap; background-color: rgb(251, 251, 251); text-decoration-thickness: initial; text-decoration-style: initial; text-decoration-color: initial; display: inline !important; float: none;&quot;&gt;Pendulum&lt;/span&gt;" style="text;whiteSpace=wrap;html=1;" parent="1" vertex="1">
          <mxGeometry x="183.84" y="400" width="72.92" height="30" as="geometry" />
        </mxCell>
        <mxCell id="xT-eKAD9LfHPb0j01mVK-5" value="&lt;span style=&quot;color: rgb(0, 0, 0); font-family: Helvetica; font-size: 15px; font-style: normal; font-variant-ligatures: normal; font-variant-caps: normal; font-weight: 700; letter-spacing: normal; orphans: 2; text-align: center; text-indent: 0px; text-transform: none; widows: 2; word-spacing: 0px; -webkit-text-stroke-width: 0px; white-space: nowrap; background-color: rgb(251, 251, 251); text-decoration-thickness: initial; text-decoration-style: initial; text-decoration-color: initial; display: inline !important; float: none;&quot;&gt;C3dtree&lt;/span&gt;" style="text;whiteSpace=wrap;html=1;" parent="1" vertex="1">
          <mxGeometry x="474.13000000000005" y="400" width="72.92" height="30" as="geometry" />
        </mxCell>
        <mxCell id="xT-eKAD9LfHPb0j01mVK-7" value="&lt;span style=&quot;color: rgb(0, 0, 0); font-family: Helvetica; font-size: 15px; font-style: normal; font-variant-ligatures: normal; font-variant-caps: normal; font-weight: 700; letter-spacing: normal; orphans: 2; text-align: center; text-indent: 0px; text-transform: none; widows: 2; word-spacing: 0px; -webkit-text-stroke-width: 0px; white-space: nowrap; background-color: rgb(251, 251, 251); text-decoration-thickness: initial; text-decoration-style: initial; text-decoration-color: initial; display: inline !important; float: none;&quot;&gt;CelebA&lt;/span&gt;" style="text;whiteSpace=wrap;html=1;" parent="1" vertex="1">
          <mxGeometry x="763.83" y="400" width="72.92" height="30" as="geometry" />
        </mxCell>
        <mxCell id="qU0uXyh9bXfhi3hnWExh-3" value="" style="shape=image;verticalLabelPosition=bottom;labelBackgroundColor=default;verticalAlign=top;aspect=fixed;imageAspect=0;image=data:image/png,iVBORw0KGgoAAAANSUhEUgAAAdgAAAHXCAIAAACQ7dwbAAAgAElEQVR4AexdCXwTRdufpFfaUko5i0VuAUGQw5cbiweXKJRbUBTLoVwC+iEIKkXEW5QXEAR8gVaKiEA5FBARAbkvFSiICtIC5aiUtKRHmuT5WHbYpMkm2d3smZ39+cPJ7Mwzz/Gff6aTORCQh3iAeIB4gHhAUQ8gRVsnjRMPEA8QDxAPgCREfPbs2UGDBiUkJERGRjZs2HDmzJkWi4V2dmJiIir7dOvWjcSBeIB4gHhAzx4Qn4izsrIqVKhQq1at995774svvhg2bBhCqFevXrSXExMTa9Sokeby7NixQ88BILYTDxAPEA+IT8SzZ89GCJ08eZJx7nPPPYcQunHjBgAkJiY2adKEecUxYbfbs7Ozb968aSYP8QDxAPGAdjxw8+bN7Oxsu93um+vEJ+IpU6YghK5fv840PGXKFKPReOvWLYaIS0tLCwoKmAJ+E9nZ2WXnM8gn4gHiAeIBzXggOzvbN8uJT8Rbtmyh5yKOHz+elZX19ddfly9ffuLEibQeiYmJYWFh4eHhCKFq1aq98cYbVqvVt4oAcPPmTYTQ+fPntfNFGKimubm56enpubm5gQrSTn1isnZiJVxTvUX5/PnzCKGbN2/6ZjnxiRgAZs2aFRkZyXxbTZ8+nVEiOTk5JSVl7dq1qampvXr1QggNHDiQeeuaKC4uZqJNj4hzcnKsunksFktGRobFYtGNxVZish5irbco5+TkIITMZrMruXmmJSHitLS0bt26LV68eO3atcnJyQaDYd68eZ5tA8DIkSMRQvv37/d8O2PGDIbK6UR6enoGeYgHiAeIB7TjgfT0dGWIeNWqVZGRka5zIsOGDYuKisrNzfVk2zNnziCEZs2a5fmKjIjJiDjoR4h6Gx5arbr7u0exEXGnTp3at2/vSqzr1q1DCG3fvt01k05bLJbbXxeTJk3yfOWaYzabEUKsVO5aLJjSVqs1IyODywR60FhNTA6aUPowRG9Rzs3NVWZE3KBBgzZt2rhGYvXq1QihLVu2uGbS6RMnTiCE3n33Xc9XrjmEiF29EaxpvXVRACAmByuYGbsUI+Inn3wyPDz8jz/+YFRJSkoyGo2XLl0ym83FxcVMvsPhGDRoEELo6NGjTCZrghAxq1uCLJOwUpAFlNUcvUVZMSLetWtXSEhI1apV33777QULFvTo0QMhNGLEiNuLiHfu3BkfHz9p0qQFCxZ8/PHHHTp0QAiNGjWKNWCumVyI2GazFQXRk5+fv3nz5vz8fO422Ww2V6dpLq23LkpGxJqDqACFFSNiADh48GCPHj3i4+PDwsIaNGgwe/bs0tJSADh37tyAAQNq165tMpmioqJatWq1aNEih8Ph1zzfROxwOC5fvpwZXM+pU6eOHDly6tQpXmZdvnyZiz/9OlyRAoSIFXG7zI3qLcpKErHoofVNxDQL5+bmFhYWch8/qrykxWK5evWqxWLhqGdhYWFubm5mZubly5dF9788AvXWRcmIWB5cKduKXojYZrNlZmYG34IKu92el5fnd4u6G8hoLtboHAUhYrdoBuVHvUVZL0RcVFSUmZlZWFgYZKgVRsSFhYWZmZlFRUVa9IbeuigZEWsRpXx11hcRa5R6fARVGBHTX0sa9QYhYh94CIZXRUWQmmpPSrr+wAP2pCRITQVtjhh4xYIQMS93qa4wIWLVhUQChXT03bNhA8TFAUIOo5H5l8rZuFECv6pIJCFiFQVDgCqEiAU4TXNV9ELEGzaAwUD9h1CZ/+jMDRs0FzjuChMi5u4rOUouW7aMPrpoz549ru05HI4aNWoghHr27Enn3z7NeezYsa5EfHvRSEpKSrNmzaKjo00mU5MmTV577bVLly65yqHTZGrC0ydqztEFERcVUSNfTxamSdlgoN4G7xwFIWJ1dUCaiE0m0+jRo10127lzJ0IoIiLCGxH//fffderUCQkJefrpp+fPn7948eJx48ZVqlTpvvvuc5VDpwkRe/pEzTm6IOLU1DKjYLdBMf0xLU3NYQpEN0LE3Lx35wcE6NsXEhOpfyX7AYEm4r59+1auXJne3kLrN3LkyFatWtWqVYuViEtKSh588MGoqCi3cbTZbJ42bZqnhYSIPX2i5hxdEHGfPnBnXtgrHRuNVNcL0ocQMYfA3v0BAQOFhos0PyDQRLxmzRqDwfD999/TypWUlMTFxX3yySfeiJg+zHT27NkcjKGKECLm6CiVFAtmIs7JgeXL4emnITTUKwUzo+POnVUSEdHVIETsz6Xy/oBAE/Hhw4fbt28/dOhQWrmMjAz6OCRvRDx48GCEUFZWlj9j8HtCxBwdpZJiwUbEViv8/DNMnQrNm/snX4aFyYgYQJIbOkRHuY8tzgKpR/YfEBginj9/fkxMDL0DZcCAAY888ggAeCPiFi1axMbGcvenQG9wb0DKksHGShx8FSQm//MPLFoESUkQE8PCvyYTSybDwmSO+A5O9ErEsv+AwBDxtWvXQkNDv/nmm/z8/MjIyCVLlvgg4nr16tWoUYNDj8ZFCBFz95UaSmqYiAsLYetWmDgRGjVi59lWrWD6dNizB/LzyaoJZe6sEx3i/EbErVpBQoKf/7h8S5tMfoQkJECrVhyNZYgYALp3756UlLR8+fLw8PC8vDwfRExGxBzdq9FiGiNihwPOnIHPPoPu3YG1B1WuDM88A2lpcPVqmYhs3Mi+jhghKj+o93ToeI44IYH9K9rtryFRPiYklAGc9w+uRJyamhoREdG2bdvevXvTNbxNTTz99NNkjti7UzX/RhtEnJ8PGRnw0ktQuzZLzzIaoUMHmDULDh8Gu91rSO7+MI531jHLisPCIDPTay3tv9AxEat+RFxQUBAZGYkQWr16NY00b0T81VdfcblKioErmZpgXKGJhHqJ2OGAX3+F99+Hzp0hLIyFfxMSYPhwWLMGbtzg6uqiIkhLsyclXaPPmujSBYtt0QJKSrgK0Vo5HRMxl1ApN0dMa7d8+fKUlBTm0DhvRFxcXNy0adPo6Oh9+/a5mpWfn0/WEbs6RKNp1RHxv//C11/DsGFQvToL+YaHw2OPwUcfwYkTwOE+B9agOE22WOD++3ErU6eyFg6CTELEPoOo3KoJVrW8EbHdbv/zzz9r1aoVGho6ZMiQBQsWLF68eMKECVWqVGnQoIGnKDIi9vSJmnOcrKSgljYbHDgAKSnQti37zou6dWHsWNi0CQoKAlezjMnHjuHhtsFArXsLxocQsb+oevsBgT6IROwfEFzniD0180HEAJCXl/fWW281bdo0KirKZDI98MADr7/+ek5OjqccQsSePlFzThlWklnRnBxYsQIGD4ZKlVgGv5GR0LMnzJsHf/4prl7uJn/wAW69Zk2488O1uM0pLo0QMYcQ3P0BQYaddRy0KVPE9dCfMi98fiBE7NM9qnvpzkpSK2i1wq5d8Prr0KIFC/kiBE2awKuvwvbt0p3C426yzUadLkD/cv7MM1I7QH75hIi5+fzODwjUVvfOnal/09KkgyA3hXApQsS83KXRwu6sJJEZ//wDX3wBffqwb7goXx769YMlS4DzBs5A1GQx+cIFiI3FXJyeHohwFdYlRKzCoPBQiRAxD2dptigLK4llS1ERbNsGkyY5fxBzW6/JbLiwWsVqk4scdpNXrsREHBsLFy5wkaOVMoSItRIpdj0JEbP7Jbhy2VlJsI0OB/zxB8ydCz16QGQky+QDs+HiyhXBjQRY0avJQ4ZghTt3BpstwFbUU50QsXpiIUQTQsRCvKa1Ol5ZiZch+fmwYQOMHg116rCQL8cNF7xaDKCwV5Pz8uDee7H+H34YQAvqqkqIWF3x4KsNIWK+HtNiea+s5NcYhwN++w0++AAeeUS0DRd+GxWjgC+Td+7EF3mEhcHx42K0prwMQsTKxyAQDQgRB+I9rdT1xUqsNvz7L6xeDS+8wL7hIiws8A0XrM2KmOnH5Ndew4Pixo2hsFDEdpUSRYhYKc+L0y4hYnH8qG4pfliJVt5mg4MHYeZMaNdOhg0XUjvMj8nFxc6zjF9+WWplZJBPiFgGJ0vYBCFiCZ2rGtG+WEmhDRdS+8aXyXTbp045j3bbulVqfaSWT4hYag9LK58QsbT+VYd0d1ZSwYYLqR3jbjJre/Pm4QmK+Hi4fp21iFYyCRFrJVLsehIiZvdLcOViVvrrLz8bLvr2hcWL5dlwIbWDORGxw0EdeUwvfE5KEnzAkNS2cJFPiJiLl9RbhhCxemMjimZ3NlzYJkzIr1EDMw7rhovdu0HeDReiGOdDCCciBoDLl52HYHz5pQ+BKn9FiFjlAfKjHiFiPw7S4mstbLiQ2q9ciRgA1q/HX1HR0fDXX1IrJpF8QsQSOVYmsYSIZXK0DM0UFPjYcOEwGu3t2/u/4UIGPWVpggcRA8CIEZiL27aF0lJZFBS5EULEIjtUsDjk89m5c+f58+cRQh999JFrE5cvXx43blzDhg0jIyOjoqJatmw5a9Ys+oI712JuaXL6mptDFPvIbcNF6apV3331lTW4Jh98+5wfERcUQL16mItTUnxLVudbQsSc4lJUBKmp1LFriYnUv6mp4h++lubydOnSBSHkkpF25coVTyI+dOhQ5cqVTSbT8OHDF955hg8fHh0d3aVLF99WESL27R/J3964Ad98A8nJcM89LDO/YWHw6KPw4Yfw++/0D1D8WEly7eVogLfJ+/dDSAjlzJAQ2L9fDhVFbYMQsX93yn8c8dixYxFCbpq5EXFeXl5CQkK1atUOHjxod7mN8cqVK7NmzXKr6/aRELGbQ+T4aLfDoUPw9tvQvj37hos6dWDMGOquYo8bLnizkhz2SNuGEJNTUvC3Wr16nj6UVt2ApRMi9uPCDRvYb/imL+jYsMFPdWGvuRDx+++/T4+a8/LyXImYS4uEiLl4SZwyV65Qf0ANGQKVK7MMfiMj4Ykn4L//hbNnfay+EsJK4mivmBQhJpeWUtc40atKRoxQTHVBDRMi9uU22a+sw8pwIeL27dtHRkYWFRURIvYVQlHe8Z2Zslrh9nqyadOgZUsW8kUIGjeGV16BH37gOMMlhJVEMVw5IQJN/usviI7GPl+3Tjn1ebdMiNiXy2S/xBkrw4WI4+LiHnzwQbJqwlf8RHnHfWbqwgVqP0XfvlC+PAv/li9PvVq8WMCJ5gJZSRTzFRIi3OQvv8TOr1SJWmWskUe/RNyqFSQk+PnPZGLpUG4L6k0mP0ISEqBVK35w4ELEISEhHTt2JETMz7N8S/udmSoqoga2r7xCDXLdkEF/bNmSGhoHtuFCOCvxtVc15YWbfHshSp8+OBbduvmY8FGNrZQi+iXihAT2jsPamwLMTEjgF3QuRExGxPx8KqC075kphCA01HnujCtEKlWiJoVTU0GkGy6Es5IAq9VRJSCTr193nv85b546DPKjhX6JWOsj4nbt2pE5Yj/oDvA1l5kphn+NRmo5xNtvU0sjxL7CJyBWCtAJClUP1OStW/E4y2SCU6cUMoJHs/olYi5O4tIT09K4SOJXhsuI+N1330UIffXVV+THOn7O5V66b1/2dWYM+SJEjYiTk6lFwTducBfMt2SgrMS3PRWUF8Hkl1/GXNy8ORQXq8AmXyoQIvblHd9/mxoMEBfH8XdvX614vuNCxDdu3Kh+5zl8+LDr8rWrV6+SdcSeLhWSk5jof/YqMVGIZJ51RGAlni0qXlwEkwsLnRP3r72muEW+FVCSiM+ePTto0KCEhITIyMiGDRvOnDnTYrEw6u7du7dDhw6RkZHVqlUbP358gccqd6YkkzCbzQih3NxcJodJCF45u3Gjr3XEGzcyLYiZ4ELEAHDgwIGKFStGRkaOGDFi0Z1n1KhRMTExXbt29a2NYG/4FivPWxG6KEdF/Y6IjUZqIYT0j3wmS28LxxbEMfn4cXxTn8EAO3dybFqRYooRcVZWVoUKFWrVqvXee+998cUXw4YNQwj16tWL9sLx48dNJlOLFi0WLlw4ffr0iIiI7t27+3WQFEQMQJ3EEhdHjY2MRue/cXHUHiiJHo5EfPu0k4sXL44ZM6ZBgwYmkykqKqpVq1azZ882m82+FSNE7Ns/+O2cOf5HxFLMTHkoJw4reYhVc4ZoJn/4IQ7ivfdCXp5qTVaMiGfPno0QOnnyJOOa5557DiF0485cW48ePapXr84QypIlSxBC27ZtYwqzJiQiYgBq/iEtjRr9dO5M/ZuWJsmMBKtRvjPJ8jXf/hH+dssW/PXrOiPsmpZuZspDadFYyUOyajNEM9lup26wpgM3eLBq7VWMiKdMmYIQuu5ywcmUKVOMRuOtW7fMZnNoaOjkyZMZr5WUlJQrV2748OFMDmtCOiJmbU4NmYSIxY+C3Q4pKfjCdroDGwzuQ2N6h7t0fxOVtUo0ViorVs2fxDQ5KwtiY3EEV65Up9WKEfGWLVvouYjjx49nZWV9/fXX5cuXnzhxIgD88ssvCKHVq1e7uqxjx44tW7Z0zfFMEyL29AlrDpmaYHULlZmb67x9ByHo1QtWrpR7ZspDOTFZyUO4OjNENnnVKkzEsbHwzz8qNFkxIgaAWbNmRUZGMsfwTp8+nXbQmjVrEEK7d+929deAAQPi4+Ndc+h0cXGx+e6TnZ2NEMrJybF6PPn5+adOnbJYLPbgemw2W15ens1m42WWxWI5depUfn6+h580kGGxWDIyMiwWi+i6lu7b56hZk+6xDqPRNnu2tbiYaiU/v3TZMntSkv3hh+1JSaXLllnldZ10JovuQ7EEim6yffBgOrL2hx+2FhWJpadYcnJychBCzGSsJ9HROe5HMnorxys/LS2tW7duixcvXrt2bXJyssFgmHdnG0xqaipC6ODBg67Shg4dGhsb65pDp2fMmMFQOZ1IT0/P8Hg2b9585MiRq1ev5pEnL+/q1atHjhzZvHmzh5/0mrF+/fHRo22hoXRfLYqN/WXWLL36Ijjt3vzVV5YqVej4nnzuObUZmZ6ergwRr1q1KjIyMjs7m+HWYcOGRUVF5ebmkhEx9+EtGRGLMCS5edP+7LN0FwWE7O3aWc+fF0GseCJEHx6Kp5pUkqQwuXTHDsed6X5HWJj14EGpVBckV7ERcadOndq3b8+wMACsW7cOIbR9+3YyR+zqFt9p8mOdb//4f3v2LDRrxrAwTJyowuuQRZ4w9e8U5UtIZfLUqTjWjRqBy64FxQ1WbI64QYMGbdq0cbV/9erVCKEtW7bcvHmTddVEcnKya3nPtN8f6woLCz1raTpHGBEXFhZmZmYWFRVp0XYxu+j69c4jK6Ojoezvw+pxjpgmq8cqn5pIZXJJCbRogbl43DifKsj6UjEifvLJJ8PDw//44w/G3KSkJKPReOnSpdt7xrp37169evX8/Hz67dKlS2mOZgqzJnwQsc1my8zMZN10xypKK5nCiDg3NzczM9Mm9tk08jhNnC5aWgqvveYcCN9/P2RmyqO/gFbEMVlAw8pVkdDkzEznmXnff6+ciWVaVoyId+3aFRISUrVq1bfffnvBggU9evRACI24e8HJ0aNHIyIimJ11JpPJ77ZdAPBBxABw+fJlmosLCwuLguWxWCxXr161WCwcDSosLKRZ+LJ2zswuA1gAEbpoTg61M4fZnTFokMqvOBPBZDcnqv6jtCbPn4+jHx8P166pwRmKETEAHDx4sEePHvHx8WFhYQ0aNJg9e3ZpaSnjlD179rRv395kMlWpUmXs2LHM6Jgp4JnwTcQOh4Pm4swgek6dOnXkyJFTp07xsuny5csOh8PTgZrICbSL7tnjPKw2NJS6L071rgjUZE3EtayS0prscECPHpiLe/dWAwCUJOKynhfhk28iphuw2WwcB4+aKJafn7958+b8/Hzu2mp0RoLBh/Au6nDAnDn40nWEqItV9u5lxKo5IdxkNVvlUzfJTc7JcV7numSJT13keKk7IpbDqTK2ITleZbSFY1MCTc7Ph/79ndMRjz4KV69ybFHxYgJNVlzvABSQw+SMDIyHqCjqFm1FH0LEiro/4MblwGvASoorQIjJJ09Cw4ZOFp42TfRLNMS10U2aEJPdRGjto0wmjxyJUdG6tbLLFgkRaw2hZfWVCa9lG1X2E2+T09MhKgr3t9hYCU8vlcwvvE2WTBPZBMtk8q1bcN99GBszZshmnWdDhIg9faKlHJnwqiaX8DC5pATGjXMOhJs3h7/+UpMpXHXhYTJXkWovJ5/JBw/inw2MRti3Tym/ECJWyvPitCsfXsXRVwQpXE3Ozoa2bZ0s/MILoNntPFxNFsG7ahEhq8lvv41xUrcu3N27ILMjCBHL7HCRm5MVryLrLlAcJ5N//NH5m3hEBCxZooYlSgINFmXptOC2FarIKcpi6VZaCu3aYS72t31XrDbd5BAidnOIxj7Kild1+MaPyXY7zJ7tvH25dm04ckQdigvXwo/JwgWrt6bcJv/9N5Qrh7l47Vr5/UKIWH6fi9mi3HgVU3eBsnyZfOMGPPmkczriiSfg338FNqOmar5MVpOeIuqigMnLlmHkVKwIdw5aENEcv6IIEft1kaoLKIBXpf3h1eRjx6BOHdyXDAaYNQvsdqWVFad9ryaLI16NUhQw2eGAfv0wfrp2lRk8hIjViELuOimAV+7KSVOS3eQvv4SICNyLKlWCH36QpnFlpLKbrIwuMrWqjMm5uc7t73PnymTqnWYIEcvpbfHbUgav4tvBQ6K7yYWFMHw4pmCEoHVruHCBhzgtFHU3WQs6B6ijYiZv24axFBEBLnfMB2iO3+qEiP26SNUFFMOrcl4pY/LffzuPl0UIxo6F4mLlVJOq5TImS9WIuuQqafKECZiLH3xQNjgRIlYX/vhqoyRe+eoqUnmnyZs2QYUKuM9ERcFXX4nUgurEOE1WnWpSKaSkyUVF0KQJxtXkyVJZWFYuIeKy/tDaJyXxqpCvKJPXrrUxd94gBA0awIkTCqkjR7M6jXJGhtVqlcO/nm38+iuEh1NcbDDATz95vhc9hxCx6C6VVaAeu+ilS9dcb5nr1w/MZlmdLntjeoyy1ZqhIBEDwMcf40FxjRpw44bUMSdELLWHpZWvuy66f7+jRg3cQ0JCqN6i+mPdA0eA7qKshs2Edjs88ghG2qBBUsOMEHHg3URJCTrqog4HzJsHYWF033DEx8OuXUq6Xsa2dRTlu15VhclZWc4fIST+BYIQ8d3Ia/P/qsCrDK67dQuGDMHDE4SuN25sDbo1aj68qJcou7hALSavXo1RV748/POPi4IiJwkRi+xQmcWpBa+Smn3mjPNXbIRsr7yy4dtvFfsZR1JLvQjXRZTL2q4ik4cOxVzcqZN09wkQIi4bf619UhFeJXLdmjXO01hiYmDt2uA32cOTxGQPl8iYcfMm1KqFufi99yRqmBCxRI6VSWwwd1GrFV55hZmOgAcegD/+ADX8jCNTbJ3NBHOUnVaWSanL5N278Xl+oaFw9GgZRUX6QIhYJEcqJEZdeBXRCZcuQceOThZ+9lm4dYsWH7Qme/ceMdm7b+R6M20aRmOjRmCxiN4qIWLRXSqrwODsoj//DNWqYdyHhcHnn7suHgpOk32ihpjs0z2yvCwpgVatMCbHjBG9SULEortUVoHB1kUdDvjwQ3yHGEJw771w8KCbQ4PNZDfz2D4Sk9m8Inve6dMQGYm5+LvvxG2eELG4/pRbWlB10Zs3ISkJAx0h6NoVrl/3dGhQmexpHlsOMZnNK0rkff45xmfVqnD1qogaECIW0ZkKiAqeLvrbb1C/vpOF33rL21Kh4DGZM16IyZxdJXFBhwN69sQo7dXLdcYswIYJEQfoQIWrB0kXTU11/tEXFwc+/+4LEpP5AIeYzMdbEpe9cgWqVMFcvHixWI0RIhbLk8rI0XwXLS6Gl15yDoRbtYLz5327UvMm+zaP7S0xmc0ryuVt3IgRGxVFL6kMXBVCxIH7UEkJ2u6i//wDDz3kZOFRo6CoyK83tW2yX/PYChCT2byiaN6LL2Lc/uc/IMZZnYSIFQ1nwI1ruItu3QoVK2I0m0ywbBlHZ2jYZI4WehQjJnu4ROmMW7fgvvswet98M3BtCBEH7kMlJWiyi9rtkJJCHbmNEPVfvXpw/Dh3J2rSZO7msZUkJrN5Rem8Q4cgNJQCsNEIe/cGqA0h4gAdqHB17XXR3Fzo3h1TMELQqxfk5fFyovZM5mUeW2FiMptXVJD3zjsYyXXqQH5+IAoRIg7Ee8rX1VgXPXQIatbE2DUa4f33wW7n60SNmczXPLbyxGQ2r6ggz2aDDh0wnocNC0QhQsSBeE/5uprpog4HLFqE7wFDCKpWFXwVmGZMFg8dxGTxfCm2pHPnICYGc/GaNYKlEyIW7DpVVNRGF7VY4LnnMFgRgvbt4eJFwe7ThsmCzWOrSExm84pq8pYvx9iuWFEwsAkRqyacghTRQBc9exZc7/qcODHA5T4aMFlQKH1UIib7cI7yrxwO6N8fc3GXLgJm2wCAELHycQxEA7V30fXroXx5jNHoaFi9OhBj6bpqNzlwCz0kEJM9XKKyjH//hXvuwTj/7DMByhEiFuA0FVVRbxctLYXXXsPQRAjuvx8yM0VxnHpNFsU8NiHEZDavqCxv+3aM9ogI+P13vsoRIubrMXWVV2kXzcmBzp2dLDxoEBQUiOU4lZoslnlscojJbF5RX96kSRjzTZty2SPqagAhYldvaC+txi66Zw9Ur44RGRoKc+eKeEgVuSpJexgVpLEage3XkKIiaNoUI//VV/0Wdy1AiNjVG9pLqwuvDgfMmeM81v2eewLfceQZEnWZ7KmfBDm6MrmoCFJTISnJ/sAD15OS7KmpfAeXEgSAu8jff3eu0fzxR+71CBFz95UaS6qoi+bnO387RggeeUTck7MZ76vIZEYniRP6MXnDBoiLo8aURqOD+TcuDjZulNjFIoqfMwcPihMS4MYNjoIJEXN0lEqLKdNF6UFL376QmAh9+1IDmGPHoGFDjD+E4PXXobRUIpcpY+YCdBUAACAASURBVLJExnATqxOTN2ygDiBhziChTyJBCGdu2MDNWYqXstvhscdwXxg4kOO8nGJE/PzzzyO25+Kdpf6JiYluL7t16+bXw2azGSGUm5vrt2TQFFCgi7oMWuihi5N/EYLYWJC4xyhgstJw0YPJRUXUWNiThWk6NhiotxwOSVU6VHT72dl4YI8QNUzh8ChGxPv27UtzeVJTU6Oioho3bkzrnJiYWKNGDZf3aTt27PBrDiFivy4KtIC3QQvdXWrXhr/+CrQJf/X1wEpuPtCDyampZb7QmeGwayItzc0xKv74zTfYnpgYv3cdqGhDx549exBCs2fPpl2bmJjYpEkTvm4mRMzXY/zK+x60IAQVKsgwaNEDK7nFJehNvnUL2rXzQ8RGIzUNpqXn+eexSR07eruAkTFHsRExowGdGD16tMFgOH/3mhyaiEtLSwv4rD8lROzmVZE/qmPQEvSs5Bm1oDTZ4YATJ+Cjj6gJ1fBwPyxMj4s7d/b0jYpzzGaoXRsb9u67vhVVBRFbrdZKlSp16NCB0TUxMTEsLCw8PBwhVK1atTfeeMPK4T4SQsSMAyVJJCV5ncOjO4osg5agZCXf8Qomk/PyYM0aGD4cEhI4kS8zNSELuHzHgf/bPXuoY+MRoo6QP3zYR31VEPGmTZsQQp9//jmjaHJyckpKytq1a1NTU3v16oUQGjhwIPPWNVFcXGy++2RnZyOEcnJyrLp5LBZLRkaGxWKR0OKSEuuBA7bx4x1hYX67jv3hhyXU5I5oOUyW2gae8rVucnGxdf/+0pQUW/v29pAQal2a23+1ajk6d7a7ZXp+XLaslKfnlC9umzqVttZx333WvDxvCuXk5CCEzGazK7l5ppFnlog5gwcPDgsL87HaYeTIkQih/fv3ezY6Y8YMt/UV6enpGeQRwwNblyw5NXSo+d573fuNZxe5k+MwGC61bStGy0RGMHhg+fLvJ048kpiYFRtb7AmZ8HBby5ZXhg//fcGCH9evz/jmm43R0SUGAwtN0+CKji755puNmvPLhm+/vVG/Pt2DznXv7k3/9PR0hYm4oKAgKirqySef9CRZJufMmTMIoVmzZjE5TIKMiMUfEf/7b+nSpfZHH3WUXUzkoG/o8uxSLjmly5Z5+84XK1/rw0MBftCQyYWF1p07S6dOtbVsyT7CbdjQ8fLLts2bS81md0+sW1dqMDi8cLFj7VrtDYexhSdPOqKiaC4uzchwN/vOZ+VHxGlpaQihVatWMdzqmbBYLLe/LiZNmuT5yjWHzBG7eoN32maDbdvg2WfhLmicA+GOHWHxYsjJUcNSz2CaMOUYI/WbnJ0NS5ZAv37UOnKX72WcLlcOkpKoG1ru/hjv1W6XRerOnXW0QM7XfHsVruSLRYuwL6pWZd1xqvwccffu3cuVK2exWHy46cSJEwihd/398kiI2IcPfb36/Xf4v/9zHqjK9KR69WDmTPj7b2fdjRvxPiemDJ2gd0TJshFV/azkdJdIKXWaXFwMP/5IAeeBB1jIFyFo3hymToWff4aSEh6OKCqCtDT6rIlrSUn2l192srn0i9R56MmvqMMBTz6JLXnySc/tdgoT8bVr10JDQ4cOHepqldlsLi4uZnIcDsegQYMQQkePHmUyWROEiFnd4jUzJwc++YTqLm6sWqECvPQS7NvnCRdKlMughapI/ygs43EA6mQlr04W44WqTP7rL5g/n2IVzz+cEIKKFeHpp2H5crh8OSDLXU1OTsYIbddOup3zAWnLqfLVq9RVjXRfW7TIrYrCRDxv3jyE0NatW13V2rlzZ3x8/KRJkxYsWPDxxx936NABITRq1CjXMqxpQsSsbnHPtFggPR169MAcyrBwaCj07g1r14LLt6B7XfozPWjp25c6dLhvX2oAI+PmU9cuyq5e0OUqbvKtW7B5M4wbB3d/dirz3W0wQNu2kJICBw743bjANTauJufnQ926uMW33+YqQY3lNm3CZkRGwpkzrhoqTMRt27atWrWqzWZz1encuXMDBgyoXbu2yWSKiopq1arVokWLHA6HaxnWNCFiVrfgTLsddu6EF15wXjrLUHDr1tQg5/p1X9VV8861i6pGKWkVUcTk2zexnTwJH38Mjz/OvuEiPh6GDYOvvwYpDndxM3nfPjxsCAmBgwel9ba00kePxlz80EOulzcqTMTi2kyImN2fp0/DtGlQs2aZYQxCVM706W7fzOwS1JTr1kXVpJpUushpcl4efPstjBgBNWq444Xel9C5M7z/Pvz6K/vElVgu8DT5rbewPvXri3jfi1j6cpZjsTjPKXzjDaYaIWLGFZpMeOLVacb16zBvHvznP+79KSYGkpOp31Dsdmdh7aR8mawdK3hpKrXJdjscOQLvvAMdOzqP9Wf+XkIIatWifjXIyAB/Gw54meWrsKfJViu0aYOxPHKkr7pqf3f4MLXRjv59Zc8eWltCxGqPmm/9PPFKzfB++y306oWDzfSn23/U9egBq1aBzwUqvptTw1sWk9WglpQ6SGTytWvw1VfUesUqVdy/rBECkwm6d4fPPqP+ZOIwLyiy/awmnz0L0dFY1YwMkVuUVdzs2diM2rXpLzdCxLL6X/TGnHh1OKh7iV58kToCjSFfOtG8OXWDUU6O6K0rItBpsiLNK9GoiCaXlsIvv8Abb8BDD7EfHNKoEUycCFu3QmGhEqbebdObyUuWYHRXrqxlRNts1F8fdPd8/nkVHYN51/8B/V+fc8Q/LFxoe/NNqFfPnX+rV4fJkwXc7B1QDKSv7K2LSt+yYi0EbnJ2NixdSl1lFeCGC9lc4M1kh4Na2kMzWI8eCgzVRfPA+fPOn83Hjcvr2VPhLc6iGQagLyK+cQO++MLevr07/0ZFUX9t/vCDaCuJRIyQGKK8dVExZKtUhjCTJdpwIY+PfJh87RrEx2PUL1ggjzrStOJyruxNg4EQsTRelkiq1UrdpNi/v/uSIoOBOth1xQot/6LMyWU+uiin+hosxMtkeTZcSO1F3yZv2YKJ2GSCzEypdZFMfkYGM4qiLnlT/PQ1sQwN5hGxwwGHDsH48VC5MhM8OmG+917b7NmQnS2WG1Uux3cXVbnywtTza7L8Gy6EGcK9ll+Tx43D/aBFC35bqLnrIG3JsvfdECKW1tsiSL9wAd59Fxo1cuNf6qfuCROsBw9mrF/P5dR8ETRRhwi/XVQdaoqpBavJym64ENM8NlmsJrsWtFjg/vtxn5g61fWNRtIu8xKAECFitYbNbIb//Q8eecT9t+2ICBg4kNpweufKEr94Vat5wvXSuckq2XAhPH7canKJ8tGjQN9VYDDArl3c5KqnVN++rmcMECJWT2TuaFJaClu2wJAhEBnpPgTu1Ik6ajAvz1VjLnh1LR8EaR2aXFxs/fjjnTNn2tSz4UJqIHGM8vvv415Ss6Zbz5BawYDlJya6dnBCxAE7VCwBv/4Kr7zi/D2YWQt8333w9ttw7hxrOxzxylpXo5n6MdllwwXLvRXKbriQGjwco2yzAUNozzwjtVKiyicjYlHdGbCwS5eom2ybNnX9eqTScXEwejTs3+97qSRHvAaspYoEBLfJfjdcNGwIEyZQfzUpu+FCakBwj/KFC87F0enpUuslnnwyRyyeLwOQdOsWtb20a1fXeSKKf8PCqMsM1q3zfxblnca54zUAXdVVNShN9rfhwtG69eX5821e/i5SV4BE0YZXlFeuxMOY2Fi4cEGU9qUXQlZNSO9j7y3Y7bBjBzz/PJQr5z4EbtsWFizge6QgL7x6V0tLb4LGZC4bLqZMoc4uvXXLmnHnrjMtxSkwXflGefBg3J86d9bOYVYu992QOeLA8AJAnYmemkqdj56YSP2bmsp+SvqpU9S9MZ5nC9auTe38/+MPYXrwxauwVlRVS+smC9hwoXWTBeCHr8l5ecDcNv7hhwIaVKjK3ftuyM66wAJw1494hsHz3qCrV2HuXGjVyn38W748debrrl0Bfn3zxWtg1qqithZNvnULvvvO1w0XbdrAjBleb7jQoskBYkWAyTt34qWeYWFw/HiA7ctY/c59N+SsiQA8vmGDr5s0X3uNutjL7Qr6kBDo2ZO61UCkn1oE4DUAg1VRVSsmOxxw6hR1KWCXLhAR4f5FjBBUq0bNUa1a5X86Sismi4gPYSa/9hr2c+PGYvUwEW3yJYocg+nLO77elZ1rZ+lnzPozOtGyJXz6KVy54ksm/3fC8Mq/HRXVkN9kjpNPtI9u3qSu/Rs50vmXsisQQkOpGaz33qOGbNzP5ZffZMXjLczk4mLnXbgvv6y4ETwUIETMw1llipZdfeKViBMSYMoU6vIvaR5heJVGF5mkymyy38knAIpSb+/ymj0bOnXyesPFiy/C+vUCb7iQ2WSZAumzGcEmnzpFHWlPf/mVvZTYZ3tKvyRELDQCZddjsxNxx45Sn0UpGK9CzVa+npwm+558Sk2FlSth6FDnLemug9+ICOjWjfor6PRp32vB/btUTpP9ayNLiUBMnjcPd8f4eK3ciAuEiIXCitnQ49r53NKdOwuVzrVeIHjl2obKyslmMt/JJzr4zIYLEW+kks1k9YQ6EJMdDuqSJzocSUmBfgvK4xNCxEL97HdEbDRSq9kkfgLBq8SqSSVeNpM5Tj4hRC0K790bFi70thE9UFfIZnKgiopXP0CTL1+GSpUwF3/5pXhqSSaJELFQ13LppmlpQqVzrRcgXrk2o6Zyspns96sWIWjQgNpwUVIirYNkM1laM/hID9zkdeswEUdHw19/8WlbibKEiIV63fcfrgYDdVhEUZFQ6VzrBY5Xri2pppxsJqtj8onyu2wmqybI4pg8fDjm4rZtobRUPcaxaEKImMUpXLPoHYpu88II4cXFGzdylRNAOdJFA3Cen6p+R8SyTD5RSpIo+wmVl9cFBc47dVNSvBRSRzYh4sDi8O23+DuXpmPPnXWBifdbm3RRvy4SVsDhgGHDysTW8wsXIZB+8olSn0RZWBABqOMLQ0KoOIaEUGnVPoSIAwvNnj24s9asCZ07U7/OpaXJMCPBKE26KOMKERMWC7UojZV5mUy5Jp8os0iUAwluSgoOZb166r1ZlxBxICEGahE/3TUV+mmWdNHA4sdS++xZ99OhDQZ3UjYYqPknWSafKA1JlFnixDnr9qU3bdrgCI4YwbmavAUJEQfmb2a94tmzgQkSWJt0UYGO81Jt3TooXx532nLl4JtvgMvOOi/CRMsmUQ7QlX/+CdHROKzr1wcoTJLqhIgDcKvNBjExVHjj45VaNU66aADxK1O1tBQmT8Z9FSFo3JjaEUc/d47HoqadlJh8olQgUS4TKkEfvvwSB7dSJbh8WZAIKSsRIg7Au0eP4tgOGBCAlICqki4akPvuVs7JgYcfdrLw4MHqmkwkUb4bKOH/dzigTx8c4m7dlBo4edWfELFX1/h/8emnOLDz5vkvLE0J0kUD9+vu3c4rW8PCYN481fVSEuXAowxAnTsRH694l2U3hRAxu1845TLfsL/9xqm8BIVIFw3EqQ4HzJnjPC8tIQH27QtEnlR1SZTF8uzWrZiITSbqtGj1PISIhcbC4YDKlamoVqjA42RZoa15q0e6qDfP+M03m6F/f9wtEYLHHoNr1/xWUqYAibKIfn/5ZRz05s0l35vOXW1CxNx9VbZkZiaO55NPln0h6yfSRYW5++RJaNjQycLTpkl9XqkwNXEtEuWA3Fe2cmEh9Ussvej0tdfKvlPuEyFiob7/4gsczA8+ECpChHqkiwpw4sqVEBWFoxcbK99yYAGq0lVIlAW7jrXi8eMQFkYBwGCgzmxSw0OIWGgUnnkGd2VFN06SLsorfiUl1A2ezO645s3h7795CVCmMImy6H7/8EMMg3vvhbw80cXzFkiImLfLcAX68u7ISGXnmUgX5R6/rCznDiuEIDlZM/dLkihzjzLHkjYbtSqc/koeMoRjJQmLESIW5Nx//sExfPRRQfVFq0S6KEdXbt+Of1tFiLpTeelSjvVUUYxEWYowZGVBbCzuxytXStECD5mEiHk4y1mUORVe6cP1SBd1BsVLym6Hd96hZgPp4U+dOtRFn9p6SJQliteqVRgVsbHwzz8SNcJJLCFiTm5yLzRyJA7gjh3ur+T9TLqob3/fuAE9e+JYIUSlb9zwXUONb0mUpYsK81tPYqKSK2eEE7HFYtm+fXtKSsqIESOSkpKGDBkyYcKEpUuX/vnnn9J5zbdks9mMEMrNzfVdTIS39NKn0FAQ8YZIQWqRLurDbUePQu3amIWNRuqkPLvdR3H1viJRli42eXlQsyYGiYILoIQQ8b59+5577rmoqCij0WjweIxGY5MmTebNm2c2m6VzH6tkmYj46lUct7ZtWdWQM5N0UW/eXrqUmgumpyMqV4bt270V1EA+ibKkQfr5ZzxzFRYGx45J2pRX4fyI+OTJkz169DAajWFhYV26dHnrrbc2btx48ODBP//88/fff//555+/+OKLF154oVatWgaDoXLlynPnzi31clfU888/j9ieixcv0sru3bu3Q4cOkZGR1apVGz9+fEFBgVcj7r6QiYiZWzlUsBycdNG7wXf+v7AQXngBUzBC0LYtZGU532oxRaIsddSmTsWAuf9+ZdbS8CPikJCQunXrzps37/r1675d8/PPPz/zzDOhoaHvvPMOa8l9+/aluTypqalRUVGNGzemCx8/ftxkMrVo0WLhwoXTp0+PiIjo3r07qxzXTJmImNkjuXmza+uKpEkXdXP7339D8+ZOFh43TtnlhW7aCfxIoizQcZyrlZRAixYYNuPGca4mXkF+RLx06VJvI1xWlc6ePfvTTz+xvnLL3LNnD0Jo9uzZdH6PHj2qV6/OTG4sWbIEIbRt2za3Wm4fZSJiOmIGgxoWgpMu6oqBjRupkz/o6YioKFB8TZKrboGkSZQD8R7HupmZYDJh8Hz/PcdKohXjR8SiNeshaPTo0QaD4fz58wBgNptDQ0MnT57MlCopKSlXrtzw4cOZHNaEHER88yaeT3rwQVYdZM4kXZR2uM0G06Y5B8INGsDJkzKHQsLmSJQldK6L6PnzMYTi4+U+AUoVRGy1WitVqtShQwfaJ7/88gtCaPXq1S4ugo4dO7Zs2dI1xzMtBxF//z2OlSJ/wHjYTLooAFy9Sp2dRg+EEaLOVJP9d2KPwIiaQaIsqju9CnM4oEcPDKSkJFmPpRaHiC0Wy+LFi1955ZVXX331yy+/LCws9Gor24tNmzYhhD7//HP65Zo1axBCu3fvdi07YMCA+Ph41xw6XVxcbL77ZGdnI4RycnKskj22u9fplKanS9YID8EWiyUjI8NisfCoo/Gibibv3l2akOCgWTgkxPHRR7aSEo1b6KG+m8ke74MwQymTs7KslStjOC1aVCqbZ3NychBCzGSsJ9HROcjbCwA4dOhQtWrVjEZj1apVY2NjDQbDPffcc/z4cR9V3F4NHjw4LCyMWf+bmpqKEDp48KBrsaFDh8bGxrrm0OkZM2a4Lb5IT0/PkOzJbdSI/sbcsmyZZI0QwZw8sH59xogRv4WE2GkWjosrmj17N6eapBDxgHcPvP76ARpRERGln3++3XtBMd+kp6cHSsStWrV6/PHHmWVnv/zyS3x8fLt27TxJkzWnoKAgKirqSZdTfdU7IjabHXeOz3PUry/bV6XvhpQaOPjWStK3tMlXr1oGDsQUjBA8/LA9K0vSZpUUrtsoK/Wn3vDhGFr/+Y9dnr82eY+IV61a5canoaGhO8ru9J04caLJZHIr5u1jWloaQshVrHrniHfuxBNI/n429Gas6Pn6nD2cP//HRo3w348IwWuvgZfV6qL7WxmB+oxyRkaG1WpVxOMFBVC/Pu7rM2bIoQLvOeLw8PCnnnqKGf8CQO3atSdNmsQoe+vWrQcffLB+/fpMju9E9+7dy5UrZ3HZK3zz5k3WVRPJycm+RUn+Y93bb+PgLF/uWxPZ3uqwi65cWWoyldJ/PJYvD+vWyeZsxRrSYZQVN/ngQXyZYUiIHDcZ8ibikydPtm3btnz58vPnz6eBuWzZMoPB0KhRo0GDBiUlJVWqVMlgMKSlpXGB7bVr10JDQ4cOHepWuHv37tWrV8/Pz6fzly5dihDasmWLWzG3j5IT8eOPYyI+d86taaU+Ko5XOQ23WmHiRBwBhKBpUzh7Vs72FWtLV1GmvawGk5lxV926cJeKpMIAbyIGAIfDMXfu3JiYmPbt22dmZgLA3r17Bw0a1OLOM2TIkAMHDnDUd968eQihrVu3upU/evRoREQEs7POZDJ17drVrYznR2mJ2GqF6GiKBhISZF3Y4mmnS44a8OqijoTJixehQwcnCz/zjN3ljygJ21WDaP1EmfG2GkwuLYV27TDk/P01ziguMCGEiOmmLly48MQTT0RERMyYMUPwVE7btm2rVq1qs9k81d+zZ0/79u1NJlOVKlXGjh3LjI49SzI50hLxwYM4JoMHMy0qnlADXmVwwk8/QdWq2P3h4Y7Ro4+XlCgzeyiDsZ5N6CTKroarxOS//oJy5TDw1q51VVDktHAiphVZuXJl1apV77///r1794qsGn9x0hLxRx/hgCxcyF81qWqoBK9SmUf9+QXvvw9GI/Z9zZqwb1+pgj/jSGepD8lBH2VP29Vj8v/+h7FXsSJcuuSpqTg5gRIxAOTm5g4dOjQkJGTMmDFcxq3iKM4mRVoi7tULB0RNm2fVg1e2gASad/Mm9O6NvY4QdO0K169DcJvM6jJiMqtb5Ml0OKBfPwzCrl2lOtJaCBEfPXp09OjRPXv2HD169LG753du27atbt26NWrU2LBhgzwO8mxFQiK22yEujopGpUpShcLTHg45QdxFf/vNuYTIYIAZM/AFCkFssreAE5O9eUae/NxcqF4dc/HcuZK0yZuIN27cGBoaGhcX16ZNm4oVK4aGhm6+expkYWHhpEmTQkNDBwwYcPXqVUn09SlUQiI+cQLHoXdvnyrI/TJYu+iKFRAZiV1esSK4noYVrCb7gA4x2Ydz5Hm1bRtGY0SEJOdJ8Sbi5s2bN2vWjJ6CKCgoaNasWYsWLVx9cejQoWbNmsXFxblmypOWkIgXLMBx+OQTeWzh2ErwddGiInjxRexshKBVK7hzJJ/TH8FnstM2LylishfHyJo9YQKG5YMPQnGxyE3zJuLbmy9cD6icPHlyTEyMm1I2m+3dd991y5Tho4REPGgQDsLhwzIYwr2JIOui58/DQw85WfjFF6GoyN0ZQWayu3lsn4nJbF6RO6+wEJo0weB0OaNXHDV4E3Hz5s1btGhBn69WWFjYvHnzB9VxMi99kLEkl4c6HHDPPVQEypVT217aYOqiW7ZAxYoY6CYTeNu9GEwmc+zExGSOjpK62K+/Qng4BVGDAbjdeMFVI95EvGHDBqPRWKlSpXbt2lWuXNloNGZkZHBtTeJyUo2I//oL0wOHTSUSm+guPji66O115DNm4AP3EYJ69eDXX90tZT4Hh8mMOVwSxGQuXpKnzMcfYzKoUQNu3BCtTd5ETJ97OWrUqCeeeOLFF190O6xSNL0ECZKKiJctw76fNUuQXhJWCoIuev06dOuGHYwQtV4tL8+Xx4LAZF/msb0jJrN5RZk8ux0eeQTDddAg0fbYCiFiZRzAoVWpiJi5E3jXLg5ayFpE61300CGoWRPD2miEDz7wj2ytmywAH8RkAU6TrkpWlvNqxK++EqcdQsQc/EifiBcezvLLEYfakhbRbhd1OGDhQjzjhhC1g3nnTk6u0q7JnMxjK0RMZvOKknlff41HD+XLwz//iKAJPyJ2PTWYS+NZWVm//PILl5KilJFkRHzpEnZ5x46iKCmuEI12UYsFhg7FfkWIOs2H++ZRjZocSNyJyYF4T6K6DIAffhhvNQqkIX5EHBIS0rRp0+XLlxcUFPhu9fDhw6NGjYqIiJgl47yqJETMfPdNm+bbZEXearGLnj1LnWBJHyiMEHWyJa/jv7VocoDYICYH6EApqt+8CbVqYRi/916gLfAj4mPHjnXu3NlgMERHR/fr1+/DDz/csWPHyZMnL168+Ndffx06dCgtLW3cuHENGzY0Go0VKlT44IMPikVf+uzdZEmIeOxY7Gx/pyF710vCN5rrouvWQfny2KPlykHZq7o5OUpzJnOyymchYrJP9yj2cvduvNQnNBSOHg1IDX5ETDd1m3z79+8fHh5uMBiMHs/tU+Hr1av34Ycf3hBxcQc3GyUhYnrwZjSq84p2DXXR0lK4ewU2RcT33w93zrLmFlqXUhoy2UXrgJLE5IDcJ2Xl11/Ho4pGjSCQA7KFEDFtV15e3oYNG1577bUhQ4Z069YtKSlp5MiR//3vf3/77TcpDfclW3wi/vdf/JXXsqWvhpV7p5UumpMDiYkYsgjB00+Dv8ktrz7VisleDeD/gpjM32cy1SgpoXbh0/NsY8cKb1Q4EQtvU7Ka4hPxxo3YxxMnSqZ1QII10UX37HEeXhUaCv/9r/81aj6cogmTfegv4BUxWYDTZKty+rTzgKrvvhPYLCFin477v//DRKzWKypV3kUdDpgzB1/CSF8ytW+fT4dzeKlykzlYwLsIMZm3y+St8PnnmCeqVQNh504GSsQ5OTkLFiwYP348c8XytWvXDh48SB9GIa83QPwRcZs22MHXrslsC8fm1NxFzWbo3x/7DyF49FGBGHVzhZpNdlNVrI/EZLE8KZEchwOeeAJDvVcvIX/wBUTECxYsMJlMhjuP0WikjTx58qTRaFy8eLFENvsQKzIR37oFoaGUd++/30ejyr5SbRc9eRIaNnSy8LRpIqy1pF2tWpOlQwIxWTrfiiX5yhWoUgUDXgD5CSfijRs3GgyG//znP5s2bRozZgxDxADQvHnzJ554QiwLucsRmYh//BH7ddQo7jrIXFKdXXTlSoiKws6LjYWNG8X0ijpNFtNCD1nEZA+XqDGD+UUpKgrOnuWnoXAi7tSp1m1IEgAAIABJREFUU61atW7dugUAKSkprkQ8dOjQ2rVr81NEjNIiE/Fbb2EuEWs/uRg2uslQWxctKYFx47DbEILmzeHvv91UDvSj2kwO1B4O9YnJHJykiiLMnQatW/PbpiSciGNiYsaMGUNb70bEU6dOjYyMlN8xIhMxc8hSVpb8tnBsUVVdNCsLmEl1hOCFF6CwkKMdPIqpymQeegdQlJgcgPNkrXrrFtx3Hx6IvPkmj6aFE3F0dPSECRPoptyIODk5uUKFCjy0EKmomERcUgImE+XRWrVE0k4SMYp00aIiSE2Fvn2ppcF9+1LpoiLYvh0qV8YQjIiApUslsReA3OIslWNVJVcRYIvigUOH8DIhoxH27uUqUjgRt7zz0O24EnFpaWn9+vU7derEVQXxyolJxHv3YlIZOlQ8BcWXJD9eN2zA91kbjZSH6H/p7yx6WXvt2oFu9/TtJvlN9q2PDG+JyTI4WcQmZs3C5FGnDuTncxIsnIg/+eQTg8GQkpLiOkdss9kmTJhgNBqXLFnCqX1RC4lJxO+/j30p4BdQUY3yLUzmLrphA7XT0GDAvmEO7mESPXvCv//6VjnQtzKbHKi6YtQnJovhRflk2GzUgYJ0p3jhBU7tCidiq9XauXNno9F43333NW3a1Gg0DhgwoE6dOgaDoVu3bg6Hg1P7ohYSk4iZZYFnzoiqo8jC5OyiRUXUWNgHC5tMAW235+gaOU3mqJLUxYjJUntYdPnnzkFMDObib7/1L144EQNASUnJtGnTKlasSC8lNhgMsbGxU6dOLSkp8d+yBCVEI2KbDWJjKS9WrSpkcbYEpnkTKWcXTU31OhBmRsRpad40FS1fTpNFUzowQcTkwPynTO3ly3F/qVgRLl70o0NAREzLdjgcp0+f3rt374kTJ2y3r4FU7hGNiI8fxy7s1085azi1LGcX7dsXzwgztOuWMBqp3+6kfuQ0WWpbOMonJnN0lKqKORzOnaVduoDd7ks74URcp04dZvmarxZkfCcaEc+di4l47lwZ1RfSlGxd1GqFBx7wPyLu3FmIFbzqyGYyL60kLUxMltS90gnPzYV77sG95rPPfLUjnIhjYmKmTp3qS7bs70QjYuaIhGPHZDeCX4NSd1GHg1oCMWECNUnjNv71/EhGxPyCx7m01FHmrIh8BYPG5O3bcceJiIATJ7w6UDgRd+jQoa8Mf4h61ZzlhThE7HBg1ilfXrTzEViUFSdLOrxmZ8P770OTJv7515WRyRyxOHEtK0W6KJdtR0WfgsnkSZNwJ2rWDLxdWCSciDdu3BgWFvbTTz+pJ3riEPEff2C39eihHtO8aSI6XgsKYMUKeOwx99UR4eHQpw9ER7vnMyxsMFBrKoqKvGkqWr7oJoummWSCiMmSuVYOwUVFzmm9V19lb1E4Ea9YsaJnz56hoaH9+/f/4IMPli9fvqLsw96glLniEPGSJZiIA78RUEpjadlidVGbDX74AZ591nlYD8OwHTvCF18Afe/Vxo0UEXuuYKMzxT3cx5vzxDLZm3wV5hOTVRgUXir99huEh2Ne+fFHlqrCiZi+sI5ZuOZ6fx2dZmlN4ixxiPi557DDuO9PlNguH+ID76InTlBXyTE/KTD8W68epKTAX3+5N866sy4uTuQj1txbdfkcuMkuwrSRJCZrI04+tZwzB/NKQgIe1rgWF07Ey/09rs3IkxaHiGvXphxmMoFCq6F5+UpwF83Joe7OaN4cg4Ph3woV4KWXqD3yPnbkFBVBWhq1Uq1zZ+rftDQ5ZiQYtwg2mZGguQQxWXMh81TYbqdm/OiONnCge/8STsSeLSmeIwIRZ2VhV8mwDksMf/HtooWFsGoV9OjhvL6IRkZoKPTuDd9+6/XHBDGUFUcGX5PFaVVRKcRkRd0vWuPZ2ficFoSoo7JcH0LErt4AWLkSEzGvM+zKypDzE8cuarfDzp2QnOzcdskMgVu3hnnz4Pp1ObUOqC2OJgfUhsoqE5NVFhDh6nzzDSaYmBg4f94pJ1AiPn/+/DvvvNO/f/+uXbv279//nXfeOe8q3tmQHCkRRsTMwc7bt8uhccBt+O2iZ87A9OlQsyYOP8O/NWtS+adPB6yB7AL8miy7RpI3SEyW3MUyNsD8CNWxo3N9bEBE/Nlnn4WHhxuNRtef7MLDwz/zvYlEMptFIOLGjSnGCgmBggLJ1BRTsLcuev06zJ8PrVu7829MDDUu3rnTz4ZLMVUUW5Y3k8VuR0XyiMkqCkbAqpjNQP8OhRC8+y4WJ5yIN23aZDAYqlSp8u677+7fv/+ff/45cODAe++9V6VKFaPRuHnz5oAV5i0gUCK+dg3zVuvWvNtWqIJbFy0upuZ5e/fGt54y41+jkZoXTk+X43Q0qT3hZrLUzalBPjFZDVEQUYc9e/CxLaGhcOQIJVg4ET/yyCOVKlXKzs520y8rK6tSpUqPPvqoW74MHwMl4nXrMBH/3//JoK0oTdBdtKTEuncvtdohLs59CNy8ObU6IidHlNZUIYSwkirCILESQR/l6dNxV23YkBoeCSfi2NhYb4f+jB49OjY2VuJIsYgPlIiZrYgbNrBIV2XWmTPWwYMz69VzMINfOlG9OrU6+PffVal0YEoFfRf1dA8x2dMnWs+xWuGhhzAXP/oo9OyZhxAym82+7UKeryMjIydPnuyZDwCTJ0/W5OWhrVphx0h9yQSr1/hk5uVRu906dnQf/0ZFUbvjfvjB+SMAH6naKEtYSRtxCkxLPUT5zBnndjuEbgok4gcffLBRo0alpaVuDi8tLb3//vsffPBBt3zWj0ePHn3qqafi4uIiIyObNGky9+6xk4mJiajs061bN1YJrpkBjYjz8/G0zQMPuMpUVdpqpTawDRgAERFlKNhgcDz2GHVGhEZ+YgzIqXroom4OIia7OSQ4PtIXj939W9YskIjpO+seffTRI/Rs8x3fHD58+PHHHzcajXPmzPHrrG3btoWHh7dp02bOnDmLFy+eMmUKM8ROTEysUaNGmsuzY8cOvwIDIuKtWzG3jRnjtyGZCzgccPgwjB8PVaqU4V+E4P77Hc89d/LcOavMKinYHGElBZ0vW9NBH2WPi8eEErHNZuvduzd9rES5cuXq1q1brlw5eilbUlKS3fd59ABms7latWp9+vRhLZmYmNikSRO+UQ+IiJnJ86+/5tuudOUvXKAWuDRq5M6/VapQZwQfPQolJdaMjAyrlRCxdEFQXnLQs5Kni4PeZI+Lx4QSMe27FStWPProoxUrVgwNDa1YseJjjz2W6rZ3z9PHd3IWLlyIEMrMzASAW7duudExTcSlpaUFfP7YDoiIO3XCbHfpkheV5cvOz4dly+CRR9zPOYuIgIEDYfNmYIg36PHq6XRisqdPgi8n6KPscfFYYEQsGAH9+vUrX7789u3bGzRogBCKjo5+6aWXiu4eZ5uYmBgWFhYeHo4Qqlat2htvvMFl0CeciIuK8LR5vXqCLQq8YmkpbN0KQ4ZAZKT7ELhTJ1iyBPLy3BsJery6GwxATPb0SfDlBH2UExPd+rhCRNysWbOoO8/48ePXrl07fvx4hNDTTz9NQyo5OTklJWXt2rWpqam9evW6PXYeOHAgK9qKi4vNd5/s7GyEUE5OjpXnU/rTT7RX7M89x7OqOMWPHLFOmmSLj3dfhVa/vmPGDNsff3htxWKxZGRkWCwWryWC7gUxOehCymJQ0Ec5KcluNLr2d6FEvGnTpj59+lzy+EP+0qVLffr0+f7771l5k8msW7cuQuill15icl588UWE0NmzZ5kcJjFy5EiE0P79+5kcJjFjxoyyyytQenp6Bs8n85lnaCI+Nn48z6oBFf/f/7YMG3aidu2bd385xV+SMTElPXqc++CDXevXBySfVCYeIB5QpwcmTDhSttcLJeLu3bs3a9aMIUTXRPPmzXv27Oma45lu0qQJQmjXrl3Mq127diGEVqxYweQwiTNnziCEZs2axeQwCVFGxPauXWkKtJ4+zfLtLHbWzZvWFStKu3Z1+0qEsDBH7972b74pLSjg2mTQDxw8HUFM9vRJ8OUEfZTz860VKjgMBmZQLJSIq1evPnLkSIYQXRMvvvhiQkKCa45nukuXLrfnIs6cOcO8On36NEKI9cAgi8Vye5HdpEmTmMKsCYFzxKWlUK4cRcTVq7sf18zajNBMux1++gmGDcOtuX4ftm0Ln38Oubm8RQf9VJqnR4jJnj4Jvhw9RLnsxWNCiTgiImL69OmsCJg+fXpERATrKyZz6tSpCCHX1cE7duxACK1cuZIpwyROnDiBEHqXOaqIeVE2IZCIDx/GMwKDBpWVx+lTURF1xnPfvpCYSP2bmspyXUVmJrz+Otx7L26HoeDateHNN+GPPzg1xFpID3h1M5yY7OaQoPyokygzF48ZDEJ31tWoUaN///6sIOjfv3/16tVZXzGZx44duz0jPGTIECZn8ODBoaGhly5dMpvNxS63TjscjkGDBiGEjh49yhRmTQgkYuYyqfnzWcX6yGT8aDRSJEv/y1zgdu0a/Pe/zh3lDP+WLw8jRsDu3SKcRakTvLqGgJjs6o1gTesnyvTFY8LPmhgyZEhERMRvv/3mBoVff/01PDycWf/g9tb14+2lEfRyiAULFgwYMAAh9PrrrwPAzp074+PjJ02atGDBgo8//rhDhw4IoVGjRrnWZU0LJOKkJDxS5XlGDr1D0duVxv/5j/tZlCEh0LMnrF4NhYWs6gvJ1A9eGe8QkxlXBHFCb1EWfvrab7/9FhERERMTM3PmzH379l24cGHfvn0pKSkxMTEmk8mToD1BY7VaU1JSatWqFRYWVr9+/U8//ZQuc+7cuQEDBtSuXdtkMkVFRbVq1WrRokUOH5dZ3hUthIgdDqhUiSLiuDheA1SPHYru0w7M+BchaNkSPvsMrly5q6h4/9cbXoGsIxYPPGqWpDdgCydiAPj222+jo6ONLo/BYIiJiVm/fr0iMRZCxKdOYQZ96ileOnvsUGQh4rg4mDIFTp7kJZhfYb3hlRAxP3xotrTegB0QEQPA1atXP/jgg/79+3fp0mXAgAEfffTRtWvXlIq+ECJetAgz6Ecf8VLbY4eiOxEbDNCnDy+RQgrrDa+EiIWgRIN19AbsQInYNcQOh+Ps2bNZWVmumXKmhRDxkCGYQQ8c4KWqxw5FdyJGCDp35iVSSGG94ZUQsRCUaLCO3oAtnIjXrl07dOjQGzdu0FH+559/HnjgAXqWYtCgQTabTf7o8yZihwNq1KAYNCrKeY4ON739joiNRmo1m9SP3vBKiFhqRKlEvt6ALZyIH3/88aZNmzJhS0pKMhgMjz32WPPmzY1G4+LFi5lXsiV4E/H583gc+9hjfJXkMkeclsZXKu/yesMrIWLeENFmBb0BWzgR33PPPcOHD6ejnJ+fHxYWRi9Zs1qtTZo0adu2rfwA4E3EK1ZgIp45k6+2vldNGAzUKoy7Z8nxlc2jvN7wSoiYBzi0XFRvwBZOxCaTidlZ9/333xsMhg1379ycOHFilSpV5IcBbyIeMQIT8c6dArSldyi6LlOj0wYDdY7wxo0CRPKuoje8EiLmDRFtVtAbsIUTcdWqVZmz0yZPnhwSEsLMF0+ePDkqKkp+APAm4gYNKCIOCxO8xYIZUtMU7LazTgYP6A2vhIhlAJUamtAbsIUT8cMPP5yQkJCbm5uXl5eQkNC6dWsmfgMHDqxTpw7zUbYEPyK+cgUPh9u3F6zh2rVYRoMG1BqJvn0hLU2OGQlGYb3hlRAxE/rgTugN2MKJ+NtvvzUYDCaTKSYmxmg0Llu2jEFGzZo1k5KSmI+yJfgR8Zo1mESnTBGs4YQJWMamTYJlBFRRb3glRBwQXLRTWW/AFk7EAPD555+3uvN85LIb4ueff65QocKiRYvkDzo/Ih4/HpPod98JVrVFC0qGwQB3V/EJliSwot7wSohYIFC0Vk1vwA6IiNUWXH5E3Lw5JlHPm+C4GXbzJj5uzcv5+NykBFZKb3glRBwYXjRTW2/A1isR5+XhG5KbNxeMze+/x0PqceMEywi0ot7wSog4UMRopL7egK1XIv7uO0yiL78sGJmvv45lfPONYBmBVtQbXgkRB4oYjdTXG7D1SsRTpmASXbNGMDI7dMAycnIEywi0ot7wSog4UMRopL7egK1XIm7XDpOo0EOCCwup9ccIwX33KQltveGVELGSaJOxbb0BW5dEbLFgEm3QQDC0fv4ZM3lysmAZIlTUG14JEYsAGi2I0BuwdUnEP/2ESXTECMGYfPttLGP5csEyRKioN7wSIhYBNFoQoTdg65KIZ87EJJqaKhiTXbpgGefOCZYhQkW94ZUQsQig0YIIvQFbl0T82GOYRM+fF4bJ0lKIjqZkJCQAh7v0hDXCqZbe8EqImBMstF9Ib8DWHxFbrdQx8AjBvfcKJtFDhzCTDx6sMOT1hldCxAoDTq7m9QZs/RHxgQOYRIcMEQyqjz/GMj7/XLAMcSrqDa+EiMXBjeql6A3Y+iPiDz/EJBrAaRi9emEZkt7QzKWz6A2vhIi5oCIIyugN2Poj4qeewiSamSkMr3Y7VKxIyahYEex2YTJEq6U3vBIiFg066hakN2DrjIjtduoKI4SgcmXBE8QnTmAm791beSzrDa+EiJXHnCwa6A3YOiPi33/HJNqnj2A4ff45lvHJJ4JliFZRb3glRCwadNQtSG/A1hkRz5+PSXTOHME4fPppLOPQIcEyRKuoN7wSIhYNOuoWpDdg64yIBw7EJHrkiDAcOhxwzz2UjOhoKC0VJkPMWnrDKyFiMdGjYll6A7aeiNjhgOrVKRItV04wif79N2byLl1UgWK94ZUQsSpgJ70SegO2noj4zz8xiXbrJhhIy5ZhGbNmCZYhZkW94ZUQsZjoUbEsvQFbT0T8v/9hEp09WzACk5OxjF27BMsQs6Le8EqIWEz0qFiW3oCtJyIeNgyT6O7dghFYvz4lIzwciooEyxCzot7wSohYTPSoWJbegK0nIq5XjyLRiAjBJHr5Mmbyjh3VAmG94ZUQsVqQJ7EeegO2boj44kVMop06CYbQ6tVYxuuvC5YhckW94ZUQscgAUqs4vQFbN0S8ahUm0enTBWNv7FgsY8sWwTJErqg3vBIiFhlAahWnN2DrhojHjMEkum2bYOw1a0bJMBrBbBYsQ+SKesMrIWKRAaRWcXoDtm6I+IEHMInm5wvD3o0bYDBQMlq2FCZAklp6wyshYklgpD6hegO2Poj433/xcPihhwRDbtMmLGPiRMEyxK+oN7wSIhYfQ6qUqDdg64OIN2zAJDppkmDUTZ6MZaxdK1iG+BX1hldCxOJjSJUS9QZsfRDxq69iEl2/XjDq2rTBMq5dEyxD/Ip6wyshYvExpEqJegO2Poi4dWtMotevC0PdrVsQGkrJaNRImACpaukNr4SIpUKSyuTqDdg6IOKCAggJoUi0cWPBYPvxR8zko0YJliFJRb3hlRCxJDBSn1C9AVsHRLx9OybRl14SjLcZM7CMr74SLEOSinrDKyFiSWCkPqF6A7bCRHz06NGnnnoqLi4uMjKySZMmc+fOZSCxd+/eDh06REZGVqtWbfz48QUFBcwrbwmz2YwQys3NLVPgzTcxia5cWSafz4dHHsEyLlzgU036snrDKyFi6TGlihb0BmwliXjbtm3h4eFt2rSZM2fO4sWLp0yZMnnyZBoFx48fN5lMLVq0WLhw4fTp0yMiIrp37+4XIOxE3LkzJtGsLL8SWAuUlEBkJCWjVi3W90pm6g2vhIiVRJuMbesN2IoRsdlsrlatWp8+fexsNyH36NGjevXq5rs72JYsWYIQ2uZvUxwLERcXg8lEkWjt2oJRtG8fZvJnnxUsQ6qKesMrIWKpkKQyuXoDtmJEvHDhQoRQ5p077W/duuVKx2azOTQ0lBkdA0BJSUm5cuWGDx/uGy0sRPzLL5hEn3vOd10fb99/H8tYvNhHKWVe6Q2vhIiVwZnsreoN2IoRcb9+/cqXL799+/YGDRoghKKjo1966aWiO6f8/vLLLwih1atXu0a/Y8eOLf1tLmYh4vfewyS6dKmrNF7pnj2xjNOnedWTo7De8EqIWA5UqaANvQFbMSJu1qxZ1J1n/Pjxa9euHT9+PELo6aefBoA1a9YghHaXPb59wIAB8fHxnggpLi42332ys7MRQjk5Oda7j717d5pErSdP3s3j9/+iImtsrAMhqFLFUVLCr64MpS0WS0ZGhsVikaEtlTRBTFZJICRVQ29RzsnJQQgxk7GeREfnIG8vBOfXrVsXIfSSy5KyF198ESF09uzZ1NRUhNDBgwddhQ8dOjQ2NtY1h07PmDEDlX3S09Mz6GftWmtUFCBUVKFCxvr1OJPn/z799CeEKDJv1+4Sz6qkOPEA8QDxACcPpKenK0PETZo0QQjtcrn6bdeuXQihFStWiDYiPniQHg7b+/YV/O396ac2mog/+cQmWIh0FfU2cLBarcRk6eCkHsl6i7JiI+IuXbrcnos4c+YMM8g9ffo0Quizzz4TbY74s8/w5O5//8u0wjfRvz+WcewY36pylNfbVBqZI5YDVSpoQ2/AVmyOeOrUqQihHTt2MEHfsWMHQmjlypU3b95kXTWRnJzMFGZN4B/rLl6E1FTo2xcqV8YkWnaWg7Uua6bDAdWqUTLKlwebjbWIwpl6wyshYoUBJ1fzegO2YkR87Nix2zPCQ4YMYSI7ePDg0NDQS5cuAUD37t2rV6+ef/cQ96VLlyKEtvi7oYgm4puxsRR3Go2YhRGCChVg40amIe6JP/7AMnr04F5J1pJ6wyshYlnhpVxjegO2YkQMAMnJybeXEg8cOHDBggUDBgxACL1+91bOo0ePRkREMDvrTCZT165d/aICEzE9p+v6r8FA3a6xYYNfCW4Fli7FRPzee25v1PJRb3glRKwW5Emsh96ArSQRW63WlJSUWrVqhYWF1a9f/9NPP3UN7p49e9q3b28ymapUqTJ27FhmdOxaxi1NE7HZlYKZtMEAcXFwZ52yWy0fH597DhPxL7/4KKXkK73hlRCxkmiTsW29AVtJIhY9rL6ImGbktDRejdapQxGxyQTFxbzqyVdYb3glRCwfthRtSW/A1hMRG43UL3icn6wsPBxOTORcR/aCesMrIWLZIaZMg3oDtp6IGCHo3Jk7rFauxET85pvcK8ldUm94JUQsN8IUak9vwNYTEfMcEb/0EibiH35QCIwcmtUbXgkRcwBFMBTRG7D1RMQIAZ854saNKSIOCQEOR9IrBn294ZUQsWJQk7dhvQFbN0TMc9XE9et4ONy6tbwA5Nma3vBKiJgnQLRaXG/ADkIivsksWWMS9DpiPns61q/HRPzqq6qGst7wSohY1XAUTzm9ATsYidh1Zx29vy4uju/OukmTMBHz3wUiHhg5SNIbXgkRcwBFMBTRG7CDkIhzL16k5oL79qXWSPTtS6V57uMAgIcewkTsdhOp2jCuN7wSIlYbAiXSR2/ADkYiDpg78/PxSRUPPCARzEQTqze8EiIWDTrqFqQ3YBMiZsHjtm14ODxmDMtbVWXpDa+EiFUFP+mU0RuwCRGzYGn6dEzEq1axvFVVlt7wSohYVfCTThm9AZsQMQuWHn4YE/HFiyxvVZWlN7wSIlYV/KRTRm/AJkTsjqWiIoiIoIi4bl33Vyr8rDe8EiJWIQilUElvwCZE7I6i3bvxcHjYMPdXKvysN7wSIlYhCKVQSW/AJkTsjqLZszERf/ml+ysVftYbXgkRqxCEUqikN2ATInZHUbdumIj//NP9lQo/6w2vhIhVCEIpVNIbsAkRl0FRaSnExFBEXL06OBxlXqnzg97wSohYnTgUXSu9AZsQcRkIHTmCh8MDB5bJV+0HveGVELFqoSiuYnoDNiHiMviZMwcT8fz5ZfJV+0FveCVErFooiquY3oBNiLgMfvr0wUT8229l8lX7QW94JUSsWiiKq5jegE2I2IkfhwMqV6aIuEIFsNud+WpO6Q2vhIjVjEYRddMbsAkRO8GTmYmHw0895cxUeUpveCVErHJAiqWe3oBNiNiJnEWLMBF/+KEzU+UpveGVELHKASmWenoDNiFiJ3KeeQYT8YEDzkyVp/SGV0LEKgekWOrpDdiEiDFyHA6oUYMi4qgosFrFgpPkcvSGV0LEkkNKHQ3oDdiEiDHuzp/Hw+HHHlMHErlpoTe8EiLmhgvNl9IbsAkRY8impmIinjlTSyDWG14JEWsJnQHoqjdgEyLGYBkxAhPxTz8FAB/Zq+oNr4SIZYeYMg3qDdiEiDHOGjakiDgsDCwWZZAnrFW94ZUQsTCcaK6W3oBNiJiC6JUreDjcrp3GEKs3vBIi1hhAhaqrN2ATIqaQsmYNJuIpU4QCR6F6esMrIWKFgCZ3s3oDNiFiCmEvv4yJePNmuQEXYHt6wysh4gABo5XqegM2IWIKmc2bU0RsMEBenlaAivXUG14JEWsMoELV1RuwCRHDzZsUBSNE0bHmHr3hlRCx5iAqTGG9AZsQMXz3HZ6XGD9eGGaUrKU3vBIiVhJtMratN2ATIoapUzERr1kjI9BEakpveCVELBJw1C5Gb8AmRAzt22MivnJF7ej01E9veCVE7ImBoMzRG7D1TsSFhdQmDoSgQQNN4llveCVErEmY8ldab8DWOxHv3ImHwyNG8AeLCmroDa+EiFUAOjlU0Buw9U7EM2diIl6xQg54id6G3vBKiFh0CKlToN6ArXcifvxxTMTnz6sTkH600hteCRH7AUSwvNYbsHVNxFYrdQw8QtSR8A6HJiGsN7wSItYkTPkrrTdg65qIDxzAw+EhQ/gjRR019IZXQsTqwJ3kWugN2IoR8c6dO5HHs3//fjrCiYmJbi+7devmN/hmsxkhlJub67ckXeCjjzARL1zIsYbqiukNr4SIVQdBaRTSG7AVJuKXX345zeW5fv06HdbExMQaNWq4vEnbsWOH34jzJeKnnsIAsT2IAAAWJklEQVREfOqUX9kqLaA3vBIiVikQxVZLb8BWmIjXeNnNlpiY2KRJE77B5UXEdjvExVFEXLmyVieICSvxRYhGy+uNlXQIbOWJOD8/v7S01K2H0ERcWlpaUFDg9srHR15E/PvveDiclORDpNpfkS6q9giJoR+JshheVLUMhYm4XLlyCKGQkJDOnTsfPnyYcVViYmJYWFh4eDhCqFq1am+88YaVwx33vIh4wQJMxHPmMM1qL0G6qPZixl9jEmX+PtNYDcWIeO/evf369fvyyy83bNjw3nvvVapUyWQyHTt2jPZfcnJySkrK2rVrU1NTe/XqhRAaOHAgq2uLi4vNd5/s7GyEUE5OjpXDM2CAHSGKi/fvL+VQXKVFLBZLRkaGxWJRqX4SqEVMlsCpqhOptyjn5OQghMxmMyvLMZmISUmU+PPPPyMjI70tjRg5ciRCiFlT4arDjBkz3NZXpKenZ/h71q/PiIsrQghMptK1azf4K07eEw8QDxAPSOiB9PR0VRAxADz99NPh4eE2m82VZ+n0mTNnbs9gzJo1y/OVsBHx6dNWejjctatddYMBPgrpbeBgtVqJyXwAotWyeouyWkbEADB58mRv3wkWi+X2q0mTJnkSsWsO9zni//0PTxC/846rAO2lyeyh9mLGX2MSZf4+01gNxeaIPf3Ur18/k8lkt9s9X504cQIh9O6773q+cs3hTsQvvICJePduVwHaS5Muqr2Y8deYRJm/zzRWQzEivnbtmqurfv3117CwsF69egGA2WwuLi5m3jocjkGDBiGEjh49ymSyJrgTcb16FBGHh0NREaskzWSSLqqZUAWgKIlyAM7TRlXFiPiRRx554okn3nnnncWLF0+cODEqKio2NjYzMxMAdu7cGR8fP2nSpAULFnz88ccdOnRACI0aNcqvRzkS8aVLeDjcqZNfkWovQLqo2iMkhn4kymJ4UdUyFCPiuXPntm7dumLFiqGhodWrV3/22Wf//PNP2lXnzp0bMGBA7dq1TSZTVFRUq1atFi1a5OBwPBpHIv76a0zE06apOjZclCNdlIuXtF6GRFnrEfSrv2JE7FczAQU4EvGYMZiIt24V0Ii6qpAuqq54SKMNibI0flWRVD0ScdOmFBEbjZCfr6JICFOFdFFhftNWLRJlbcVLgLa6I+J//8XD4VatBLhLdVVIF1VdSCRQiERZAqeqS6TuiHjjRkzE/hYlqytO3rQhXdSbZ4Ipn0Q5mKLJaovuiPj//g8T8bp1rA7RWCbpohoLmCB1SZQFuU1LlXRHxK1bYyIuu45ZSzFz1ZV0UVdvBGuaRDlYI8vYpS8iLiiA0FCKiBs3Zjzw/+2dD0yU9R/HPxx3cHc4jj8qxxzyC4hSppUVDMogShEXrCSCEtNRGziGuOLCsrRC/LNaheYQyJqQJDkt3RoSOodGSaY0xX8wxzxsNCE8UAbKwfOTnvPZEwd4dx7w/fN55vR73+fPfd6v9/f75vHhee7obuAUpds/26pHl23jRPFWfAVxTY3ldDgjg2LP5KXjFJXTYLWNLrPqrKSLryBet84SxLt3SwTobuAUpds/26pHl23jRPFWfAVxTIwliI1Gij2Tl45TVE6D1Ta6zKqzki6OgrivT1Crh4L4f/+T5FPfwClKvYU2CECXbYBE9yYcBXFdneV0eNkyuj2TV49TVE6D1Ta6zKqzki6OgnjTJksQl5ZK8qlv4BSl3kIbBKDLNkCiexOOgnjxYksQX7pEt2fy6nGKymmw2kaXWXVW0sVLEJvNgqfnUBBPny7Y8IGaEh/SGzhFSXfIGfWhy86gSPQxeAnihgbL6fDLLxPth73F4RS1lxiN26PLNLpmV828BHFhoSWICwvt4kP6xjhFSXfIGfWhy86gSPQxeAnipCRLEDc0EO2HvcXhFLWXGI3bo8s0umZXzVwE8eDg0KVhAEGnE8xmu/iQvjFOUdIdckZ96LIzKBJ9DC6C+OJFy+nw4sVEm+FAcThFHYBG3S7oMnWW2VswF0FcWmoJ4s2b7eVD+vY4RUl3yBn1ocvOoEj0MbgI4mXLLEFcV0e0GQ4Uh1PUAWjU7YIuU2eZvQVzEcSBgUNBrFYLt27Zy4f07XGKku6QM+pDl51BkehjsB/EV65YTodjYoh2wrHicIo6xo2uvdBluvxyoFr2g/jbby1BvG6dA3xI3wWnKOkOOaM+dNkZFIk+BvtBnJFhCeLDh4l2wrHicIo6xo2uvdBluvxyoFr2g3jWrKEgViqFmzcd4EP6LjhFSXfIGfWhy86gSPQxGA/ia9csp8MREUTb4HBxOEUdRkfRjugyRWY5VirjQbx/vyWIc3Md40P6XjhFSXfIGfWhy86gSPQxGA/i1astQXzwINE2OFwcTlGH0VG0I7pMkVmOlcp4ED/++FAQu7gInZ2O8SF9L5yipDvkjPrQZWdQJPoYLAdxV5egUAwF8Zw5RHtwP8XhFL0ferTsiy7T4pTDdbIcxIcOWa5LZGU5zIf0HXGKku6QM+pDl51BkehjsBzE771nCeI9e4j24H6Kwyl6P/Ro2RddpsUph+tkMIivXu0oKxOWLLF8SR2AcPmyw3xI3xGnKOkOOaM+dNkZFIk+BoNBrNOZACxXhwGGToq9vQW8a4LoYWhPcZhK9tCidVveXGYwiAGGglj+x8Vl6MaJAwdoHZRj1M3beBUEASWPMR6YWcWby0wGcZc8hcW2i8vQeXFvLzMD1SKEt/GKQczaCB5FD28Dm5cgFuO4vHwU26nt5m28YhBTO1TtK5y3gc1RECsUQ7/BY2zhbbxiEDM2gEeTw9vA5iiIAQT2Phuet/GKQTxacjHWz9vA5iiI8YyYjbnK2xTFnz1sjNuxVXAUxAACXiMeezRQsRaDmAqb7rNI3lzmJYjxron7nBjk7M7bFMUzYnLG3vhVMmlBfPToUbBafvvtN0lqXV3dU089pdFo/Pz8srOzb9y4Ia0ardHV1fXvIUe+j5jJZzowlUYbDCz1o8ssuTmilkkO4lWrVpXLlvb2drHKhoYGtVr92GOPFRUVrV271t3dfdGiRSMKkHeKQSx/sk789DV8sk5OifY2phLtDtpSP28uT3IQ7927d0RX4uPj/f39u7q6xLWlpaUAUF1dPeLGUqcYxFevdpSXD92pFhMz9Hd5OYPPcUiSeRuv+P90yXq2G7wN7MkP4u7u7v7+fvmo6urqUiqVBoNB6rx169aUKVPeeOMNqWfEhhjEHR0dI65lspO38YpBzOQwthbF28Ce5CCeMmUKALi6usbExJw8eVL045dffgGAyspKuT1PP/30vHnz5D3WbQxiaybs9fA2RfFnD3tj2FrRpAVxXV1dUlLSzp07Dxw4sGnTJl9fX7Vaffr0aUEQ9u7dCwDHjh2Tl5ucnKzX6+U9Yruvr6/r7tLa2goAbW1tt7lZenp6fvzxx56eHm4U30bJPHjNm8ttbW0AIF2MtQ46sQdGW+Gs/ubmZo1GExcXJwhCWVkZANTX18sPvmzZMp1OJ+8R2+vXrx9280VFRcWPuCABJIAE6CFQUVFBRBALgpCamurm5mY2m/GM2PZTHt5OHG7fxjNi20cHxVvyNrBJOSMWBMFgMIg/E/AasfWJ/2g9eMF0NDIs9aPLLLk5opZJu0ZsXU1SUpJarR4YGDCZTCPeNZGenm69l7wHf1knp8FqG1OJVWflunhzedKC+Nq1a3Luf/75p0qlSkxMFDsXLVrk7+/f3d0tvvzqq68AoKqqSr6LdRuD2JoJez28TVG8a4K9MWytaNKC+Nlnn128ePGGDRtKSkpWr16t1Wp1Ot358+fFEk+dOuXu7i49WadWqxcuXGhd/bAeDOJhQJh8iUHMpK3DRPHm8qQFcWFhYXh4uI+Pj1Kp9Pf3T0tLa25ulptx/PjxqKgotVo9bdq0rKws6exYvs2wNgbxMCBMvuRtiuIZMZPDeJioSQviYXU45SUGsVMwEn4QDGLCDXJKeby5zFQQm0wmAGhpabn7hAf7/3Z0dFRUVHR0dLAv9a5ClHyXBMv/8uZyS0sLAJhMprF/jI37Ax1jv72Nay9fvjzs4Q58iQSQABKghcDly5fHzjo6gvj69esAYDQaWT5V+K828anu1tbW/3az/Aols+zuXW28uWw0GgHg+vXrLASxeI34ns9rjy2VrrUomS6/HKsWXXaMG0V72WgxHWfENoqhyJ57loqS74mIgQ3QZQZMHFuCjRZjEI+NcdLW2ujfpNU3Dm+MkscBKnGH5M1lG/XSEcR9fX3r16+/8zdxw2rcCkLJ44aWoAOjywSZMT6l2GgxHUE8PojwqEgACSABIghgEBNhAxaBBJAAzwQwiHl2H7UjASRABAEMYiJswCKQABLgmQDpQdzX1/fOO+/4+/ur1erw8PCff/6Zbbd+//33rKys2bNna7XagICA5OTkS5cusS1Zrm7Dhg0AEBYWJu9ktX3q1KmEhARvb2+NRhMWFlZYWMiqUkEQmpqaUlJSZsyYodFoHnrooY8++qinp4cxvTdu3Fi3bl1cXJy3tzcAfPPNN8MEnj9/Pi4uzsPDw9vbOy0tTf6JwaQHcWpqqlKpzM3NLS4ujoyMVCqVx48fHyaPpZdJSUl6vT47O7u0tDQ/P9/Pz8/Dw+Ps2bMsaRxNS2trq1ar9fDw4CGIq6ur3dzcIiIiPvvss5KSkry8PIPBMBoZ2vuNRqOXl1dgYOCmTZuKi4tXrFgBANJnlNOuTqpf/FiJmTNnxsTEWAdxa2vr1KlTg4ODCwsLCwoKvL29H3nkkVu3bom7Ex3E9fX1APDJJ5+Itfb29gYHB0dGRkrK2WvU1dVJ3ojnEe7u7kuXLmVPqbWilJSU2NjY6Oho5oO4q6vLz8/vpZdeGhgYsObAXk9BQQEANDY2StJef/11AOjs7JR6GGj09fW1tbUJgnDy5EnrIF65cqVGo7ly5YqotKamBgCKi4vFl0QHscFgcHV1lT/ZvHHjRvFDJxiwzUYJ8/5dbNyY3s1qa2tdXV3PnDnDQxAXFRUBgPhtCTdv3mQ+jvPy8gCgvb1dGp95eXkKheLmzZtSD0uNEYN4+vTpycnJcpmhoaHPPfec2EN0ED///POzZs2Sl3748GEAOHjwoLyT4fbg4OCMGTNs+RITqiGYzea5c+dmZGQIgsBDECclJXl6etbU1ISGht75P5+Hh0dmZmZvby/VJo5RfFVVlXgtoqGhwWg07tmzx9PTc/Xq1WPsQvUq6yC+evUqAGzZskWuKy0tzcfHR+whOojDwsJiY2PlpZ87dw4AduzYIe9kuF1eXg4AO3fuZFijIAhffvmlTqcTf3fBQxDPnTtX+++SnZ29b9++7OxsAEhNTWXY5fz8fI1GI31q5dq1axkWax3EYk9ZWZlctfj19uIDw0QHcVBQUHx8vLx08YOJP//8c3knq+0LFy54enpGRkaazWZWNQqC0NHR4ePj8+mnn4oaeQjioKAgAMjMzJRszcjIAICmpiaph7FGeXl5XFxcSUnJvn370tPTXVxctm3bxphGSY51EB87dgwAKisrpW0EQfjggw+kT8gkOoh5PiNua2sLCgoKCAj466+/5Oax187MzAwJCZF+RclDEIeFhQFAbW2t5GZtbS0A7Nq1S+phqfHdd99pNJrW1lZJ1IoVK7RabUdHh9TDUsM6iOk+I+b2GrHJZHr00Ud9fHzOnTvH0gC11tLU1KRQKLZu3dpyd4mIiAgNDW1pafnnn3+st2ejZ8GCBXeuRVy8eFGSc+HCBQD44osvpB6WGvPnz4+KipIr2r9/PwDU1NTIO5lpWwcx3deIc3Nzh901Id4HYzQamfHMWkhvb+/8+fO1Wu2vv/5qvZaxnqNHj0rXDYc1cnJyGBMryVmzZg0AHDlyROo5cuQIAOzevVvqYakRGhoaEREhV1RZWQkAVVVV8k5m2tZBLAjCtGnTrO+akH4HRvSliRMnTsjvI+7r6wsJCRnmKDPmiULMZnNiYqJSqfzpp58YkzainPb29h/+u4SFhc2cOfOHH344c+bMiLsw0Hn69Ok7V4Rfe+01Scurr76qVCpZvQz1wgsvuLm5yZ8RffHFFxUKBat6RwzizMxMjUYjnUSKN4AVFRWJY4DoIBYEITk5WalUGgyG4uLiqKgopVIpv7ImjWNmGjk5OQCQkJBQ/t+FGYH3FMLDNWJBENLT0+/cSvzKK69s3749OTkZAN599917wqF0A/Em8enTp3/88cfbt2+Pj48HgDfffJNSOWOUvW3btvz8/JUrVwLAkiVL8v9dxK9wNhqNvr6+wcHBW7du3bhxo7e395w5c8RbJgRBID2Ie3t7c3Nz9Xq9u7v7k08+eejQoTEoMLAqOjp62P/QxZcMSLNRAidBfPv27Q8//DAwMFClUoWEhDB/I1B9fX18fLxer1epVKGhoQUFBf39/TYOCYo2CwwMtJ6/LS0tooTGxsaFCxdqtVovL6+lS5f+/fffkjTSg1gqFBtIAAkgAVYJYBCz6izqQgJIgBoCGMTUWIWFIgEkwCoBDGJWnUVdSAAJUEMAg5gaq7BQJIAEWCWAQcyqs6gLCSABaghgEFNjFRaKBJAAqwQwiFl1FnUhASRADQEMYmqswkKRABJglQAGMavOoi4kgASoIYBBTI1VWCgSQAKsEsAgZtVZ1IUEkAA1BDCIqbEKCx0PAiaTKTc3Nzg4WKVSeXp6xsbG8vAx0ONBEo95PwQwiO+HHu5LNwGTySR+a1FMTIzBYEhJSXF1ddXpdN3d3XQLw+ppI4BBTJtjWK/zCLz11lsAsHnzZumQmZmZAIAnxRIQbEwMAQziieGM70IcAbPZ7OXl9cADDwwODkrFrVq1ati3yUmrsIEExo8ABvH4scUjE03gjz/+AIDs7Gypyv7+/oCAAH9/f3k0S2uxgQTGjwAG8fixxSMTTaC4uBgAysrKxCp7e3uXL18OAFu2bCG6biyORQIYxCy6ippsICBeDm5sbPz++++XL1+u1+sBIC0tbWBgwIa9cRMk4EwCGMTOpInHoohAeHi4Vqs1m83h4eHi94ypVKr333+fye9So8gXPkvFIObTd95Vm81mjUYTGRkpCEJ/f39bW9uBAweeeOIJAHj77bd5p4P6J5wABvGEI8c3JIDA2bNnASArK0teS2dnp0qlevDBB+Wd2EYCE0AAg3gCIONbEEdg165dAPD111/LK+vv71er1fPmzZN3YhsJTAABDOIJgIxvQRyBnJwcAGhoaJBXVl1djZcm5ECwPWEEMIgnDDW+EUEEnnnmGQBYs2aNVFNnZ+fs2bPd3Nyam5ulTmwggYkhgEE8MZzxXQgiMDg46OnpKd4pER0dnZeXl56e7uvrq1AoSktLCSoUS+GGAAYxN1aj0LsEmpqaACAxMTEhIUGn0ymVSr1en5SUhB8xcZcQ/jvRBDCIJ5o4vt+kE6isrASAHTt2THolWAASEAlgEONI4I5AXl4eAJw4cYI75SiYVAIYxKQ6g3WNG4EFCxYoFIqenp5xewc8MBKwjwAGsX28cGsGCEydOvXhhx9mQAhKYIYABjEzVqIQJIAEaCWAQUyrc1g3EkACzBD4PyBYbS4xNBHnAAAAAElFTkSuQmCC;" vertex="1" parent="1">
          <mxGeometry x="660" y="120" width="280.59" height="280" as="geometry" />
        </mxCell>
        <mxCell id="qU0uXyh9bXfhi3hnWExh-4" value="" style="shape=image;verticalLabelPosition=bottom;labelBackgroundColor=default;verticalAlign=top;aspect=fixed;imageAspect=0;image=data:image/png,iVBORw0KGgoAAAANSUhEUgAAAdgAAAHWCAIAAABbsQ++AAAgAElEQVR4AexdB3wURfueu7RLI4SWUJQiTUAEUSkRAypSxRCa4IciTVD5I59SBBUUwU/AgooooEAisfAhCaCAiIg0KQH9gNAENAFCicAluZRL7t4/y2529+527/b2tt/sj1+Ynfo+zzvz3Nze7AwCfGEGMAOYAcyAqgwgVVvHjWMGMAOYAcwAyCLEp06dGjp0aP369SMjI1u0aPHGG2/YbDaS7OTkZOR69ezZE/sBM4AZwAwEMwPSC3Fubm716tUbNmz49ttvf/bZZyNHjkQI9e/fn2Q5OTm5QYMG6axr27ZtwewAjB0zgBnADEgvxHPnzkUIHT16lCb3qaeeQghdu3YNAJKTk1u3bk0nCQw4HI68vLwbN25Y8YUZwAxgBvTDwI0bN/Ly8hwOh3etk16Ip02bhhC6evUq3fC0adPMZnNxcTEtxBUVFUVFRXQGn4G8vDzX5xn4DjOAGcAM6IaBvLw87yonvRBv2rSJfBZx+PDh3Nzcr7/+ulq1ai+++CJpR3JyclhYWHh4OEIoISHh1Vdftdvt3k0EgBs3biCEzp07p58PwkAtLSgoyMjIKCgoCLQi/ZTHkPXjK/GWBpuXz507hxC6ceOGd5WTXogBYM6cOZGRkfSn1cyZM2kjRo0aNXv27LVr16alpfXv3x8hNGTIEDqVHSgrK6O9Tc6I8/Pz7UFz2Wy2zMxMm80WNIjtGHIw+DrYvJyfn48QslqtbHHzDMsixOnp6T179ly6dOnatWtHjRplMpk++ugjz7YBYOzYsQihvXv3eqbOmjWLlnIykJGRkYkvzABmADOgHwYyMjLUEeKvvvoqMjKS/Uxk5MiRUVFRBQUFnmp74sQJhNCcOXM8k/CMGM+IDT9DDLbpod0edN97VJsRd+3atUuXLmxh/e677xBCW7duZUeSYZvNdvPjYvLkyZ5J7Bir1YoQ4pRydjYjhe12e2ZmppAH6IZBjSEbxpVegASblwsKCtSZETdv3rxjx45sT3zzzTcIoU2bNrEjyfCRI0cQQvPmzfNMYsdgIWazYdRwsA1RAMCQjdqZaVyqCXG/fv3Cw8NPnjxJm5KSkmI2my9cuGC1WsvKyuh4p9M5dOhQhFB2djYdyRnAQsxJi8EisSrp0aFOp7OioqJU8FVYWLhx48bCwkLBJXSQsbKyks93qgnxjh07QkJC6tSp8+abby5evLh3794IoTFjxtxcRLx9+/bExMTJkycvXrx44cKFSUlJCKFx48bxYaDjsRDTVBg4gIVYX851Op3Xrl07efJkjj/XsWPHDh48eOzYMX8K6SDvxYsXnU6npwdVE2IA2LdvX+/evRMTE8PCwpo3bz537tyKigoAOHv27ODBgxs1amSxWKKiojp06PDpp59yWu+GBwuxGyGGvMVCrC+3Xrx4MScn5/z584WFhSUlJQInrjab7fLlyzabTWB+7WcrKSkpKCjIycm5ePGipwfVFGJPawKMwUIcIIG6KI6FWBduIo2srKw8fvw4+wVagcY7HI7r16/7fOVXYG3ayUZqseczCizE2vGRGEuwKolhTW9l9Ovl0tLSnJyckpISfyk3qhCXlJTk5OSUlpa6EYKF2I0Qnd3qd4iKJloFyKWlkJYGqamQnEz8TUsDj4EkGo6QgipAFmKWgDykEHvqjs+iRhViPkKwEPvsEprOoN8hKppWpSFnZUF8PCAEZjPzNz4e1q8XDcHfgkpD9tc+/vx8usNfgkrBQsxJkSyvOHO2FEgkfkYcCHt6KauoKmVlgclE/EPI5R8ZmZWlDGmKQpYUEhZiNzr5CMEzYjeidHar3yEqmmjlIJeWEnNhTxUmRdlkIlIVeUahHGTRXuEpyKc7PNmZaDwjZrhghfCMmEWGloL6HaKiWVQOclqayyzYbVJM3qaniwYivKBykIXbJCynXoR4xYoV5JZhO3fuZCNzOp0NGjRACPXt25eMv7mL+vPPP8/Oc/OL+OzZs9u2bRsdHW2xWFq3bj116tQLFy6w89BhPkLwjJimSJcB/Q5R0XQrBzk1lXouzCnB5FPj1FTRQIQXVA6ycJuE5eTTHZ+lmRmxIr+UkkJssVgmTJjAtm379u0IoYiICD4hPnPmTOPGjUNCQp544omPP/546dKlL7zwQs2aNZs1a8auhw7zEYKFmKZIlwH9DlHRdCsHOTnZ94y4WzfRQIQXVA6ycJuE5eTTHZ+lKSFet06ZX0pJIU5NTa1Vqxb5Whlp4dixYzt06NCwYUNOIa6oqLj77rujoqLc5tFWq3XGjBmcGPkIwULMSZduIvU7REVTrBxkPCMW7aSqgny6U5XO+7/D4Shavdqp1C+lpBCvWbPGZDL98MMPpFnl5eXx8fHvvvsunxB//fXXCKG5c+fywvBI4CMEC7EHVbqKUE6VNEOLcpCFPCOeNEkBYpSDLDUYPt3x2Y7DZnPExRFCzPlcSOpfSkkhPnDgQJcuXUaMGEGal5mZSW5DxifEw4cPRwjl5ub6hENn4CMECzFNkS4D+h2ioulWDnJpKVgs3ELAVocnn4R//hENR0hB5SALscafPHy647MOx8qVvpmX7pdSWog//vjj2NhY8lXAwYMHd+/eHQD4hLh9+/ZxcXE+sbAz8BGChZjNkv7C+h2iorlWDvKHH/JqgdtMLTFR1vc7lIMs2is8Bbl1p0MHqF/f+z+nxeJkf9pxhi0W75VAhw48drlH00J85cqV0NDQb7/9trCwMDIyctmyZV6E+I477mjQoIF7XV7vuQkBwELslTbNJ+p3iIqmViHIX33FrCCOjCQU2e3Nuqws4l3n6tUZsX76abh+XTQuLwUVguzFArFJ3LpTvz5DGqfCShVZv75Aw2khBoBevXqlpKSsXLkyPDz8+i2H4hmxQBqpbPjNOv/40mduJVRpyxYIC6PEYsYM4q2N9HRil4lu3Yi/6enMexwXLkCfPoys1KsHVT/1SMiuEpAlNJdVFbcQa3hGDABpaWkRERGdOnV6/PHHSSh8Qjxs2DD8jJjl7aogFuIqJoz8v+yqtG8fREdT2jpmDHBt4+3Cr9MJK1ZAtWqMHI8aBTduuOQJ7EZ2yIGZ56U0txB7KVCVpNYzYgAoKiqKjIxECH3zzTekOXxCTB697PMItypMxP98hOBHE2yW9BfW7xAVzbW8kI8fh5o1KUkdMABunVQgyNTcXOjZk9HiBg1gyxZBBQVkkheyAANEZ+HTHZ8VqrVqgjRs5cqVs2fPpnfv5BNiu91+1113RUdH79mzh42osLAQryPGpzizu4QBwzKqUl4e3HYbJabJyczzB4EsOp2wbBnExjJyPG4cFBYKLO0lm4yQvbQqRZJ4IXY4ijIyvK0jlnT3O/YzYk/cfEIMAKdPn27YsGFoaOjw4cMXL168dOnSSZMm1a5du3nz5p714BkxJydGiNTvEBXNvlyQCwrgzjspDW3XTvyzhb/+gocfZrS4YUP46SfRYMmCckEO0CwBxQMRYuKEDmXfrDtw4AAnJi9CDADXr19//fXX77rrrqioKIvF0qZNm1deeSU/P5+zKj5C8KMJTrp0E6nfISqaYlkgFxdDp06Uet5xB1y6JNo8oqDTCUuWMA+aEYIJE6CoSHSdskAWbY0/Bfl0x2cdLntN8P1S6rMW7WXgIwQLsfZ85Y9F+h2i/qB0ySs9ZLsdevWiVDgxEc6ccWlP9M3Zs9C9OzM1btwYtm8XV5n0kMXZ4X8pPt3xWRMjxD6z6ioDHyFYiHXlRg9j9TtEPaAIjZAYssMBTz5JyWW1avD770LtEJLP4YCPP4aoKEaOJ06E4mIhRdl5JIbMrlrmMJ/u+GwWCzEnRXg/Yk5a1I/U7xAVzZ2UkJ1OmDSJUsmICNixQ7RV3gr++Sd07cpo8R13wK+/esvvkSYlZI/KZY3AQuxGLx8heEbsRpTObvU7REUTLSXkefMofTSbITNTtEm+CzocsGgRkG/oIUS8szd5MthsvgveyiElZIFNSpSNT3d8Vo9nxJwU4RkxJy3qR+p3iIrmTjLIy5Yxs9Tly0Xb40fBU6egSxem0WbNYPduIcUlgyykMUnzYCF2o5OPEDwjdiNKZ7f6HaKiiZYG8rp1zOkbb78t2hi/C1ZWwrvvMpu6mUzw8stQUuK9Hmkge29DnlQ+3fHZGp4Rc1KEZ8SctKgfqd8hKpo7CSD/8gtERFAz08mTfb/ELNpWvoLHj0PHjszUuGVL+O03vrwAIAFkL7XLmYSF2I1dPkLwjNiNKJ3d6neIiiY6UMiHDzP7QvzrX+BwiLYkoIKVlfDOOxAeTsmx2QzTp0NZGWedgULmrFSRSD7d8dk4nhFzUoRnxJy0qB+p3yEqmruAIP/5JyQkUNrXuzfY7aLNkKbgsWNw333M1LhVK+B6uSsgyNIYKrIWLMRuxPERgmfEbkTp7Fa/Q1Q00eIh5+dDkyaU6nXuLGI9r2ibvRWsqIB585hdN0NCYOZMt6mxeMjeGlYijU93fLaNZ8ScFOEZMSct6kfqd4iK5k4k5Bs34O67KRVu1Uruw438Rve//8E99zBT47vuguxsuhKRkOny6gWwELtxz0cInhG7EaWzW/0OUdFEi4FcWgoPPkjJ3O23Q16e6NZlLGi3w5tvQmgoZWdoKMyaBeXl+Mc6GTlXvGosxIpTrkiDYlRJEcPka8RvyBUVkJJCqVutWnDihHy2SVDz778zM3eEoF07+P13vyFLYIc0VfDpjs/alXw0gbxe27dvP3fuHEJowYIFbLMvXbr00ksvtWjRIjIyMioq6p577pkzZw55tBI7m1uYjxA8I3YjSme3+h2ioon2D7LTCaNHUyocHQ3794tuV7mCN2fBs2YxU+OwsMpZs7L++1+76j8t+k8Bn+74rIkW4tJS4mjA1FRITib+pqX5vU20z7bSWVePHj0QQqyI9EuXLnkK8f79+2vVqmWxWMaMGbPk1jV69Ojo6OgePXp4b46PECzE3nnTeqp/qqR1NILs8w/yjBmUCoeFwY8/CmpAI5mys+GuuyjjEbrepIn90CGNmCbcDD7d8VkDKcTr1jni4wkO3A5ulXRTeBdbnn/+eYTcfxJzE+Lr16/Xr18/ISHh+PHj7MKXLl2aM2cOO8YzzEcIFmJPrvQU458q6QkZr61+QH7/fUrITCb4+mveGjWbUFZGrKAICSFROMPDifUVwk9v0gAuPt3xaZrD4Vi9ushkIs7ocDvT2WQi9urIyvJZh5gMQoT4P//5D0Jo9erVIhrgIwQLsQgyNVTED1XSkNUBmSIU8pdfMiP4o48CalLdwvv3O+mjQxAi1h0fO6auRcJb59MdnzXYbI64OIfJ5HRTYfLWZIL4eOmfUQCAECHu0qVLZGRk+a3fUX0CccvARwgWYjeidHYrVJV0BsubuYIg//AD84z19de9VaeHNHth4cmBA53k93OEiPez58+Hykrt286nOz4tX7nSwSnB7Mj0dJ/V+J1BiBDHx8fffffdfld9qwAfIViIxfGplVKCVEkrxkpjh2/Ie/YwG06OH6/CVhLSAGVqISFX7NoFLVow0/xOnbS+AoTn9PgOHaB+fR//LBYnQtzTYVqLLRYflXTowHAoMCREiENCQh544AGBFbplw0LsRohBbn2rkkGAMjB8QD56lPjWSg7WQYN0MW1ksPGEGMglJcRubfRzU4uF2MtNw1NjTt2pX5/5NKFVVY5A/fo8hPJHCxFiPCPm5+9WitVqRQgVFBT4yGegZGaIGgiUdyjeIP/9NzFHIsf0Qw+5vSjsvVotp7pD3r0bmjVjxCwpCU6d0qb9nEKs9xlx586d8TNib/0NC7E3doyS5q5KNK6rV5lv7h06QGEhnaL3AAdkmw1efJGZGkdGEieAqLWTHD+/nELMn51J0fIz4nnz5iGEMjIyGHMFh/gIUfMZ8alTp4YOHVq/fv3IyMgWLVq88cYbNtbhMbt3705KSoqMjExISJg4cWKRgNPIsRAL7g86zsihSgDEYfX0NmbNmsHlyzpG6GE6N2QA4uy7O+5gpsYPPijZEdQeNoiL4NMdn7VpedXEtWvX6t66Tp48yQZy+fJl/a0jzs3NrV69esOGDd9+++3PPvts5MiRCKH+/fuTwA4fPmyxWNq3b79kyZKZM2dGRET06tWLjZkzjIWYkxaDRXKoUnk59OhB6VHdunDunPEh0wiLi2HiREaLo6KIc6M1MzUWLcQOhyMjw9s6Ypne6RDyjBgAfvvttxo1akRGRo4dO/bTW9e4ceNiY2MfffRR2jOcAT5CVJsRz507FyF09OhR2tynnnoKIXTt2jUA6N27d926da1WK5m6bNkyhNCWLVvozJwBLMSctBgs0l2IHQ544glKiapXh//9z2B4BW36s307NGrEyHH37hr5NOLTHZ8+0vKbdaTxFy9enDx5cvPmzS0WS1RUVIcOHebOnUtLFh9APkJUE+Jp06YhhK5evUpbPG3aNLPZXFxcbLVaQ0NDp0yZQieVl5fHxMSMHj2ajuEMYCHmpMVgkS5C7HTCCy9QAmSxwM6dBgNLwnGBzIewqAgmTGC0OCYGPv1U9aV7fLrDB4KOZ+81kZ5O7DLRrRvxNz1dlvc46HblDvARopoQb9q0iXwWcfjw4dzc3K+//rpatWovvvgiAOzatQsh9M0337BJeeCBB+655x52jGcYC7EnJ8aLcVGlOXMo6QkJAZm+rGqAQRfI3u356Se4/XZGjh95BP7+23sJWVP5dMdno7QQ+8yprwx8hKgmxAAwZ86cyMhIegu6mTNnkpyuWbMGIfTrr7+yKR48eHBiYiI7hgyXlZVZq668vDyEUH5+vj1oLpvNlpmZabPZggaxnYZcuXgxrTgVy5cbmAEasiCMBQWVY8bQzDhjYys++8xeXi6orNSZCgsLjx07ZrPZHH5elZWV169fr6ys9LOc1rPbbLZjx44VFha6MZ2fn48Q8vlkw307Ik9BFBGTnp7es2fPpUuXrl27dtSoUSaT6aNbewKkpaUhhPbt28euc8SIEXFxcewYMjxr1ixayslARkZGJr6MzsC+qVPp/WCOjBxpdLh+49s9a1ZJzZq0HF+6557Ny5f7XUvABTZu3Hjw4MHLly9fx9ctBi5fvnzw4MGNGze6UZuRkaGOEH/11VeRkZF5rLMSRo4cGRUVVVBQgGfEbp+WXm79myt5qUg/STabbdebbxJbkd16caPy3//Wj+0iLRXp5atXHSNH0lrsjIsjvjcoOzXGM2K3KbrmZsRdu3bt0qULe4b73XffIYS2bt2KnxGzafEe9uPpofeK9JNq/+23CouF0peRI1X/PUoB5gLy8vffQ716tBxD375w4YICNpNN8D0S9WkAfkbMSZH0jyaaN2/esWNHdmPffPMNQmjTpk03btzgXDUxatQodn7PMP6xzpMTo8WcOuWsXZuSlX799LU5r2hfBCTEAHDtGjz1FKPF1asTB104naLtEV4QC7EbV3yEqPZjXb9+/cLDw9mvpqSkpJjN5gu3Pq579epVt27dwqq3VJcvX05qtBsqt1ssxG6EGO32wgV6tawjKQlY72EaDakrnkCFmKxt/XpITGTkuH9/yM93bUf6O1J3SkpK/K3aqDPikpKSnJyc0tJSN0JUE+IdO3aEhITUqVPnzTffXLx4ce/evRFCY8aMIe3Lzs6OiIig36yzWCw+X1kBACzEbt411O21a9CmDakjNxo2tBvrJWbvnpJGiAHgn3/gyScZLa5RAzIyZJ0a2+32nJwcn4sBPOEbVYgLCwtzcnIqPI5ZUU2Ib74+t2/fvt69eycmJoaFhTVv3nzu3Lls+3bu3NmlSxeLxVK7du3nn3+enh17+oyOwUJMU2G0QEkJPPAAqSDORo02f/GFHk/SFO0UyYSYtGDdOqhTh5Hj1FRZt+Y4c+ZMbm6u088nIUYV4vPnz588edKTDTWFWHS/5CuIhZiPGX3HV1TAY49RwlG7tv3o0czMTCzEAfn06lXmvXCEoFYt+PbbgCrkL2y1WnNycnJzc61Wa0lJSamwy2azXb582WazCcuug1wlJSVXr17Nycm5fv26J1tYiD050VOMxHMlDUJ3OoFegxUTAwcPGh+yhxfkgrxmDSHB9JbsQ4YAa8sBDyvER1it1jNnzuT4cx07duzgwYPHjh3zp5DW8x4/fvzixYue02EAwEIsvntpoaRcQ1QL2Egbpk6llCI8HLZtE7QDjnaMl8gSGb18+TIMHMhocZ06sHatRFa7V2O324VPXAsLCzdu3FhYWCi8iPZzVvKfpYKF2L276OtexiGqBSIWLKA0wmSCNWtIiwwOmYt2eSE7nfD111CjBiPHw4aB2sfcyAuZi2R147AQq8t/oK0bub+uXMlIw5IlNFNGhkyDdA0oATk/H1JSGMITEiAry9UKRe+UgKwoIB+NYSH2QZDGkw3bXzdsgJAQShfefJPtBcNCZoN0DSsE2emE1auZo1cRghEjiJdB1LgUgqwGNM42sRBz0qKbSGP21507gX6J+YUX3Ba6GhOy1x6nKOSLF6FfP2ZqXLcubNzo1TpZEhWFLAsCwZWWlkJa2vW+fdXZ9EewmX5kxMvX/CBLs1n/9z+oXp0Sgiee8Dz1J4iGaJWPlIbsdMKqVRAXx8jxM88A16KrKgOl/19pyNIjEFZjVhb5FeSGyYSFWBhlmsxltP567hzUrUuN/0cfhfJyT9aNBtkToUeMOpDPn4fevRktrl8fNm3yME2uCHUgy4WGp96sLOIcbpMJELLe2sPX5yuI0m/6w2NaQNF4RhwQfaoXvnwZmjWjRv599xEHM3NdQTFEXYGrBtnphM8/h2rVGDkeMwaqTpJ0tVHiO9UgS4yDv7rSUmIufEuFsRDz06STFOP018JC6NCBGvAtWsCVK3weMA5kPoQe8SpDzs2FRx9ltPi222DrVg8bJY5QGbLEaLiqS0tjKMUzYi6G9BRnkP5aVgYPP0z1y/r14a+/vPjAIJC9IPRIUh+y0wlLl0JMDKMdzz4LVZsjetgrQYT6kCUA4bWK1FQwm2k+8aMJr2RpPtEI/bWyEgYNonpkfDwcPeqddSNA9o7QI1UrkP/6Cx56iNYOaNiQfNfRw14JIrQCWQIoHlUUFhJrtNm79eMZsQdJOovQfX91OmH8eGpsR0bCnj0+HaB7yD4RemTQEGSHAz75BKKjGTl+/nm+p/keOPyI0BBkP6zmz+pwQHY2zJsHyckQFsawV7XRB54R83OnhxTd99dZs6hOGRoKP/wghHLdQxYC0jWP5iCfPQvdujFq0qQJ7NjhanKgd5qDLA7QpUvEYShPPumy72iV+DIE4hmxOHq1U0rf/fXjj5m+mJ4ukFV9QxYI0jWbFiE7HPDRRxAVxXhw0iQJz0zRImRXp/DelZfDzz/DtGnQrh1DDlt877gDnnuO2DulenW8aoKXRn0l6Li/fv013Qvh/feF065jyMJBuubULuTTp+kN+wnRadoUdu1ytV3knXYhcwJyOuHUKeKTqV8/l+c2tP7GxED//rB4Mfz5J1PB+vXEEMDriBlGdBvSWX+lef7xR+ZJ2Suv0NFCAnqFLAQbTx5NQ3Y4iM9R+pV0kwn+/W/w/5A6N+iahkzbarXCunXEjxyNG3NPfu+5B155BX75hfPVJKIa/GYdTaauA/ror24U79/PzBpGj3bbSsItr+etLiF7wvAnRgeQT56Ezp0ZMWreHPbu9Qeie17tQnY44MABeOst6NoVQkMZyPTkNyGB2Czpyy+FHkBVWgrp6XivCfceoK977fZXPh5PnICaNanum5ICHqco8pWj4/UHmTZdbEAfkCsrYcECiIignGs2w9Sp4HFcsUAONAf54kVYuRKGDXM504QW37Aw6N4d/vMfOHzYc3cUIZDx7mtCWNJuHs31V+9UnT8Pt99ODdQHHxT3BVZnkL0TIixVT5CPH4f772fmiXfeCfv3C0PpkksTkMvK4KefYMoUaNuWQUSLL0LEG/kvvAAbNgS+gA8LsYv7dXejif4qkLV//oHWrakOfffdcOOGwHJu2fQE2c10sbc6g1xRQcwNw8MpX5vNxHPSsjK/0KsG2emEEydg0SLo08dlTQitv7GxxA76S5bA2bN+IfKeGQuxd360nqpaf/WXGJuNeYbYpAnk5/tbAZ1fN5BpiwMO6BLy0aNw773MRLJNGzh4UDgTSkO+cYM4rG/cOOJ1QVpz6YDJRGCZORN+/RXsduEohOfEQiycKy3mVLq/iuPAbifmF2S3TkhwWcHjf4X6gOw/Li8l9Aq5ogLmzmWWx4SEwGuv8a4fcMWvBOTKSti3D958E5KSmONgaPFFCBIT4emnISNDpsOt2YixELPZ0F9Yif4aICsOB/zrX5QKV6sGhw4FWJ8OIAeI0KO4viH/8Qe0b89MM9u2JX7R8nXJCPnmDxVffAFDh7qcl0rrb3g4sf/U/Pnwxx/+rufxhclbOhZib+xoP03G/ioJeKcTJk+mBmFEBGzfHnitWoccOEKPGnQP2W6HN95gFnuFhhK3Xr/jSwy5tBR+/BFeegnatGE+EmjxRQhatID/+z/4/nsoLvagX4kILMRKsCxfGxL3V8kN/c9/qH5vNsN330lSvdYhSwLStRKDQD582GX5Qfv28L//uQJl7iSA7HRCTg7xskmvXhAZyaG/cXGQmgqffeZ921XGJjlDWIjlZFf+uiXor/IZuXw50/uXLZOqHU1Dlgqkaz3GgVxeTjwmps/nDgsj3ozgWksuHvK1a8Q2DmPGwG23Md2PnvyaTMTqutdeI17F5mrXlXjl7rAQK8e1HC2J769yWMOuc906Zt/refPYKQGGtQs5QGD8xY0G+eBBl0cE997ruQm1f5ArK4kX+WbPJlbmsHZbZ4S4Xj145hn4+msoKOCnWc0ULMRqsh942/7118DbE1jDjh3MG1aTJkn7o4dGIQtkRlQ2A0IuK4MZMxjRDA8nlh6TU9Rbx8s7UlKutmnjSH/pr50AACAASURBVEkhtpHkez0vLw+WL4fBg8mDkBnZJee/ERHQowcsXAhHjkjbA0X50EchLMQ+CNJ4shaH6O+/MyexDx8u7o1PL7RrEbIXc6VIMizkffvgzjsZAe3YkdifLD4eEHLemtiSf4mY9espIktKYPNm4hfgVq2YgvSTB4SICl98kThw2maTgnuF6sBCrBDRMjWjuSF65gyx+pIcGL16CVw06hc5moPsl/WiMhsZcmkpsSUF5/MEWl7JvSKfeYY4w5Te5o1ORYjY2HfQIFi2DHJzRRGsfiEsxOr7IBALtDVEL12CO+6gVLhjR5lWAmkLciDOE1zW+JD37CH2MmZrq8+w2QydOsGsWcTxWlr62U2wV10yYiF2oUN3NxoaojduMEcS3HmnfL+KaAiyUt0lKCCz19h4UeEGDWD0aPj2W/jnH6XoV6IdLMRKsCxfG1oZoqWlzCFmt90m6zdErUCWz6keNQcFZNfj5TlmxyYTPPKI9n928/CeoAgsxIJo0mwmTQzRykoYMIAaOTVrwvHjstKlCciyIvSoPCggJydziK/b1LhbNw9uDBKBhVjfjlRniN5aYES8lZScTPylD/SNjiZ2UZH5UgeyzKC8Vx8UkH3OiM1morMZ9MJCrG/HqjBEq07Zon7pvnX0ITGXCQmBLVsUYFMFyAqg8tpEUEBOS/M9IxZ81LdXOrWYiIVYi14RbpPSQzQriz531n3YmEzESYjyX0pDlh+RzxaCAnJpKbFemP5cd3soYTIRqXxvdvhkUPMZsBBr3kVeDVR0iGpjqCgK2Sv5iiUGC2TW8fIuH/PkOmL6nQ7FeFewISzECpItQ1OKDlFtfHlUFLIMLhNRZRBBrnrwxftmnQj69FBENSF++umnEdd1/vx5AEhOTnZL7Nmzp08+rVYrQqhAq/t6+LRfRAZFh6g2fk5RFLIIl8hQJLgg3zpe3pGScoXcayI93cBPJOjOopoQ79mzJ511paWlRUVFtWrVirQsOTm5QYMGrPT0bdu20UbzBbAQ8zEjTbw2Fhgpr0pui0S87EIjDc8etSgP2cMEpSOCDbJqQuzm2J07dyKE5s6dS8YnJye3bt3aLY/PWyzEPikKKENQzoirvitTi0TITRHYu9AERKmwwsGmSgAQbJC1IsQTJkwwmUznzp0jeyYpxBUVFUVFRcL6KpELC7FwrsTkDL5nxHyLRMhfjxRZJEI4KthUKQgha0KI7XZ7zZo1k5KSaHVITk4OCwsLDw9HCCUkJLz66qt2rydckQWxENMEyhIoLYXoaJefs9lrjJRaYKSYKmljkQjhScUgy9JtRFUabJA1IcQbNmxACH3yySe0y0aNGjV79uy1a9empaX1798fITRkyBA6lR0oKyuzVl15eXkIofz8fHvQXDabLTMz02azKYG4qMhJb3HJlmCEnCaT02Sq+O47BcxQDPIXX1S4ouT4DFqxosJIkBXAIrAJxbws0B65s+Xn5yOErFYrW9w8w8gzSsKYYcOGhYWFeVntMHbsWITQ3r17PRudNWuW2/qKjIyMTHzJwMDRp54ipchBbtp9a+2989bf8ujovTNmyNCmmlV26nTBZHJ60WKTydmp0wU1TcRtG4WBjIwMlYW4qKgoKiqqX79+niJLx5w4cQIhNGfOHDqGDuAZsUIz4r//dsbEkEcn2HfurFixwpGS4njwQUdKSsWKFfbCQrmnDHT9is2VHnzQ4UWFyaQHH3TQhskXUAyyfBD8rTnYIKs/I05PT0cIffXVV7S2egZsNtvNj4vJkyd7JrFj8DNiNhsSh6umwzB+vMQ1+1mdYk8PtbFIhGBHMch+ukLG7MEGWf1nxL169YqJibF5PWDqyJEjCKF5vg4DxkIs18i4eUQuOQOsXh2uXpWrFWH1KjZEhSwS4fqSJgyGP7kUg+yPUfLmDTbIKgvxlStXQkNDR4wYwfaq1WotKyujY5xO59ChQxFC2dnZdCRnAAsxJy2BRjoccN99lBB/+GGgtQVcXrEhWloKUVEcP9Cxn1eEhBCH9ZSXB4zKawWKQfZqhaKJwQZZZSH+6KOPEEKbN29mO3n79u2JiYmTJ09evHjxwoULk5KSEELjxo1j5+EMYyHmpCXQyC++oNSodWstHA6m2BBdt87bXmBsOW7XDn7/PVCavZRXDLIXGxROCjbIKgtxp06d6tSpU1lZyXbz2bNnBw8e3KhRI4vFEhUV1aFDh08//dTpdLLzcIaxEHPSElDkjRuQkEAJsYC3zANqS1hhZYbojh0QEUHhJgPkO3X0m3Vr18LrrxObMJOKHBYGc+aAgMXuwkC65lIGsmubKt8FG2SVhVhab2MhlpZPoraXXqKURjOHIygwRH//HapVo3A/+STYbJCeTh1FkppKhOl9cbOzoU0bKidC0KEDHDkivRMUgCy90YHVGGyQsRAH1l/ULi1vfz1xAkJDCZmJiICzZ9XGSrUvL2SAM2eAfm2lVy/fz3/LymDmTGZqHB4O8+ZJ/AhHbsga8SzbjGCDjIWY7X39hWXsr04n9OpFTfZee0071MgIGeDSJbjjDgp0x45QXCwU9/790KoVMzW+7z7IyRFa1mc+WSH7bF2VDMEGGQuxKt1MskZl7K8bNlC60qCBH4IkGTLeiuSDfOMGtGtHgb7zTvB3X+vSUpg2jdqkjfwWMX8+uP78wQvKe4J8kL23q2JqsEHGQqxiZ5Ogabn6a1kZNG1KaZLXd20kwOBnFTJBLi1lTqO+7TbIzfXTrKrse/dCixbM1LhTJzhxoipN7P8yQRZrjhLlgg0yFmIlepV8bcjVX995h9KSrl1BwHoV+QB61iwH5MpKGDCAQlyzJhw/7tmsHzElJfDyy8zSN4sF3nsvoKmxHJD9wKNG1mCDjIVYjV4mXZuy9NeLF+HWthLE1+zDh6UzVpqaJIfsdMLYsZQKR0fDvn3S2LlrFzRrxkyNk5Lg1CmRNUsOWaQdChYLNshYiBXsXDI0JUt/pbeVePZZGUwOtErJIc+cScllWBhs2RKoeezyNhu8+CIzNY6MhEWLwOFgZxEUlhyyoFZVzRRskLEQq9rdAm5c+v7622+ULGlgWwlOeqSF/MEHFFyTCTIyOBsMNHLHDmjShJkaP/ggsULOr0tayH41rVbmYIOMhVitniZNuxL3V/a2EosWSWOi1LVICPnLLxl9lHUXjeJieOEFpq3oaPj4Yz+mxhJCltobctUXbJCxEMvVk5SpV+L+umIFpRatW8v1um7AvEgFedMm6m0VhODVVwM2S0AFP/8MjRoxcty9O1Sd0eijsFSQfTSjpeRgg4yFWEu9z39bpOyvViuzrcRPP/lvi0IlJIH822/Mzmrjxim3MKSoCCZMYLQ4JgY+/dR365JAVsg9EjUTbJCxEEvUcVSqRsr++vLLlEIMGKASGkHNBg45Jwdq1KCwpqYGtLBMkMUembZuhdtvZ+S4Rw/4+2+PTKyIwCGzKtNHMNggYyHWR7/ks1Ky/nryJISFEdqgpW0lOFEHCDk3Fxo0oESwe3dm+x7OtuSLtFqZNXMIQWwsLF/OOzUOELJ8KOSrOdggYyGWry8pUbNk/bVPH0qclHlcGgA3gUAuKICWLSmg7duDrzNzA7BSWNHNm5lPBYSIvT3y8jhKBgKZozo9RAUbZCzEeuiV/DZK0183bqTESWPbSnDiFg25qAg6dqSANm1K7O+jhevGDRg1irIKIYiLgxUr3KfGoiFrAaA4G4INMhZicf1EK6Uk6K/l5cwbYDKtpJWULXGQy8uhZ09K7xITtbOpJ0XN999DvXqMHPftCxcuMKyJg8yU12Eo2CBjIdZhJ2WZLEF/nT+fEoAHHnCfibEa0k5QBGSHA4YNo1DGxcEff2gHDWPJtWtAv9KIEFSvTuxAT+7zIQIyU68+Q8EGGQuxPvtpldWB9ld6WwmTCQ4dqqpV0//7C9nphIkTKRW2WODXXzWNbv16Zlt6hODxxyE/H/yFrGmEwowLNshYiIX1C63mCrS/Pv00JVECzmbVCAf+Qn7rLQpiSAisX68REN7M+OcfePJJymaEiJV2aWkV69Zl2mU6Ec+bLaql+etl1QyVqGEsxBIRqVI1AfVXeluJuDi4ckUlBH436xfkzz5jFO2LL/xuS8UC330HdeowxnfqdOH8ebuK9ijctF9eVtg2OZrDQiwHq8rVKb6/Ohxw//3UQNfqthKcPAqHvHYtc17GO+9wVqbpyKtXYehQRotr1XJ++62mDZbQOOFelrBRFavCQqwi+RI0Lb6/0ttKtGql2W0lOAkSCPnnnyE8nFKxl17Sxc+QnHBhzRqoVcuJEIVlyBC4epU7p5FiBXrZMJCxEOvblSL7K3tbia1b9UWBEMiHDhHvqpHi9dRTfuxzpk0qzp+3d+58gdbiOnXgu++0aalkVgnxsmSNaaAiLMQacEIAJojsr1OmUCqVkhJA4+oU9Qn59Gnm6Wrfvvqa7nNTarfb163LTE+voLfIQIhYkOfv8abctWsy1qeXNWm1eKOwEIvnTgslxfRX9rYS/m5RrgHM3iFfvAiNG1OfMl26gM2mAYsDNoGGnJ9PLGijp8YJCZCVFXDtmqyAhqxJ66Q3Cgux9JwqWaOY/kpvKzFzppKmStWWF8jXr0PbtpROtWkD165J1abK9bAhO53w5ZcQH8/I8YgRxkFKE82GTEcaOICFWN/O9bu/fv89NYLr14fiYj2C54NcUgJdu1LgGjaE8+f1CI7bZk/IFy5Av36MFterBxs3cpfVaawnZJ0CEWg2FmKBRGk0m3/9tbwcmjenhq8etpXgJJ0TckUF9O9PIatVC06e5Cyq10hOyE4nrFpFbBJEP6l45hm4fl2vGN3s5oTslsdIt1iI9e1N//rrggXUqNXJthKcvvGE7HTCM89QyGJi4MABznI6jvSETIM5fx5692a0uEED2LyZTtRxwAtkHaPiNx0LMT83ekjxo7/m51NLuvSzrQSnBzwhT5tGKVFYGOhtMR4nRPdIT8jsHE4nfP45VKvGyPGYMepvtcy2UETYO2QRFWq8CBZijTvIh3l+9NeRI6mROnasj0q1newG+d13KVgmE3zzjbZNF2udG2TOav7+G3r0YLT4ttv0/ZkkBDInDzqNxEKsU8dRZgvtr/v2UWNUV9tKcPqGDTktjZGeTz7hzG6ESDZkL3icTvjsM4iJYTgZPx4KC72U0G6SQMjaBeCnZViI/SRMY9kF9VeHgzma4oMPNIbAb3NoyBs3QkgIJTqzZ/tdj44K0JCF2HzuHDz0EKPFjRrBzz8LKaetPH5B1pbpoqzBQiyKNs0UEtRfV66kxqXetpXgpJmEvGNHRWQkBeu553S8lQQnRrdIQV5mlXE44JNPIDqakePnn4eiIlYOzQf9hax5QD4MxELsgyCNJ/vur4WFzE7jP/6ocThCzLPb7YsWbatendoHZ8gQqKwUUk7HeXx7mQvcmTOQnMxocZMmsGMHVz5NxomDrEkogozCQiyIJs1m8t1fp06lxqIOt5XgpP30aXuNGiXk4tlHHoGyMs5chor07WUeuA4HfPgh0F8dTCaYNEkfr32LhszDhNajsRBr3UPe7fPRX0+dgrAwQogjIkCH20p4Yr9yBZo1o+bC996r11+iPHF5j/HhZe+FAU6fhgceYKbGTZvCrl2+yqidHiBktc33u30sxH5TpqkCPvpr377U+JsxQ1NmizOmsBDuvZcC1KyZUz+HioiDy5Ty4WUmI2+oshLefx8sFoo9kwleeglKSnjzq54QOGTVIfhlABZiv+jSXGZv/fWHH6hhV6+ezn6p4aK5rAwefpgCVKNGyenT+NwgLpq8xp08CZ07UxwiBC1awN69Xguol+itY6tnlXwtYyGWj1slaubtr+xtJVavVsIUOduorITBgykFiY93fvjhNnySpji+KythwQLiSRX5kN1shqlTobRUXGUyluLt2DK2qWbVqgnx008/jbiu81W7Zu3evTspKSkyMjIhIWHixIlFAlbfWK1WhFCBgbfL9ugqvP2V3lYiKUnva7ucTnjuOUo4IiNhx46KzEx8pLFHV/AnIieHObAQIbjzTti/35/y8ufl7djyN61KC6oJ8Z49e9JZV1paWlRUVKtWrUgWDh8+bLFY2rdvv2TJkpkzZ0ZERPTq1csnQViIKYrY20pkZ/vkTeMZ3niDUuGQEGKzx2AbogCyQK6ogP/8hznWz2yGV17R0BKUYPOyakLsNvh37tyJEJo7dy4Z37t377p161qtVvJ22bJlCKEtW7a4lXK7xUJMEULvRabzbSUAiBcT6G0eV60i8AXbEJUV8tGj0KEDw3CbNnDwoNuoUuc22LysFSGeMGGCyWQ6d+4cAFit1tDQ0ClTptBdoLy8PCYmZvTo0XQMZwALMUGLgbaV+PZbMJkomXj3XcrnwTZEZRXiW5XDW29RqxwRIt4af+01KC/nHGHKRQablzUhxHa7vWbNmklJSaSfd+3ahRD6xnUrrQceeOCee+7x3hGwEBPnFXfsSEnX++97p0vjqVu3MuowbRpjbLANUbmFmGT2jz+gfXtmaty2LRw+zHCufCjYvKwJId6wYQNC6JOq7bPWrFmDEPr111/Z7h88eHBiYiI7hgyXlZVZq668vDyEUH5+vj1oLpvNlpmZabPZSMQVn39ODiZny5b2qkg9krF3b0VMDPXixsiRjvJyBoQbZCbBuCFlINts9tdfrwwNpWgPDXW+/nqlWp1IGcja6TL5+fkIIfphrKfQkTHIM8Fms23dunX27NljxoxJSUkZPnz4pEmTli9ffvr0ac/M3mOGDRsWFhZGr3ZIS0tDCO3bt49dasSIEXFxcewYMjxr1iy3xRcZGRmZQXlt/Oqr0qpDJXfPnq1fDhYv3lqtWhn5aPj++y+uXZulXyy6s/y9935u1OgG/Vy+SZPrH3ywTXcodGTwt9+unzTp4L33nvBbiPfs2fPUU09FRUWZzWaTx2U2m1u3bv3RRx/5VHdSSYuKiqKiovr160eLLJ4RC/+gZk8cKl9+mZwOOx57THgNWst57py9YUNqUvbAAw6r1d1ANmT3NIPeKwy5uNg+Y0ZlSAjlhbAw5xtvVJaUKEquwpAVxcZqbO3aCnL7KpPphh9CfPTo0d69e5vN5rCwsB49erz++uvr16/ft2/f6dOn//e///3yyy+fffbZM88807BhQ5PJVKtWrUWLFlVUVNAKyxlIT09HCH311Vd0Kn5GTFPhM8A8SqO3lQgPhz//9FlQmxn++Qdat6aeVLZty30UJgNZmxhksEoVyAcPMr5AiHi5/OhRGbDxVKkKZB5b5IrOyiJ+i676OZp4B8Ln5JV6NBESEtKkSZOPPvro6tWr3q375ZdfnnzyydDQ0Lfeest7zl69esXExNhsNjrbjRs3OFdNjBo1is7DGQjqH+vo09VfeYWTHO1H2mzQpQulwo0bw8WL3CYHwxB1Q64W5LIyYnGx2Uw5JTycWHrsa2blZrvIW7UgizTX/2KlpRAfT6swIOSPEC9fvtznDJdt0qlTp372ejzAlStXQkNDR4wYwS4FAL169apbt25h1TEvy5cvRwht2rTJLZvbbdAKccWGDdRY0e22EnY70DsU1alDbBjGdxl+iHoCVxfyvn3Eq3f0U+OOHeH4cU8bJY5RF7LEYLiqY5/ydYtbf4SYq8KA4j766COE0GaPE8Czs7MjIiLoN+ssFsujjz7qs6XgFOKsNWuczZtTA+XLL32ypMEMDgc89RSFIDYWvL8MaPgh6ukg1SGXlhJbUtBT44gIWLhQ3v34VYfs6QVpY1JTGT7VF+JOnTrVqVOnkuuIhZ07d3bp0sVisdSuXfv555+nZ8de6AhOIT5CH8/cpYtOt5Wo+pWReOPW6zcowvmGH6KePVwjkPfsAfoTHyHiOdLJk57GShOjEcjSgHGtxemEY8fgjjuYLxmSCbHNZlu6dOm///3vl1566fPPPy9RaaPTYBTivDx7VBThUpNJK2+nunY7n3fz51M90myGtWt9ZsdC7Jsi+XKUlMC//8082bRYiG2OHQ7pGzSeEF+7Bt9+C6NHw223uUkweRvwo4n9+/cnJCSYzeY6derExcWZTKZ69eodVuO9nCAUYgc9HR4zRvrRIH+NX3zBdMrPPhPUnvGGqE/YWoO8cyc0bco4rmtXb8/0faLjzKA1yJxG+oysrIQ9e2DWLOjUye1BBMNe1cP3gIW4Q4cOjzzyCL195a5duxITEzt37uzTSskzBJ0Q79/vvLX4xRkXB5cvS86n3BVmZRE7G5Ad0dfiGsYWYwxRBo+AkAYh22zE8XdVIgJRUcTheBJOjTUIWYCjqCy5ubBsGQwaBNWrMxTRXEVEwKOPEutPqlVjvlv4t2oCANgLfslmQ0NDt23bxrbyxRdftFgs7BhlwsElxA4H8Tl7y72VCxYow7CErfz6K3Nyz//9nx8Pt3U9RMURqFnIv/wCTZowWpOcLNnJiJqFzOfBkhLYtAlefNFlhQktvghBq1YweTJs3sycULV+PSHEYtYRA0B4ePhjjz1Gz38BoFGjRpMnT6btKy4uvvvuu5s2bUrHKBYILiGuWv9S2KCBnbUKWzG2A2nojz8gLo4awMOG+TeT0t0QDYQosqyWIRcVwfPPM1ocHU3sXBr41FjLkGmHOp1w5AixgKRHD+bQE7b4xscTJ8ssXw65uXQhl0BWFrGa+NZPPP68WQcAR48e7dSpU7Vq1T7++GOyyhUrVphMppYtWw4dOjQlJaVmzZomkyk9Pd2lQUVugkiICwuhbl2y+++eNUtf5wadPQuJidTQ7dnT7x0XdTFEpe3v2of888/QqBEjxw8/DH/9FRAHWoZcUABffw3PPAP16zOQaf01m4mDAWfPJs4D5FoO5k5LaSmkp0Pfvtf9eLOOrMPpdC5atCg2NrZLly45OTkAsHv37qFDh7a/dQ0fPvy3335zb02R+yAS4mnTyC7g6NdPX+cGXbrE/M7TsSMUF/vdM7Q8RP0GI6yALiAXFsL48YwwxcTA0qV+PHFyY0JrkCsqYNcuYqfm+++nHyYwYBEi1kKMGQNr1sC1a25QBN2K3wbz77//7tOnT0RExCzNzMiCRYhPn6aOuAkPtx8/riMhtlqZTW9btgRxhwtqbYgKGmeBZdIR5B9/dFme9eijvN/KvVOiEch//QWffQapqcyTNHrmixBERkKvXsQCvpwc8R85JA/ihZgsv3r16jp16tx55527d+/2zqwCqcEixI89Rn0Wv/KKRvqrEOeWlkL37pThDRrA338LKcSRR0eQOawXFaUvyFYrMTekBataNfj8c791SkXIxcXw/ffwf/8HLVowKGg4CEGbNvDSS/Djj1Kefh2oEANAQUHBiBEjQkJCnnvuOSHvv4nqioIKBYUQb9pE9Y5b20qo2F8FuaQqU2UlDBxIGV6jBvFmkehLL5BFA/QsqEfImza5PELt3Ruqzmf3xMcRozBkpxP++APmz4eHH2YOVGWLb40aMHQofPGFfyg4gPFEiRHi7OzsCRMm9O3bd8KECYcOHSJr3rJlS5MmTRo0aJCVlcXTluzRxhfi8nLmY/rWz6EK91dxLnQ64dlnKRWOiiJ+xAjk0gXkQAB6ltUp5OvXgX7fCCHi2/2qVUKnxspAvnoVMjLg6afpX75dpsAhIZCUBG++SRwDKeRnN0/HCY/xW4jXr18fGhoaHx/fsWPHGjVqhIaGbty4kWyvpKRk8uTJoaGhgwcPvqzG+wXGF+J336V6SufOZI9Wpr8K70+cOV97jbI6NJRYaxngpQvIAWJ0K65ryBs3usjcY4/xbnDKRi0fZLsdfv0VZs4kdliuWsPror8NG8K4ccTb9tevsy2SN+y3ELdr165t27bkI4iioqK2bdu2b9+ebeP+/fvbtm0bHx/PjlQmbHAhvnSJeBeH3FbiwAGSUvn6q1Qu+/BDppevXi1BrdqHLAFI1yr0DvnaNRgxgukG8fHw5Zc+psaSQz57FpYsgZQUagyxHzsgRLwZ2KcPLFoEJ074MMzVM5Ld+S3ENzdxZx90P2XKlNjYWDdzKisr582b5xapwK3BhXj0aKovjx5Nkyl5f6VrliSQkcEMv0WLJKkSb/ojDY3K15KZCQkJTH9ISYFLl3itkKRjFxXBhg3wwgvQrBnTLluC27aFKVPgp5+grIzXEmUS/Bbidu3atW/fntxfraSkpF27dnfffbcytvpsxchCfOAA9T2qWjX2thKS9FefxIrLsHkzhIZSA2DmTHF1cJTSMmQOc6WIMgzkggIYPpzRxJo1iTcjnE4OjkRDdjrh8GFiJ4fu3SEsjGmL1t9atWDYMFi5UtATEg7L5InyW4izsrLMZnPNmjU7d+5cq1Yts9mcmZkpj21+12pYIXY6iZd1yK707rtsXkT3V3YlcoR/+w2ioymTx47lHmzi2tUsZHFwhJQyGOS1a6F2bUYiBw2CK1fcafAX8uXLxOOOESNcJt20+IaGQteu8NZbcOCABK9fu9sqxb3fQgwA+/fvHzduXJ8+fZ599lm3Q++lMEl8HYYV4vR0qtu2bOn2RrC//VU8uf6UzMmBmjUpk1NTJf7FWZuQ/aHH77zGg3zlCgwZwmhx7drw3/9StJSWQloapKQ42rS5mpLiSEvjXa5bXg6//EKcqnfPPUxVtPgiBI0bEy/7rVsHVqvfnCtcQIwQK2yi8OaMKcSsbSWIvZtcLw0O0dxc5t2qbt14R5ErDj/uNAjZD+tFZTUq5G++YT6wESIW6qanU5vgmM1OhID8Gx8P69czxP35JyxeDP37Q0wMh/5GR0O/fvDRR3DqlJTfw5jm5QlhIZaHVwlrnT6d6m6PPeZZq9aGaEEBsw1gu3ayzES0BtnTKZLHGBjypUswYICLnnouKSP3ipwxA557zvOEIapsu3YwbRpxzpbqP7uJ875/Quy5GbH3VnNzc3ft2uU9j4SpBpwRs7aV4DwFqdtNkAAAIABJREFUQVNDtLiY3iGZGDBefhMPxOmaghwIEOFljQ3Z6STeqiB3g2Q/WPAZrl0bnnySeI6Rny+cS43m9E+IQ0JC7rrrrpUrVxYVFXkHdODAgXHjxkVERMyZM8d7TglTDSjE/ftTn/jTp3MSpZ0harcTG6CQgycxUbINwj1Raweyp20yxQQDZPZ6cy8SHBoKyckwbx5x1Hfgux7L5C8R1fonxIcOHerWrZvJZIqOjh44cOD8+fO3bdt29OjR8+fP//nnn/v3709PT3/hhRdatGhhNpurV6/+zjvvlCn4VcFoQrx5MyVsdetCYSGndzUyRB0OYm5Cjp9q1eD33zmNlSZSI5ClASOslmCA7HG8PNWd2KLcuTPfOBDGo4Zz+SfEJJCb4jto0KDw8HCTyWT2uG7uCn/HHXfMnz//mriNOQMgy1BCbLdDy5ZUZ0xL42NFC0PU6WSOL4uIgB07+IyVJl4LkKVBIriWYICcnMyhvGwVRgi6dRNMmd4yihFiEuP169ezsrKmTp06fPjwnj17pqSkjB079sMPP/zjjz/UIsFQQvzee1TH7NzZy3cwVYYoucAoNZX4kpiaShwGQw4YsxkUWFOuCmS1ujTZbjBA9jkjNpuJzmbUS7wQa5AR4wjx5cue20pwEq78EKVP2TKbCf1l/8b9+eecNkocqTxkiQH4X10wQK46gtHbvFiN89f895aoEliIRdEmdyF6W4lRo7w3pfAQzcoilJctvvSXR5MJlNkAVWHI3vlXJjUYIJeWEgsnOLsW+XkfHy/9mnRl3CeklUCFOD8/f/HixRMnThxVJRlXrlzZt28fuRmFEAskzGOQGfHBg1R/rFbN5xIwJYeoRoaKkpAl7JyBVBUkkF2Pl2emxuRnP/udjkDI1GbZgIR48eLFFovFdOsym80kwqNHj5rN5qVLlyoP2AhC7HRCly5UH3TdVoKTTyWHqEa+PCoJmZNz5SODBzLrwRfvm3XK869Ai+KFeP369SaT6b777tuwYcNzzz1HCzEAtGvXrk+fPgpY79aEEYT4yy8pFW7Rwm1bCTew5K2SQ1QjP6coCZmTc+Ujgwoyebz8rb0mrqSkONLTjfxEgu5L4oW4a9euDRs2LL51Hvrs2bPZQjxixIhGjRrRbSgW0L0QFxVBvXqUEAs7ykLJIaqRBUZKQlas63pvCEP2zo8BUsULcWxs7HPPPUdS4CbE06dPj4yMVJ4d3QvxK69QKtyvn0D2lByieEYs0CmSZ1PSy5IbL67CYIMsXoijo6MnTZpEsuwmxKNGjapevbo4BwRSSt9C/Oef1Pmx4eGc20pwMqNkf8XPiDldoECkkl5WAI6QJoINsnghvufWRXLKFuKKioqmTZt27dpVCN3S5tG3ED/+ODUdnjZNOC1K9tfSUoiNpWykV63RAZOJWH5UWircdpE5lYQs0kSpi2HIUjOqufrEC/G7775rMplmz54NALQQV1ZWTpo0yWw2L1u2THmsOhbiLVsohePfVoKTTyWHqMMBTZtyC7GSC4yUhMzJufKRGLLynCvconghttvt3bp1M5vNzZo1u+uuu8xm8+DBgxs3bmwymXr27OnkPIhKZnB6FWK7ndnEl39bCU7ylByin39OqTD5Th37r9vW3ZymShWpJGSpbA6wHgw5QAK1X1y8EANAeXn5jBkzatSoQS4lNplMcXFx06dPLy8vVwW5XoX4/fcphevUycu2EpyUKjZEb9yAOnUoMzdtIk5SSE0lNmFJTSXCCjyRoOErBpluUfUAhqy6C+Q2ICAhJo1zOp3Hjx/fvXv3kSNHKisr5bbYS/26FOLLlyEujlK4/fu9oONMUmyIvvQSZePAgZyGKBepGGTlIPlqCUP2xZDu08ULcePGjenlaxqhQZdCPGYMpXDPPCOCRmWG6PHjEBpKmGmxwLlzIsyUsogykKW0OOC6MOSAKdR6BeKFODY2djrPsRFqgdafEPuzrQQnqwoMUaeTOXrjtdc4rVA0UgHIiuIR0BiGLIAkfWcRL8RJSUmpGtsfVGdC7HRCUhI1HV64UFw/UmCIbthA2XjbbWCziTNTylIKQJbSXCnqwpClYFHTdYgX4vXr14eFhf3888/awaczIV69mlI4YdtKcPIs9xAtK2OWrH39NacJSkfKDVlpPALaw5AFkKTvLOKFeNWqVX379g0NDR00aNA777yzcuXKVa6X8sToSYjZ20r88INoruQeov/5D/Vh8eCDoMaKRA5i5IbM0aTaURiy2h6QvX3xQkweWEcvXGOfX0eGhdienZ392GOPxcfHR0ZGtm7detGiRWSp5ORk5Hr17NnTZ4V6EuIZMyiFE7ytBCd8WYfoxYsQE0OYaTbD4cOc7asQKStkFfAIaBJDFkCSvrOIF+KVvi6fxGzZsiU8PLxjx47vvffe0qVLp02bNmXKFLJUcnJygwYN0lnXtm3bfFaoGyGmt5UIC4NTp3zi8pJB1iH61FPUh8X48V5MUDpJVshKgxHWHoYsjCcd5xIvxAGCtlqtCQkJAwYMcDgcnlUlJye3bt3aM957jG6EmN5WYupU74h8pso3RPfupVS4enW4etWnIcplkA+ychj8bAlD9pMw/WVXTYiXLFmCEMrJyQGA4uJiNzkmhbiioqKoqEg4qfoQ4h9/pBQuMREKC4Wj48wp0xB1OOC++ygzP/yQs2XVImWCrBoeAQ1jyAJI0neWQIX43Llzb7311qBBgx599NFBgwa99dZb54St+B84cGC1atW2bt3avHlzhFB0dPT48eNLq16VTU5ODgsLCw8PRwglJCS8+uqrdrvdJ9M6EGL2thKrVvlE5DODTEP0iy8oFW7dGioqfFqhaAaZICuKwc/GMGQ/CdNf9oCE+IMPPggPDzebzeyf7MLDwz/44AOfTLRt2zbq1jVx4sS1a9dOnDgRIfTEE0+QBUeNGjV79uy1a9empaX179//5tx5yJAhnHWWlZVZq668vDyEUH5+vl2rV+W775IK57j/fntZWeBm2my2zMxMm80WeFV0DVev2hMSiBPDEILNmyvoeI0E5ICsEWh8ZmDIfMwYJj4/Px8hZLVaOVWOjkR0iA5s2LDBZDLVrl173rx5e/fu/euvv3777be33367du3aZrN548aNdE7OQJMmTRBC41k/Az377LMIoVNcP16NHTsWIbR3717PqmbNmuW6vAJlZGRkavL6YdUqe1QUKcS/zJ+vSRsJox5//DSpwp06XdCskdgwzICRGMjIyBApxN27d69Zs2ZeXp6bOObm5tasWfOhhx5yi3e7bd26NUJox44ddPyOHTsQQqu4vrCfOHECITRnzhw6Mx3Q0YzYMXo0NR1++mmpPsklnysdOWIPDSWmwxERzpMnpTJTynokhyylcfLUhSHLw6uGahU/I46Li+Pb9GfChAlxcXG0VnIGevTocfNZxIkTJ+jU48ePI4Q4H2vYbLabHxeTJ0+mM3MGNP2MODsbTCZCiGNjIT+f034RkZI/Pezdm/ywgFdfFWGOEkUkh6yE0YG1gSEHxp8OSot/RhwZGUkv+3UDOmXKFJ+Hh06fPh0hxF4dvG3bNoTQ6tWr3WoDgCNHjiCE5s2b55nEjtGuELO3lViwgG1zgGFph+jGjZQKN2gAt47nDtA6WYpLC1kWE6WuFEOWmlHN1SdeiO++++6WLVtWePymXlFRceedd959993esR46dOjmE+Hhw4fT2YYNGxYaGnrhwgWr1VpWVkbH39zveOjQoQih7OxsOpIzoF0hpreVaN4cJN01X8Ihyt5W4quvOAnWRKSEkDWBR4ARGLIAkvSdRbwQk2fWPfTQQwcPHqQ5OHDgwCOPPGI2m9977z06ki9wc2kEuRxi8eLFgwcPRgi98sorALB9+/bExMTJkycvXrx44cKFSUlJCKFx48bx1UPHa1SIi4uhfn1qqhnAthI0THZAwiH6zjuUjV27amVbCTZSOiwhZLpOjQcwZI07KHDzxAtxZWXl448/Tm4rERMT06RJk5iYGHIpW0pKitsLGpyG2u322bNnN2zYMCwsrGnTpu+//z6Z7ezZs4MHD27UqJHFYomKiurQocOnn34q5BA8jQrxzJmUwvXty8lDIJFSDVFtbivByYxUkDkr12YkhqxNv0holXghJo1YtWrVQw89VKNGjdDQ0Bo1ajz88MNpfh5/KSEYLQrxmTMQEUEIccDbSnASJdUQffpp6sPi2Wc529FQpFSQNQTJlykYsi+GdJ8eqBBrigAtCnFKCqVwVfsZScuYJEP0t98oG7W2rQQnV5JA5qxZs5EYsmZdI5VhWIilYpKrnq1bKYVLTARf78xwlfcdF/gQZW8rUbULqe92VcwROGQVjRfXNIYsjjcdlRIvxBs2bBgwYMCFCxfc0F64cGHAgAE/SP2rlFsrnLfamhHb7dCqFSXEK1dyGhx4ZOBDdMUKysbWrUHAfh6BmxxoDYFDDtQCxctjyIpTrnSD4oW4V69ebdu25bS3Xbt2fWX4YYqzLXaktoR40SJK4e6/H7i2+mRbLjoc4BC1WiEhgTLzp59EW6FowQAhK2qrRI1hyBIRqd1qxAtx3bp1x44dy4ns2WefrV+/PmeSrJEaEuIrVyAujlK4336TD3WAQ/TllykbBwyQz0aJaw4QssTWKFIdhqwIzWo2Il6IIyIiZs6cyWn7zJkzIyIiOJNkjdSQEI8bRyncyJGyQg5kiJ48SSzluLWtBJw9K6uZUlYeCGQp7VCwLgxZQbLVaUq8EDdo0GDQoEGcVg8aNKhu3bqcSbJGakWIDx2SY1sJTuoCGaJ9+lAfFprdVkJyyJwVaj8yEC9rHx2nhcEGWbwQDx8+PCIi4o8//nDj8ffffw8PD6d3FnZLlfVWE0LM3lZi/nxZ8QKA6P6qi20lONkTDZmzNl1EYsi6cFMgRooX4j/++CMiIiI2NvaNN97Ys2fP33//vWfPntmzZ8fGxlosFk+BDsRKgWU1IcQZGdQ8U+ptJThJEDdEy8uhWTPKzIwMzoq1GykOsnbxCLAMQxZAkr6ziBdiAPjvf/8bHR1tZl0mkyk2NnbdunWqsKK+ELO3lfj+ewVIEDdE58+nVPiBBzS9rQQngeIgc1all0gMWS+eEm1nQEIMAJcvX37nnXcGDRrUo0ePwYMHL1iw4MqVK6KtCbCgOkJcWgppaZCaCsnJ0LIlpXB9+gSIRWBxEUOU3lbCZIJDhwS2o6FsIiBryHpRpmDIomjTU6FAhZiN1el0njp1Kjc3lx2pZFgFIc7Kgvh4QnzNZkqCyVOGlixRBriIIUpvKyFgPztlQPjXigjI/jWgvdwYsvZ8IrFF4oV47dq1I0aMuHbtGmnRX3/91aZNG/IpxdChQysrKyW2VEB1SgtxVhaxOoI8d4PUX/qvyQRZWQJMDjSLv0OU3lYiLg7U++oSEGp/IQfUmDYKY8ja8IOMVogX4kceeeSuu+6iTUtJSTGZTA8//HC7du3MZvPSpUvpJMUCigpxaSkxF+ZUYYSI+Ph4KC2VG7tfQ9ThgPvvpybuuthWgpM9vyBz1qC7SAxZdy7z12DxQlyvXr3Ro0eT7RUWFoaFhZFL1ux2e+vWrTt16uSvKYHnV1SI09JcnkXQc2F2ID09cFDea/BriK5cSZncqpU+tpXgxO4XZM4adBeJIevOZf4aLF6ILRYL/WbdDz/8YDKZsqq+jL/44ou1a9f215TA8ysqxKmp7s+F2RJMPjVOTQ0clPcahA9R9rYSW7d6r1XTqcIhaxqGP8ZhyP6wpcu84oW4Tp0648ePJ0FPmTIlJCSEfl48ZcqUqKgo5flQVIiTk33PiLt1k5sE4UN0yhTK3pQUuY2St37hkOW1Q8HaMWQFyVanKfFC/OCDD9avX7+goOD69ev169e///77aQRDhgxp3LgxfatYQFEh1tWMmL2txJkzijlEloawKslCq8YqDTYvixfi//73vyaTyWKxxMbGms3mFStW0K68/fbbU9SYdykqxLp6Rty3LzUd5tmmiXadDgLBNkQDeZFdB+7kMTHYvCxeiAHgk08+6XDrWrBgAc3nL7/8Ur169U8//ZSOUSygqBCXlkJMDO/TCS2tmvj+e8rM+vWhuFgxb8jVULANUSzEcvUkLdUbkBBrCQhhi6JCfPEixMZyCzG5uHj9egX48alK5eXQvDll5urVClgkexM+IctugeINYMiKU650g1iIRTHucMCjj1LyRu7pS75ZR/6NjwdFVFjIXGnBAsrMpCT9bSvB6RusSpy0GCwy2LyMhVhUB164kJK3unUhLw/S04m9Jrp1I/6mpyvwHgdttPf+mp9Pzdp1uq0EDZMd8A6ZndMwYQzZMK7kA4KFmI8Z/vjsbOpkC5MJ1D7ozfsQHTmS+rzgOdOKH6OGU7xD1rDh4k3DkMVzp5OSWIj9dFRxMfPMdepUPwtLn93LEN23j1Jh/W4rwcmXF8ic+Q0QiSEbwIneIWAh9s6PR+qYMZS8degA5eUeyUpH8A1RhwM6dqQs/eADpa2StT0+yLI2qm7lGLK6/CvQOhZif0hes4bStuhoOHnSn5Jy5eUbosbYVoKTNT7InJmNEYkhG8OPXlBgIfZCjmtSbi5Ur04J8RdfuKapdsc5RAsLITGRsvTHH1WzTaaGOSHL1JZGqsWQNeII+czAQiyM28pKePBBStuGDNHOQjDOITp1KmWpGq83CuMzgFyckAOoTwdFMWQdOCkwE7EQC+Pvrbcobbv9dqjaC19YSXlzeQ7RU6eoNR0REaD3bSU4ufOEzJnNSJEYspG8yYkFCzEnLa6Re/dCSAghxGYz/Pqra5rKd55DlN5WYsYMlW2TqXlPyDI1pJ1qMWTt+EImS7AQ+yLWaoXGjanp8Ouv+8qtdLrbEP3hB8rSevWgqEhpY5Rpzw2yMo2q2wqGrC7/CrSOhdgXyf/6F6VtnTtDRYWv3Eqns4eo8baV4GSTDZkzg/EiMWTj+dQNERZiN0Jcb9PTKRWuVg3OnnVN08Qde4jS710bZlsJTorZkDkzGC8SQzaeT90QYSF2I4R1e+YMs79aRgYrQUNBeoiyt5XIztaQhZKbQkOWvGbNVogha9Y1UhmGhZiHSbudeTXtqad4MqkfTQ/RZ56h5u5jxqhvlawW0JBlbUVTlWPImnKHHMZgIeZh9dVXKWFr0gQKC3kyqR9NDtE9eyrIk0vj4uDyZfWtktUCrEqy0quRyoPNy1iIuTreL7+AyUQIcWgo7NvHlUMrcXa7/bvvMjt2dJBC/P77WjFMPjuCbYgK2XVaPrbVqjnYvIyF2KOnXbsGDRpQ0+F58zyStRVht9snTcomVfjOO8Fu15Z5clgTbEMUC7EcvUhrdWIhdvWI0wmDBlEq3K0bVFa6Jmvu7p9/7PHxpaQQb9miOfPkMAgLsRysaq3OYPOyykKcnZ392GOPxcfHR0ZGtm7detGiRXSH2L17d1JSUmRkZEJCwsSJE4sEvJ8gwZl1y5dTKhwfTxy9ofnr5ZcrSRV+/HHN2yqRgcE2RPGMWKKOo+lq1BTiLVu2hIeHd+zY8b333lu6dOm0adOmTJlCsnX48GGLxdK+ffslS5bMnDkzIiKiV69ePokMVIhPnICoKEqI16712ZzqGU6dgvBwJ0LE3z//VN0chQzAQqwQ0ao2E2xeVk2IrVZrQkLCgAEDHA6Hp8d79+5dt25dq9VKJi1btgwhtMXXd++AhLisDNq3p1R43DhPkzQY068fZe/UqVp/hCIhe8E2RPGMWMLOo9mqVBPiJUuWIIRycnIAoLi4mC3HVqs1NDSUnh0DQHl5eUxMzOjRo73zGJAQv/wypWotW0JxsfeGtJC6aRNlb40aJdeuBcGPdFWkYyGuYsLI/webl1UT4oEDB1arVm3r1q3NmzdHCEVHR48fP760tBQAdu3ahRD65ptv2B3tgQceuOeee9gxnmHxQvzjj5SqhYfD4cOeNWstprwcWrSgTJ48+aA9GFZLVPkg2IYonhFXed7I/6smxG3bto26dU2cOHHt2rUTJ05ECD3xxBMAsGbNGoTQr64bTg4ePDgxMdHTFWVlZdaqKy8vDyGUn59v9+u6cMFZdaBF5cKFfhVVK/M771C/0XXqVLluXabNZlPLEuXbtdlsmZkYsvLEK9pisHk5Pz8fIUQ/jPUUOjIG8SWIjm/SpAlCaPz48XQNzz77LELo1KlTaWlpCKF9rm9SjBgxIi4ujs5MB2bNmoVcr4yMjEzh17p1+ffeS84tL91zT+Z33wkvqlbOlSs3RUXZEQKTyblw4Xa1zMDtYgYwA1IxkJGRoY4Qt27dGiG0Y8cOWlJ37NiBEFq1apWSM+LKRYtIFXbWqWPPy1P0Q19sYyNHUu/RjRrlCLaJg91ux5DFdhw9lQs2L6s2I+7Ro8fNZxEnTpyghfj48eMIoQ8++EC5Z8RHjkBEBPWo9fvvaUu0HNi/n3r7mtxWAj8w1bKzpLINe1kqJjVbj2rPiKdPn44Q2rZtG03Ntm3bEEKrV6++ceMG56qJUaNG0Zk5A/79WFdSAm3aUCo8aRJnhVqLdDigUyfK5PfeI6zDQ1RrPpLDHuxlOVjVVJ2qCfGhQ4duPhEePnw4TcewYcNCQ0MvXLgAAL169apbt25h1bZny5cvRwht2rSJzswZ8E+IX3iBkrS2beHWag3OOjUVmZZGmdyyJbWtBB6imnKQTMZgL8tErHaqVU2IAWDUqFE3lxIPGTJk8eLFgwcPRgi98sorJDXZ2dkRERH0m3UWi+XRRx/1yZofQrxhAyVpFgscO+azZi1kKCyEunUpq+lXW/AQ1YJr5LYBe1luhlWvX00httvts2fPbtiwYVhYWNOmTd933cNx586dXbp0sVgstWvXfv755+nZsRfKhArxxYtQqxYlaUuWeKlQU0nTp1Mm9+/P2IWHKMOFcUPYy8b1LYVMTSGWnFxBQuxwQI8elKQ9/jg4nZKbIUeFp09DeDhhdXg4sLeVwENUDra1Vif2stY8Irk9wSfE9BGb9erB1auSEypThY89Rn12TJ/u0gIeoi50GPQGe9mgjmVgBZkQZ2dDWBghaSYT/PQTQ4O2Q5s3Uypcrx647QaKh6i2XSeNddjL0vCo4VqCSYiLi6F5c0rSpk3TsFNcTGNvK5Ge7pKEl6+502HQeyzEBnUsAyuYhHjMGEqF770XyssZDrQdevddyurOnTkeaOMhqm3vSWMd9rI0PGq4lqAR4jVrKD2LjoZTpzTsERfTLl2CatUIw00mOHDAJYm8wUOUgxTDRWEvG86l7oCCQ4hzc6F6dUqIV6xw50DD96NHU1bzbcWMh6iGvSeZadjLklGp1YqCQIgrK+HBByk9GzqU4+u9Vn1z4AC1rUS1anD5MreVeIhy82KsWOxlY/mTA40Rhfj8eUhLg9RUSE4m/g4cSKnw7bfD9escHGgyyumEzp0pw999l9dEPER5qTFQAvaygZzJDcWAQnwjLo4QMLOZ+Us+ZN25k5sDTcamp1Mq3LKlt18W8RDVpPckNgp7WWJCtVedEYWYPF/e829Wlvb457aIva3E5s3cechYPES9sWOUNOxlo3iSF4cBhdjqKcHkjDg+Xi+7rNHbSjz2GK/nyAQ8RH0QZIhk7GVDuNEbiKARYlKdPd+I8EaOOmnsbSVOn/ZhAx6iPggyRDL2siHc6A1EMAmx2Uz8dqf5q39/6umw27YSnIbjIcpJi8EisZcN5lBPOMEkxAhBt26eFGgqht5Wom5dqNoW35uBeIh6Y8coadjLRvEkL45gEmLNz4jtdmjZkpoOp6Xx+oydgIcomw2jhrGXjepZGlcwCTFCoO1nxO+9R6lwp07gcNA+8hbAQ9QbO0ZJw142iid5cQSNEJtMoO1VE5cvM9tK7N/P6zC3BDxE3Qgx5C32siHdygZlQCG+4bl8zWQiXhZev56NXGthem84X2dVuxiOh6gLHQa9wV42qGMZWEYUYs836+LjNa7CBw8y20pcusS4x2cID1GfFBkgA/ayAZzoHYIBhbjg/HniWXBqKrFGIjWVCJeWemdB3VSnE7p0oZ4Oe9lWgtNIPEQ5aTFYJPaywRzqCceIQlxQ4IlTyzFffkmpcIsW3raV4ISAhygnLQaLxF42mEM94WAh9uRE0ZiiIqhXjxLiTZv8bhoPUb8p02EB7GUdOs0/k7EQ+8eX5LlfeYVS4X79xNSNh6gY1vRWBntZbx7z214sxH5TJmGBP/+E8HBCiMPDwee2Epzt4iHKSYvBIrGXDeZQTzhYiD05US7m8cep6bDoQ6XxEFXOW+q1hL2sHvcKtYyFWCGiPZvZsoVSYYHbSnjWAAB4iHLSYrBI7GWDOdQTDhZiT06UiLHb4c47KSFetUp8i3iIiudOPyWxl/XjK5GWYiEWSVyAxd5/n1Jh4dtKcLaIhygnLQaLxF42mEM94WAh9uRE9pjLl4F8+w8hEL6tBKdZeIhy0mKwSOxlgznUEw4WYk9OZI+ht5V45plA28JDNFAG9VAee1kPXgrIRizEAdEnojC9rURsLOTni6jApQgeoi50GPQGe9mgjmVgYSFmuFAg5HRCUhL1dHjhQgkaxENUAhI1XwX2suZdFKiBWIgDZdCv8qtXUyosYlsJzobwEOWkxWCR2MsGc6gnHCzEnpzIFcPeVuKHH6RpBQ9RaXjUdi3Yy9r2jwTWYSGWgESBVcyYQU2HxW0rwdkKHqKctBgsEnvZYA71hIOF2JMTWWLOnIGICEKIw8Lg1CnJmsBDVDIqNVwR9rKGnSONaViIpeHRZy0pKdR0eOpUn3n9yICHqB9k6TYr9rJuXSfUcCzEQpkKJN+PP1IqnJgIhYWB1OReFg9Rd0aMeI+9bESvumDCQuxChxw3Um0rwWkbHqKctBgsEnvZYA71hIOF2JMTiWM++ICaDnfsCA6HxJXjISoxoZqsDntZk26R0igsxFKy6VnXlSvMthL79nmmBxqDh2g1nagnAAAZD0lEQVSgDOqhPPayHrwUkI2qCfH27duRx7V3714STXJysltiz549fQK1Wq0IoQItHR46diw1HR450qf5YjLgISqGNb2VwV7Wm8f8tldlIf6///u/dNZ19epVEkFycnKDBg1YKenbtm3zCU5rQpydDSYTIcSSbCvBCR8PUU5aDBaJvWwwh3rCUVmI16xZ42kTACQnJ7du3ZozyUukpoSYva3EggVerA4oCQ/RgOjTSWHsZZ04SryZ6gtxYWFhRUWFGwJSiCsqKoqKitySvNxqSogzMqiHEs2bQ3m5F6sDSsJDNCD6dFIYe1knjhJvpspCHBMTgxAKCQnp1q3bgQMHaBzJyclhYWHh4eEIoYSEhFdffdVut9OpfAHtCHFxMdSvTwnx99/z2StBPB6iEpCo+SqwlzXvokANVE2Id+/ePXDgwM8//zwrK+vtt9+uWbOmxWI5dOgQCWjUqFGzZ89eu3ZtWlpa//79EUJDhgzhxFpWVmatuvLy8hBC+fn5drWv6dMrESKEuE8fh6y22Gy2zMxMm80mayuaqhxD1pQ7ZDIm2Lycn5+PELJarZwqR0ciOiRT4PTp05GRkXxLI8aOHYsQotdUsG2YNWuW2/qKjIyMTFWvTz/9MSyMEOLQUMcnn2xV1RbcOGYAM6ADBjIyMjQhxADwxBNPhIeHV1ZWsnWWDJ84ceLmE4w5c+Z4JmlwRty/v4OcDv/735UyzRfoaoNt4mC32zFk2vsGDgSbl7UyIwaAKVOm8H0m2Gy2m0mTJ0/2FGJ2jBaeEW/dSj0aTkwEX98z2LaLDOOnhyKJ01Ux7GVduUuMsao9I/Y0duDAgRaLxcH1FvCRI0cQQvPmzfMsxY5RXYjtdmjVihLilSvZpskVxkNULma1VC/2spa8IYstqgnxlStX2IB+//33sLCw/v37A4DVai0rK6NTnU7n0KFDEULZ2dl0JGdAFSEuLYW0NEhNheRkaNuWUuH775d+WwlOyHiIctJisEjsZYM51BOOakLcvXv3Pn36vPXWW0uXLn3xxRejoqLi4uJycnJuvs2xffv2xMTEyZMnL168eOHChUlJSQihcePGeVrvFqO8EGdlQXw8Ib5mMyXB5NNh+d7gcIOMh6gbIYa8xV42pFvZoFQT4kWLFt1///01atQIDQ2tW7fuv/71r9OnT5OWnT17dvDgwY0aNbJYLFFRUR06dPj000+dTifbbs6wwkKclUW8wUy+xEzqL/3XZIKsLE4bJY7EQ1RiQjVZHfayJt0ipVGqCbGUIKrqUlKIS0uJuTCnCiNExMfHQ2lplWWy/Y+HqGzUaqhi7GUNOUMeU7AQi+Q1Lc3lWQQ9F2YH0tNFVi68GB6iwrn6//bOByiqao/jP2EXdhcDFkVgHHQCI5Onla9w0BSyBGmCMRnUEv8MOU8cB3WKFRtTS/yTU1lqPkXTRnla5CP/TI0ZOY6YiZnaKGLiKNOuDT0hBJRZkIXzpLveLrvLctk/d+8597fT0Lnnnj+/3+d7zpfr5e4uvS1RZXq1Exk5GrFIULbNpk61vS8stGDurvHUqba9PH6MW9TjSGU4IKosQ1E8GxIasYs8k5J6vyJOTnZxcPHdcIuKZ0VvS1SZXu1ERo5GLBKUbTO8IrYlItUxupJUpH05j9JURiN2cbXhPWIXwbndTWlblBCCKbu9auQ+ABqxiwqZzV3fu2FzX5g/xKcmXMQqohu6kghI1DdRmspoxC4u2eZmEhHh2Ii5h4uPHHFx5D51U9p6xcvDPi0PehsrbWGjEbu4VmfPtrqwv39XgXtnHfdTryfSuDC6kovi0dZNaa6kwIWNRuzKpty3z+rCjzxCqqpIcXHXZ00kJ3f9LC6W4n0cfNC4RXkUDBdQZYbF5VJDI+6zxDdvkuBgqxH/5z997u7ZDrhFPctTnqOhyvLUxYNRoRH3DWZ7O0lMtLpwdnbf+nqjNW5Rb1CV25iostwU8Xg8aMR9Q7pypdWFH31Uis997zU43KK9ImKgAarMgIjOU0Ajds6n29nycusf5fz9yZkz3U756gC3qK/ISzkvqiwlbZ/MhUYsFntDA4mOtl4Or1kjtpe32+EW9TZhOYyPKstBBa/GgEYsCm9nJ5k2zerCEyYQR19wKmocjzfCLepxpDIcEFWWoSieDQmNWBTP3butLhwaSoxGUV2kaYRbVBrOvp0FVfYtfwlmRyPuHfK1ayQoyGrEBw703l7KFrhFpaTtq7lQZV+Rl2xeNOJeULe1kX/+0+rC8+b10lj607hFpWcu/YyosvTMJZ4RjbgX4EuXWl04Lo7cu9dLY+lP4xaVnrn0M6LK0jOXeEY0YmfAy8qsLqxWk/PnnbX01Tncor4iL+W8qLKUtH0yFxpxj9jr6khUlNWIP/ywx2a+PYFb1Lf8pZkdVZaGsw9nQSN2DL+zk2RkWF04JYV0dDhu5vNa3KI+l0CCAFBlCSD7dgo0Ysf8//1vqwuHh5PaWsdt5FCLW1QOKng7BlTZ24R9Pj4asQMJKiuJRmM14q+/dtBAPlW4ReWjhfciQZW9x1YmI6MR2wphNpORI60unJdne1Zux7hF5aaIN+JBlb1BVVZjohHbyrFokdWF//EPST/i3TYOcce4RcVxorsVqky3fiKiRyPuBunrr60urNGQy5e7nZLnAW5Reeri2ahQZc/ylOFoaMR/i1JbS8LDrUa8devf9XIu4RaVszqeig1V9hRJ2Y6DRmyVpqODpKRYXTg9nXR2ylayboHhFu2Gg9EDVJlRYf9OC43YymLjRqsLR0WRurq/Acm8hFtU5gJ5JDxU2SMY5TwIGnGXOhcuELXaasRlZXLWyzY23KK2RFg8RpVZVLVbTmjEXR/lM3y41YUNhm505H+AW1T+GrkfIarsPkOZj4BGTP71L6sLjx5N2tpkrpdteLhFbYmweIwqs6hqt5yUbsSlpVYX1unItWvd0FBxgFuUCpncDBJVdhOg/Lsr2ohNJqLXW4141y75i+UgQtyiDqAwV4UqMyepbULKNWKLhSQnW104K4ua59VsBMQtagOEyUNUmUlZhUkp14jXrbO6cHQ0aWgQMqGpjFuUJrVcjRVVdpUcNf0UasQVFcTfv8uI/fxIeTk1atkHilvUngl7Nagye5raZKREI25uJjEx1svhFStsgFB2iFuUMsFcChdVdgkbTZ2UaMSzZ1tdODGRtLfTpJZ9rLhF7ZmwV4Mqs6epTUY+M+ITJ06A3evMmTN8fKdPnx43bpxWq42IiMjLy7t79y5/qqdCU1MTANTX1/fUgBCyb5/VhR95hNy86aQhHadwi9Khk3tRosru8aOgt4+NeNGiRcWCV93DT3m4ePGiRqN5+umnt23btnz58sDAwMmTJ/eKs1cjvnmTBAdbjXjfvl7Ho6ABblEKRHI7RFTZbYRyH8DHRnzgwAGHhNLS0qKiopqamrizO3fuBIBjx445bMxXOjfi9naSmGh14Vmz+E50F3CL0q2fuOhRZXGcKG7leyNubm5u736ntqmpSaVSGQSf+9DW1ta/f//XX3/dOWnnRrxypdWFY2LIQ4d3Ph4FZ3GLUiCS2yGiym4jlPsAPjbi/v37A4C/v39ycvK5c+c4Wj/88AMAlJSUCOE999xzo0ePFtbYl50YcXl515NqAF1PrVVU2HeltQa3KK3K9SVuVLkvtKhs6zMjPn36dGZm5q5duw4fPrx+/foBAwZoNJoLFy4QQg4cOAAA5d2f783KyoqMjLRn3Nra2vTwZTKZAKC2tvZ+99f//nc/OroToMuIV6+2dD9J91FLS8uhQ4daWlroTqMv0WPKfaFFa1ulqVxbWwsA/M1Ye6PjaqCnE56qv379ularTU1NJYTs3bsXAM6ePSscfNasWSEhIcIarrxq1Sqbhy/2799/SPA6ePDQuHG3OBeOj68rLRWcwyISQAJIQAYE9u/fLwsjJoTMmDEjICDAYrG4eUVcU1O7e3f7lCkdEyZ0TJnSkZNj4VxYr++8cYPWC4Se4lbahcP9+/cx5Z4WA0v1SlNZLlfEhBCDwcD9TnDzHnFISCP33mX+J2fE//2v/fU09TV495B6CUUkgCqLgER3E5/dI7bHlpmZqdFoOjo6GhsbHT41kZOTY99LWMP9sQ6gy4jt/zt8WNiWkTJuUUaEdJoGquwUDwsnfWbEt2/fFvL75Zdf1Gp1RkYGVzl58uSoqKjm5mbu8NNPPwWAo0ePCrvYlx8acZO9C/fr1/XRw2azfSe6a3CL0q2fuOhRZXGcKG7lMyN+/vnnX3rppTVr1uzYsWPJkiU6nS4kJKSqqopjef78+cDAQP6ddRqNJiUlpVfMToyYs+bi4l7HoKwBblHKBHMpXFTZJWw0dfKZEW/atCkhISEsLEylUkVFRWVnZ1+/fl1I7tSpU2PHjtVoNOHh4QsXLuSvjoVtbMrOjdjPj0ydatOD+kPcotRLKCIBVFkEJLqb+MyIvYHNuREDdH0lB2Mv3KKMCeowHVTZIRaWKhVkxHhFzMbCRVdiQ0fnWShNZQUZMQDBe8TOVz8VZ5W2RQkhmDIVK9OdIJVixPjUhDurRFZ90ZVkJYeXglGaykwase1zxP36kX79yJEjXlozvhxWaesVLw99udoknFtpC5tBI7Z/Z51ez6YLoytJ6Ay+nEpprqTAhc2gEd+6VV9c3PWkWnJy18/iYgbfx8G7Am5RHgXDBVSZYXG51Bg0YuffWceYorhFGRPUYTqoskMsLFWiEdOtJm5RuvUTFz2qLI4Txa3QiCkWT4G30jBluter6OiV9rsHjVj00pBlQ6WtVzRiWS5DzweltIWNRuz5NSTliEpbr2jEUq4uH86ltIWNRuzDxeaBqZW2XtGIPbBoaBhCaQsbjZiGVdlzjEpbr2jEPa8Fps4obWGjEdO9fJW2XtGI6V6voqNX2sJGIxa9NGTZUGnrFY1YlsvQ80EpbWGjEXt+DUk5otLWKxqxlKvLh3MpbWGjEftwsXlgaqWtVzRiDywaGoZQ2sJmyogbGxsBoKampkkxr/r6+v3799fX1ysm4yZMWQlaK03lmpoaAGhsbHT+WxKcn5bJ2Rs3bgC+kAASQAJ0Erhx44ZzL6XDiO/cuQMARqNRCZcMXI4mkwkATCYTpswwAVSZYXG51IxGIwDcuXOHBSPmvjy0qanJeTIsncWUWVKzp1xQ5Z7IMFMvUmI6rohFJsOMeIQQTJklNXvKBVXuiQwz9SIlRiOWqeIi9ZNp9C6FhSm7hI2yTkpTWWS+dBhxa2vrqlWrHvykbNG5ES6m7AY8arqiytRI5WqgIiWmw4hdhYD9kAASQAIUEEAjpkAkDBEJIAG2CaARs60vZocEkAAFBNCIKRAJQ0QCSIBtAnI34tbW1qVLl0ZFRWk0moSEhO+++45tPX766aeFCxeOGDFCp9NFR0dnZWVdu3aN7ZSF2a1ZswYA4uPjhZWsls+fP5+enq7X67VabXx8/KZNm1jNlBBSXV09ffr0wYMHa7Xaxx9//N13321paWEs37t3765cuTI1NVWv1wPAZ599ZpNgVVVVampqUFCQXq/Pzs6+ffs230DuRjxjxgyVSpWfn19UVJSYmKhSqU6dOsVHz14hMzMzMjIyLy9v586dhYWFERERQUFBly9fZi9T+4xMJpNOpwsKClKCER87diwgIGDMmDEbN27csWNHQUGBwWCwZ8JGjdFoDA0NHTp06Pr164uKiubOnQsAGRkZbGTHZ8F9rMSQIUOSk5PtjdhkMg0cODA2NnbTpk1r167V6/VPPvlkW1sb113WRnz27FkAeP/997lYzWZzbGxsYmIinzl7hdOnT/PacNcRgYGBM2fOZC9T+4ymT58+ceLEpKQk5o24qakpIiLilVde6ejosOfAXs3atWsBoLKykk9t9uzZANDQ0MDXMFBobW2tra0lhJw7d87eiBcsWKDVan/77Tcu07KyMgAoKiriDmVtxAaDwd/fX/jO5nXr1nEfOsGAbCJTGP3XS2RjepudPHnS39//0qVLSjDibdu2AUBVVRUh5N69e8zbcUFBAQDU1dXx67OgoMDPz+/evXt8DUsFh0Y8aNCgrKwsYZpxcXEvvPACVyNrI37xxRefeOIJYejff/89ABw5ckRYyXC5s7Nz8ODBKSkpDOdICLFYLKNGjZo/fz4hRAlGnJmZGRwcXFZWFhcX9+DffEFBQbm5uWazmVWVjx49yt2LuHjxotFo/OKLL4KDg5csWcJqvvZGfOvWLQDYsGGDMOXs7OywsDCuRtZGHB8fP3HiRGHoV65cAYDt27cLKxkuFxcXA8CuXbsYzpEQ8sknn4SEhHB/u1CCEY8aNUr31ysvL6+0tDQvLw8AZsyYwbDKhYWFWq2W/wzL5cuXM5ysvRFzNXv37hVmbTAYAIB7w7CsjTgmJiYtLU0YOvfBxB999JGwktXy1atXg4ODExMTLRYLqzkSQurr68PCwj744AMuRyUYcUxMDADk5ubyss6fPx8Aqqur+RrGCsXFxampqTt27CgtLc3JyenXr9+WLVsYy5FPx96Iy8vLAaCkpIRvQwhZsWIF/wmZsjZiJV8R19bWxsTEREdH//7770Lx2Cvn5uYOGzaM/xOlEow4Pj4eAE6ePMmrefLkSQDYs2cPX8NS4fPPP9dqtSaTiU9q7ty5Op2uvr6er2GpYG/EdF8RK/YecWNj41NPPRUWFnblyhWWFqh9LtXV1X5+fps3b655+BozZkxcXFxNTc2ff/5p356NmkmTJj24F/Hrr7/y6Vy9ehUAPv74Y76GpcL48ePHjh0rzOirr74CgLKyMmElM2V7I6b7HnF+fr7NUxPcczBGo5EZzewTMZvN48eP1+l0P/74o/1ZxmpOnDjB3ze0KSxevJixZPl0li1bBgDHjx/na44fPw4A+/bt42tYKsTFxY0ZM0aYUUlJCQAcPXpUWMlM2d6ICSHh4eH2T03wfwOT9a2JiooK4XPEra2tw4YNs1GUGfG4RCwWS0ZGhkql+uabbxhLzWE6dXV1B7u/4uPjhwwZcvDgwUuXLjnswkDlhQsXHtwRfu211/hcXn31VZVKxeptqJdffjkgIED4HtEpU6b4+fmxmq9DI87NzdVqtfxFJPcA2LZt27g1IGsjJoRkZWWpVCqDwVBUVDR27FiVSiW8s8avY2YKixcvBoD09PTi7i9mEuw1ESXcIyaE5OTkPHiUeNq0aVu3bs3KygKAt956q1c4lDbgHhIfNGjQ6tWrt27dmpaWBgDz5s2jNB0nYW/ZsqWwsHDBggUAMHXq1MK/XtxXOBuNxgEDBsTGxm7evHndunV6vX7kyJHcIxOEELkbsdlszs/Pj4yMDAwMfPbZZ7/99lsnFBg4lZSUZPMvdO6QgdREpqAQI75///4777wzdOhQtVo9bNgw5h8EOnv2bFpaWmRkpFqtjouLW7t2bXt7u8glQVGzoUOH2u/fmpoaLoXKysqUlBSdThcaGjpz5sw//viDT03uRswHigUkgASQAKsE0IhZVRbzQgJIgBoCaMTUSIWBIgEkwCoBNGJWlcW8kAASoIYAGjE1UmGgSAAJsEoAjZhVZTEvJIAEqCGARkyNVBgoEkACrBJAI2ZVWcwLCSABagigEVMjFQaKBJAAqwTQiFlVFvNCAkiAGgJoxNRIhYEiASTAKgE0YlaVxbyQABKghgAaMTVSYaDeINDY2Jifnx8bG6tWq4ODgydOnKiEj4H2Bkkc0x0CaMTu0MO+dBNobGzkvrUoOTnZYDBMnz7d398/JCSkubmZ7sQwetoIoBHTphjG6zkCb7zxBgC89957/JC5ubkAgBfFPBAsSEMAjVgazjiL7AhYLJbQ0NBHH320s7OTD27RokU23ybHn8ICEvAeATRi77HFkWVN4OeffwaAvLw8Psr29vbo6OioqCihNfNnsYAEvEcAjdh7bHFkWRMoKioCgL1793JRms3mOXPmAMCGDRtkHTcGxyIBNGIWVcWcRBDgbgdXVlZ++eWXc+bMiYyMBIDs7OyOjg4RvbEJEvAkATRiT9LEsSgikJCQoNPpLBZLQkIC9z1jarX67bffZvK71CjSRZmhohErU3elZ22xWLRabWJiIiGkvb29trb28OHDzzzzDAC8+eabSqeD+UtOAI1YcuQ4oQwIXL58GQAWLlwojKWhoUGtVj/22GPCSiwjAQkIoBFLABmnkB2BPXv2AMDu3buFkbW3t2s0mtGjRwsrsYwEJCCARiwBZJxCdgQWL14MABcvXhRGduzYMbw1IQSCZckIoBFLhhonkhGBCRMmAMCyZcv4mBoaGkaMGBEQEHD9+nW+EgtIQBoCaMTScMZZZESgs7MzODiYe1IiKSmpoKAgJydnwIABfn5+O3fulFGgGIpiCKARK0ZqTPQhgerqagDIyMhIT08PCQlRqVSRkZGZmZn4ERMPCeH/pSaARiw1cZzP5wRKSkoAYPv27T6PBANAAhwBNGJcCYojUFBQAAAVFRWKyxwTlisBNGK5KoNxeY3ApEmT/Pz8WlpavDYDDowE+kYAjbhvvLA1AwQGDhw4fPhwBhLBFJghgEbMjJSYCBJAArQS+D8nGH+D5CS3bgAAAABJRU5ErkJggg==;" vertex="1" parent="1">
          <mxGeometry x="370" y="120" width="281.19" height="280" as="geometry" />
        </mxCell>
        <mxCell id="qU0uXyh9bXfhi3hnWExh-6" value="" style="shape=image;verticalLabelPosition=bottom;labelBackgroundColor=default;verticalAlign=top;aspect=fixed;imageAspect=0;image=data:image/png,iVBORw0KGgoAAAANSUhEUgAAAdoAAAHZCAIAAACuEm1WAAAgAElEQVR4AexdCXwTxf6fpFd6UcqN3Id4lENABTkscpZDH6KVwwfyADnlKfoQFZ+ACD6VU0XkULHVKiLaFhR4/lG55RahBUFBKVAKfUBa0rRpu7+/IcvuNtlsNnvObiYfPmUy5+/7/c18M5nszCAgL8IAYYAwQBjAgAGEgQ3EBMIAYYAwQBgAIsekExAGCAOEASwYIHKMhRuIEYQBwgBhgMgx6QOEAcIAYQALBgwjx5WVlXl5edeuXbOTF2GAMEAYMA4D165dy8vLq6ysDCj5asnxgQMH+vXrFx8fHxcX16dPn8OHD3uZsmvXrq5du0ZHR9etW3fq1KnFxcVeGbze5uXlIfIiDBAGCAPGZCAvL89L03zfqiLHBw8etNlst95664IFC958882mTZtWq1btxIkTTPOHDx+22Wzt27dfvnz5zJkzo6KiUlJSmFTewLVr1xBCZ86cMc6HolxLCwsLMzIyCgsL5VZknPIEsnF8Jd3SUPPymTNnEELXrl3jVTZupCpyPGDAgMTExMLCQk9LFy5ciIuLGzJkCNNw//7969evb7fbPTGrVq1CCG3ZsoXJ4Buw2+0IIaZO3wzmi3G5XJmZmS6Xy3zQ/CEikP0xY6b4UPNyYWEhQoiROwFXqiLH8fHxqamp3FYHDhwYGRnpWZGw2+3h4eHTp09nMpSVlcXFxY0dO5aJ8Q0QOfblxHwxoTZQAYBANl839kKksxxHRkaOGjWKa1NqaipCaM+ePQCwc+dOhNDatWu5Gbp169ahQwdujFeYyLEXIaZ8S7TJlG71AhVqXtZZjtu0adOqVauKigqPG8rKyho3bowQ+vLLLwFg3bp1CKHt27dznZSamlqvXj1uDACUlpYyC1Sen/Ly8/NdIfNyOByZmZkOhyNkELsI5FDwdah5OT8/X8/FiuXLl//1s9sTTzyRk5Nz9OjRoUOHRkREIITS09MBIC0tDSG0d+9erviOHDkyISGBG/NXeNasWV4/omZkZGSSF2GAMEAYMA4DGRkZesrxXytiL730kkeCEUJ33333zJkzEUJff/21qrNjp9NZXFxcZJbXlStXNm7ceOXKFZGAiouLnU6noadXoTZvcrnIFwJDd1hRxus8O/ZMcq9cubJjx45ffvkFAF588UWEUE5OjkprxxRFXbhw4fjx47kmeuXk5Bw4cCAnJ0c8puPHj1+4cIGiKK/vGUZ5G2qriuSnPKP0TDl26rx27Gv6Pffc07BhQ8++lGvXrvE+WTFmzBjfgkyM8E95V69ezc3NvXz5cklJidMsL4fDUVBQ4HA4RAIqKSm5fPlybm7u1atXGd6MFSBybCx/SbM21LyMlxx//vnnCKEFCxYwzktJSalfv35RUZEnZvXq1QihTZs2MRl8AwJyTFHUr7/+eu7cOd9Sho6prKy8evWqmL2VXJjnzp379ddfDTpBDrWBSmbH3K5r1rDOcrxt27ZevXq98cYbq1evHjduXFhYWEpKSnl5OUP3wYMHo6KimF15Nputb9++TCpvQECOy8vLc3NzGXHnLW7ESGlyXFRUlJuby2XbQNiJHBvIWZJNDTUv6yzHv/32W9++fWvVqhUVFXX77be//vrrZWVlXs7bsWNHly5dbDZb7dq1p0yZElBMBeTY6XTm5uaWlJR4NWH0t9LkuKSkJDc31+l0GhF+qA1UMjs2Yi8N1mad5ThYc8XkDyjHBhUgAezS5Njz4WRQNogcC/QHMyQ5nZCWVjl48OXWrSsHD4a0NDDmvCEoXxA5DoouTDMTOcbUMYqaFUKfQFlZkJgICFFWK/PXHZOdrSij2FVG5Bg7l0gwiMixBNIMVyRU5DgrCywW9z+EqvzzRGZlGc5x4g0mciyeK+1yfvTRR55Nhjt27OC2SlFUw4YNEUIDBw70xCOEpkyZwpXjv9ZqZs+e3bZt29jYWJvNlpSU9Pzzz58/f55bjydMFit8OcE5JiTk2Ol0z4J9tdgjzRaLO9W8qxZEjoMZgDfWs2DIEEhOdv9VbT3LI8c2m23SpElc+3744QeEUFRUlD85/v3335s1axYWFjZs2LB333135cqVTz31VM2aNW+99VZuPZ4wkWNfTnCOCQk5TkurMiP2miB73t44QQFnT0m2jcixaOpurmfBjfUs+q8661keOR4yZEitWrW4D6I9+eSTHTt2bNKkCa8cl5WVtWvXLiYmxmtObbfbX3rpJV+cRI59OcE5JiTkeMgQemTxCjFC7lTOeeg4+0uCbUSOxZGm7XqWR47XrVtnsVi+/fZbj4llZWWJiYkLFy70J8ee80fmzZsnDhIQORZJFCbZQkKOu3ULPDvu0QMTjyhuBpFjEZRqvp7lkeP9+/d36dJl5MiRHhMzMzOtVuv58+f9yfHw4cMRQmfPnhUByZ2FyLFIojDJZnI5rqyENWvAZgsgx2R2fKM7qnIbiBodXfnnjjVfz2Lk+N13342Pj/fsW0lNTX3ggQcAwJ8ct2/f3vfoUQGGiRwLkINhkpnleOdOuPvuAELMLF+QtWMAk8pxx47QoEGAfwE/sRFyf6oHrKdjR5GDnJHjS5cuhYeHf/HFF0VFRdHR0atWrRKQ4xYtWjRs2FBkE2R2LJ4oTHKaU47//BOGDasixBER5MmKgF3OpHLcoEGVrsB8AqsRaNAgIMueDIwcA0BKSsrgwYPXrFkTGRnpOYCNzI7JjmGRHQnrbMXF8O9/V1mdaN0avvvOvdeD97ljz5C8cU8Q1rhkGBfya8d4z449V6JERUV17tz5b3/7m8fR/uR42LBhZO1YxljAvah5ZseVlfDxx3DLLexMqFYtWL4cmLPDbj7FVGVXnkeOn3oKdz/JsC/k5VgMd/qtHQNAcXFxdHQ09wpXf3L8ySefIITmz58vBhNZrBDJEj7ZTCLHu3bBPfewQhweDs8+C77nbjudkJ5eOXjwJc+ZFfPnQ1QUXeqrr/BxirKWEDkWwad+T1Z4jFuzZs3s2bOZg+j8yXFpaWmbNm1iY2N3797NRVVUVESeO+YSYtCw4eX4zz9h+HBWiBGCBx+EX38VcEcVyO+/T5etXh3++EOglHGTiByL852/9SzPIpfSJ5tw14597fMnx5WVladOnWrSpEl4ePiIESOWLVu2cuXKp59+unbt2q1atfKthzxZ4csJzjFVtAlnQ31tu34dXnkFoqNZLU5Kgv/+1zejV0wVyBQFjz5K19ClC7hcXplN8JbIsWgn3lzP0mxX3v79+3mNE5BjALh69eorr7zSpk2bmJgYm83WunXrF198MT8/37cqIse+nOAcU0WbcDaUa1tlJaSnux86Yn4br1kT3nuPXSbmZvYJe0O+ehWaNqWrevFFn+yGjyByHIwLb6xnufdo9ujh/puejslpJtwjhMTjIXIsnisccnprEw42CduwZw906sQKcXg4TJsGV64IF+Km8kD+6ScID3fXabGImV9za8M/TOQYfx8FtpDIcWCOjJ+DR5uwBXX2LIwYwQoxQjBwIJw4Eay9/JDffJOuuW5duHgx2Dpxzk/kGGfviLWNyLFYpoycj1+bcEPkcMDs2VWWie+8EzZvlmYmP+TKSujfn1bkPn2gslJa5RiWInKMoVOCNonIcdCUGbAAvzbhA4Si4JNPoGFDdlJcowa8+67IZWJeHH4hFxRA/fp0Q6Kf7ORtAqtIIsdYuUOiMUSOJRJnqGJ+tQkHFD/9BJ07s0IcHg5PPx3UMjEvCCHIW7fSe6nDwmDXLt7ihoskcmw4l/EYTOSYhxTTRQlpk45g8/Lg739nhRghGDAAjh9XxKIAkP/9b7rdxo3hf/9TpEV9KyFyrC//yrRO5FgZHvGuJYA2aW+8wwFz5kBMDKvFd9wBmzYpaEgAyOXl0L073frgwUBRCjatS1VEjnWhXeFGiRwrTCiW1QXQJi1tpijIyIBGjVghrlED3nlH8a0ZgSHn5UGNGrQZ776rJQdqtEXkWA1Wta6TyLHWjOvRXmBt0saqvXvhvvtYIQ4Lg3/+U6W1AlGQs7NpYyIj4fBhbThQqRUixyoRq2m1RI41pVunxkRpk6q2nTsHI0eyQoyQ+4Gz3Fz12hQL+ZlnaKtatYLiYvXsUbtmIsdqM6xF/USOtWBZ7zbEapMadpaUwKuvVlkmvv12uHmLoxoNeuoUC7m0FDp2pBV51Cj17FG7ZiLHajOsRf1EjrVgWe82xGqTsnZSFHz2WZVl4sREePttxZeJea0OAvKpUxAfTyvyxx/z1oZ/JJFj/H0U2EIix4E5Mn6OILRJKbD79kGXLuzqRFgYTJ0KhYVKVR+wnuAgZ2TQpsbGStiQHdAYDTIQOdaA5CCaQIKvH3744cyZMwiht956i1vphQsXnnrqqdtuuy06OjomJqZDhw5z58713OTEzeYVJkcIeRGC+dvgtEkmmPPnYdQoVogRgn79ICdHZq3BFg8a8tixtM1t22JyvFdQkIkcB0GX0wlpae6j3JKT3X/T0pT3eDrn1adPH4QQJyL94sWLvnK8b9++WrVq2Wy2sWPHLr/xGjt2bGxsbJ8+fYSxETkW5ge31KC1SRqAkhJ47TWIjWW1+Lbb4JtvdHmqN2jI16/DHXfQlk+ZIo0AHUsRORZLvobHHdMmTZkyBSHvG2O95Pjq1asNGjSoW7fu3r17KzlnqVy8eHHu3LnC2IgcC/ODW2rQ2hQsAIqCtWuhSRNWiKtXhyVLtFkm5jVWCuSjR9nrUNev560W20gix6Jck5XFf7mt5zKQrCxRlQSbSYwc/+c///HMoK9evcqVYzFtETkWwxI+eaRok3jrDxyAbt1YIQ4LgylTtFwm5rVUIuQVK2gg1avDmTO8NeMZSeQ4sF80vyqPNkmMHHfp0iU6OtrpdBI5DuxIg+eQqE0BUZ8/D6NH08fxeO7s6NsXjh0LWE6DDBIhUxSkptKKfN99Os7ug6WIyHFgxjS/SJo2SYwcJyYmtmvXjjxZEdiLxs8hUZsEgJeUwLx5VZaJW7WCjRt1WSbmNVM65GvXoFkzWpFfeIG3cgwjQ12OO3Z03+Ml/M9mY7/DMTd+eQVstgCVNGjgflA9qJcYOQ4LC+vWrRuR46CINWhm6drkC5ii4IsvvJeJFy+GsjLfvDrGyIK8dy99jRNCsGWLjijENx3qcsy9U9FLYRV/26CBeL+4c4qRYzI7Do5TI+eWpU1c4AcPsgehIeS+infyZLh8mZsFk7BcyG+9Rc+k6tQBvtt7MYHJmBHqcmz02fF9991H1o6Z3mzugFxtAnBL0j/+UWWZuHdvOHoUW97kQuZe49S7N/7XOIW6HIvpiDivHc+fPx8h9Mknn5Cf8sS40tB5ZGmT0wnz50NcHLvuduutkJ2NzzIxr2tkQfbUeOkS3HILjXrePN5W8IkkchzYFzg/WXHlypX6N1779+/nPuhWUFBAnjsO7FpD5ZCoTRQF69ZB06asECckwKJFuC0T87pCImSvun74gb3GaedOr0Ss3hI5FuWO7Gyh546zs0VVEmwmMWvHAPDTTz/VqFEjOjp63Lhx7994jR8/Pj4+vm/fvsItkueOhfnBLVWKNh06BPffzwqx1QqTJsGlS7hB82ePFMi8db3yCk1Co0YqHc3M22ywkUSOxTKG5648j/Xnzp2bPHlyq1atbDZbTExMx44d582bZ7fbhbERORbmB7fU4LQpPx/Gjq2yTNyrF/zyC26ghO0JDrJAXeXl7McSxtc4ETkW8KF3ktMJ6enu0yp69HD/TU9X/swK7ybFvScPuonjydi5xGqT0wn/+Q972iRC0LIlZGVhvkzM6xuxkHkLe0Xm5UHNmvQc+e23vRIxeau/HJ88eXLo0KENGjSIjo6+7bbb5syZ43A4POwkJyd7HXDWr1+/gMTZ7XaEUCHfMYCGng8KACdyLECOaZICaxNFwfr17PYHhKBaNViwwBDLxLxuCgyZt5i/yA0baDmOjIRDh/zl0jFeZzk+e/Zs9erVmzRp8vrrr69YsWL06NEIoYceesjDSHJycsOGDblHmm3dujUgWUSOA1LkyWDoDyeFB6pIynTNFgDy4cPub23M0/JWK0yYAAUFupost/EAkCVUP20aTdGtt0JRkYQKVC2isxzPmzcPIXSMs0F+1KhRCKErV64AQHJyclJSUrD4iRyLZIzIsUiiMMnmV5suXoRx46osE/fsCUeOYGK2HDP8QpZcaVkZe43T3/+O2wKOznI8Y8YMhNBlzo6gGTNmWK3W69evM3JcXl5eHMx1hESORfZVIsciicIkG482lZbCG29UWSZu0QIyM3FTGckE8kCWXBdT8LffWMbWrGGicQjoLMebNm3yrE4cPnz47Nmzn3/+ebVq1Z555hkPNcnJyREREZGRkQihunXrvvzyyy6XKyBrRI4DUuTJQORYJFGYZKuiTRQFX30FzZuzqxPVqsFbb0FpKSbWKmJGFciK1Oip5LPPaN5iYuD4cQUrllmVznIMAHPnzo2OjmZ+sps5cyYDacyYMbNnz16/fn1aWtpDDz2EEHrssceYVG6gtLTUfvOVl5eHEMrPz3f5vIqKinJychwOR6W5XhUVFVevXq2oqAgKlsPhyMnJKSoq8uHJABEOhyMzM9PhcBjAVoVMZCHv31/JWSamLJaKceNc584p1A5G1bCQlTaqcswYjyJTbdq47Halq5dYX35+PkIo4COqAOB9LQVXDeWE09PT+/Xrt3LlyvXr148ZM8Zisbzzzju8FT755JMIoT179vimzpo1ixF0TyAjIyPT57Vx48YDBw4UFBRcJa+rVwsKCg4cOLBx40YfnkgEpgx8u2bNmb59KauVmRRfat36+8WLMTUXY7M2rF1rb9TIQ+PplBRMLM3IyNBTjj/77LPo6Oi8vDxGYUePHh0TE8P7mNqJEycQQrx7f0XOjouLi3Nycq5fvx7ULBL/zNJmx9evX8/JySkuLpb4Ua5rMfXmTbrC8t94cXHZvHmumBhGiKnmzcu/+MJVVua/jOFT1PXyoUPUzcNzyz//HAeydJ4dd+/evUuXLowWA8BXX32FEPruu++4kZ6ww+H466Nj2rRpvkncGIG144qKitzcXF6t59ZguLC0544LCwtzc3MrKioMhxcA1FpVxJALinL/OteiBSPE7l+i3nzTZMvEvMSr7uWVK2lWExJwuMZJ57XjVq1aderUieuJtWvXIoQ2bdrEjfSEjx49ihCaP3++bxI3RkCOAeDChQseRS4pKXGa5eVwOAoKChwOh0hAJSUlHi2+cOEClzoDhVUfqJhwceQI9OzJCDFlsVSOHQsXL2JindpmqO5lioKhQ2l6O3fW/RonneV40KBBkZGRv/76K+PXwYMHW63W8+fP2+32Us7PxBRFDR06FCF08OBBJjNvQFiOKYryKHKuiV45OTkHDhzIyckJCtOFCxcoiuLlEP9I1Qeq7hRcuuTex8FZJq68//7vFy0S83CR7rYrZYAWXr52jX1AZcYMpSyXVo/Ocrxt27awsLA6deq8+uqry5Yt69+/P0Jo3Lhxfz10/MMPP9SrV2/atGnLli1bsGBB165dEULjx48PiFNYjj3FKyoqRE4kDZGtqKho48aNRUVF4q016BoF430tBirTmMaBsjL3zuZq1ZhJsXvf8/r1rrKyzMxMIsfKe2PfPoiIoNnevFn5+kXXqLMcA8DevXv79+9fr169iIiIVq1azZs3r7y8HABOnz6dmpratGlT5pSy999/X8xsTowci+bHGBnNrE1+PGBOyBTlPuunZUtWiOPi3OcBOZ2htVx+0+naeXnhQprz2rVBvxU8/eX4JvOK/U/kWDEqMa5Iu4GqGQm//AK9e7NCbLG4T8jk3PBmQsiBuNUOcmUlDBhAk9+zJ+j0+zaR40A9wgjp2vVabNgwFeRLl9ynwnOWid2H8/ocOWYqyOI6kqaQL19mr3F67TVxBiqci8ixwoTqUp2mvVYXhD6NmgRyWRksXAgJCeykuGlT+PJL3kMnTALZx5UCEVpD/vFH+kPRaoUdOwQMUymJyLFKxGparda9VlNw/I0ZHjJFuW8OvfVWVojj4uD11wVuNDA8ZH5PCsXqAHnWLNojDRsC35npQubKTiNyLJtCDCrQodfqjdrYkI8ehT59WCG2WGDMmIC/IBkbsqQOowPkigpITqZd89BDvF9TJEERVYjIsSiaMM+kQ6/VmxGjQr58GSZPrrJM3L07HDgghk6jQhaDzU8efSCfOwe1atGKvHSpH9NUiSZyrAqtGleqT6/VGGTV5owHuawMFi+G6tXZSXGTJvDFF+LnX8aDXNVlEt7pBnnjRtpNkZEQaN+ZBFz+ihA59seMkeJ167X6kWQkyBQFGzdCq1asEMfGwvz5AsvEvLwaCTIvgOAj9YT87LO0v1q21OwaJyLHwfcR/Ero2Wt1YsMwkHNyoG9fVogtFvjHPwIuE/OSahjIvNZLitQTclkZ3HMP7bjHHxf/JUYSULoQkWM57OFSVs9eqxMHBoBcWAhPPQVhYawWd+0qcpmYl1QDQOa1W0akzpB//53dqv7hhzJwiC1K5FgsUzjn07nX6kEN1pBdLliyxHuZeO1amTMsrCGr0wf0h/z55/SnaUwM5Oaqg5Ktlcgxy4VxQ/r3Ws25wxfyN9/AbbexM+LYWHjtNSgpkc8QvpDlY/NTAxaQn3yS9mabNor40Q9WdzSRYwFyDJOERa/Vli0cIefkQEoKK8QIwRNPwPnzShGDI2SlsPmpBwvIDgckJdFunTjRj6XKRBM5VoZHfWvBotdqS4EOkJ1OSEuDIUPc2wSGDHGHbxy05sb9v//B1Kney8T79ytLiQ6QlQUQfG24QD52DKKjaUX+4ovgcYgtQeRYLFM458Ol12rIkdaQs7IgMdE9ID0H/Xj+JibCV1/B22/TSQi5MzRuDJ9/LnOZmJdIrSHzGqFtJEaQV62i5TghAU6fVokGIscqEatptRj1Wq1wawo5KwssFvc/j+Ayf71iYmJg7lz1lhc1hayVH4XbwQgyRcGwYXQH6NRJpWuciBwL9wdjpGLUa7UiTDvITqd78uulvIwiM4FRo+DcOVXRawdZVRjBVI4XZLudvcZp+vRgcIjNS+RYLFM458Or12rClHaQ09K8J8WMBDOB2bM1AK0dZA3AiGsCO8j797PXOPFdrywOlt9cRI79UmOgBOx6rfrcaQd5yJAqJ/4wEswErFb3L3vqv7SDrD4WkS3gCHnRIvrjuXZtBR+b8RBC5Fhkx8A6G469VmXCtIPMHLfI6K9voEcPleG6q9cOsgZgxDWBI2SKgkGDaEV+4AFlr3EiciyuX+CdC8deqzJj2kEms2OVXSlQvXZeFjDCN+nyZWjQgFbkuXN90yXHEDmWTB1GBTHttWoypB1kMWvH6elqYqXr1g6yBmDENYEv5G3b2Ecet28XhyZwLiLHgTnCPwe+vVY17jSCTFHwyitCP+VZLO7nLpj9IKrhJYsValIrqe45c+iOodw1TkSOJXkCs0IaaRNOqLWAXFHhvrnDd6WYifE8jJydrQ0xWkDWBonoVrCGXFEBPXrQ3WPQIEU2/hA5Ft01MM6Ida9VhzfVITud7uclGOUdPZp/V55WWkxmx+r0I3m1nj/PXuO0ZIm8utyliRzL51D/GlTXJv0helugLuSrV+H++2ktDg93H08B4F6RSE93a3SPHu6/6enarFEwyNWFzDSDU8AAkL/5hu4nERFyDrP2sE7kGKfeJ9UWA/RaqdD8lVMR8rlz0Lo1PcZiY2HzZn82aByvImSNkYhuzhiQn3uO7i0tWoDdLhocT0YixzykGC7KGL1WUVrVgpybC40a0aOrdm3Yt09Rq2VVphZkWUapW9gYkMvK4N576T4zfLicRWQix+r2J21qN0avVZQLVSDv3g01atDjqlkzOHlSUZPlVqYKZLlGqVveMJC51zh98IFkUogcS6YOo4KG6bXKcaY85Oxs9kzb9u0hP185Y5WpSXnIytilYi1GgvzFF/QHeXQ05ORII4XIsTTe8CplpF6rEHMKQ169mj08vlcvmSuACkH0rkZhyN7V4/jeYJDHj6cVuXVraeesEjnGsRcGa5PBem2w8PjyKwaZotyHFDMPtA0fDmVlfA3qH6cYZP2hiLXAYJBLStgfgSdMEAuSk4/IMYcMwwYN1muV4FkZyBUVMGkSq8XTpkFlpRLWqVKHMpBVMU2tSo0HOSeHXfIK/honIsdq9SQt6zVer5XNjgKQvTZ6vPWWbKPUrUAByOoaqHzthoS8ejX9AV+tGvz+e1CkEDkOii5MMxuy18rjUi5kr40empwBJA8xOWBTJn9aFacoGD6cVuR77w1q7YvIsVZOUrMdudqkpm0q1S0LMq4bPYS5kgVZuGpcU40K2W6HFi1oRf7Xv8SzS+RYPFf45jRqr5XBqHTIXhs99u+XYYWmRaVD1tRMJRszMGTuNU7ffiuSFCLHIonCOpuBe61UXiVC3rWLPgkIIfc1lKdOSW1fh3ISIetgqWJNGhvy4sX0BLlWLZHXOBE5Vqzr6FiRsXutJOKkQMZ+o4cwE1IgC9eIfaqxIQd/jRORY+y7pAgDjd1rRQD0zRI05FWr2BtIe/eGoiLfOjGPCRoy5nhEmGd4yNxrnObMCYiYyHFAigyQwfC9NniOg4BsnI0ewjQEAVm4IuOkmgHy9u3sNU4//ijMPZFjYX6MkWqGXhsk02IhG2qjhzAHYiEL12KoVJNAfvVVehG5QQO4fFnAA0SOBcgxTJJJem0wfIuC7LXRY8GCYFrALq8oyNhZLcsgk0CuqIAHHqAVWfAaJ/3l+OTJk0OHDm3QoEF0dPRtt902Z84ch8PB+HDXrl1du3aNjo6uW7fu1KlTi4uLmSR/AbvdjhAqLCz0l8F88SbptcE4JjDkq1ehe3d6DISHuy/vMPgrMGSDA/Q13zyQz5+H2rXp3rhokS9ST4zOcnz27Nnq1as3adLk9ddfX7FixejRoxFCD5FP4iMAACAASURBVD30kMe4w4cP22y29u3bL1++fObMmVFRUSkpKf6QMPFEjhkqTBwIMFDz8tjDXGJjYcsWE1ARALIJEPpAMBXkTZtoOY6IAD9Pu+ssx/PmzUMIHTt2jHHEqFGjEEJXrlwBgP79+9evX99+876TVatWIYS2BBpaRI4ZMk0cEBqoht3oIewvIcjCJQ2bajbI06fTiuznGied5XjGjBkIocuc5e0ZM2ZYrdbr16/b7fbw8PDp06czfamsrCwuLm7s2LFMDG+AyDEvLSaL9DtQjbzRQ9hHfiELFzNyqtkgc69xGjbM9xonneV406ZNntWJw4cPnz179vPPP69WrdozzzwDADt37kQIrV27ltudunXr1qFDB26Mb5jIsS8n5ovhH6hZWWCz0ROQDh3g4kUzAeeHbCaEPlhMCPn0aUhIoLvo6tVeiHWWYwCYO3dudHQ0uvmaOXOmx8R169YhhLZv3861ODU1tV69etwYT7i0tNR+85WXl4cQys/Pd4XMy+FwZGZmOhyOkEHs8oVc/v77lNXq6eiVvXq5/vc/k7HhC9lkAH3hmBJyeUaGp5dS0dGuw4e5qPPz8xFCzPKsr9AxMYgJKRtIT0/v16/fypUr169fP2bMGIvF8s477wBAWloaQmjv3r3c5kaOHJmQkMCN8YRnzZp1U8/p/zMyMjLJK0QY+PrrXOZIQ4TyunfPWrcuRKATmEZk4HS/fh5FtjduvGHtWgZCRkaGnnL82WefRUdH5+XlMQo7evTomJiYwsJCMjvmfmwKh005iRAL2emsYO4oQ6jimWdcpaXCZQ2aGtJeNqjP/Jltt1OtW9Pf5MaOZXLpPDvu3r17ly5dGC0GgK+++goh9N1335G1Yy4twmETLrEJA4abZ7EXFcHDD3u6tfuvwTd6CIMOXS+7XMLMGDI1NxdiYuiu+/nnHgg6rx23atWqU6dOXDbXrl2LENq0adO1a9d4n6wYM2YMN79vmPyU58uJ+WJcLtc3n3xS2a0b3aHDw+GTT8wHk4uIyDGXDTOEP/yQ7r03r3HSWY4HDRoUGRn566+/MuQOHjzYarWeP38eAFJSUurXr1908/Ct1atXe5SaycwbIHLMS4vJIl2nT9sbN6Z7s1k2egj7iMixMD/GS6UoGDGC7sMdOsCHH14dOFDPteNt27aFhYXVqVPn1VdfXbZsWf/+/RFC48aN8zB78ODBqKgoZleezWbr27dvQNKJHAekyPAZcnKoRo3ofly7tr89ToaHWRUAkeOqfJjiXVERtGxJ92SErlksesrxX1vv9u7d279//3r16kVERLRq1WrevHnl5eUM0zt27OjSpYvNZqtdu/aUKVOYmTKTwTdA5NiXE1PFcDZ6UEa70UOOI0JKjp1OSEuDwYMrW7e+PHhwZVoaOJ1yyMO47KJFjBy7T9vR90E3xXkicqw4pRhVyNnocbV5cxfnmRyMjFTHlNCR46ws+gotq5VCCDx/ExMhO1sdZnWs1elkbwtDiMixjq5QrOlQGaicGz0qe/Xa+NlnLlP+5u6nX4SIl7OywGJx/0Ooyj9PZFaWH3YMGp2WxgVJ5NigbqxitvkHKkUBc4Y3QjBihOv69czMTCLHVfqB8d94Jou+WuyRZovFPZU01arFkCHsnWFkdmz8DuxGYHI5rqiAiRPZScSzz0Jlpckh8/XLUIBcdbLI+pw7Uzb+ydUc7yYnc0GS2TGHGsMGzTxQS0p4N3qYGbKffhgKkKtOFrlKRYetVhgyxA9BRoyuCpjIsRF96G2zaQfqlStVbvTgbPQwLWRv37LvQwFy1ckijxwjBD16sJwYPlT16wCRY8M71LSLFXl5kJREj8i4OK8bPUJBm7y6pukhb98O1avzSzCzWGG22XHVxXIix1593pBvTThQc3KAu9HjwAEvx5gQshdCn7cmhnzmDDz2WAAhZhTZVGvHAO7H924+SkLk2KfXGzDCbAN15072YcwWLeDUKV+fmA2yL0KfGFNCLi6Gl16CqChWi8PCeJ5yM+2TFR4v33zQWv9deT69Tm4E2QYil0F9y3M2eoD/Gz1MqU3CxJsMcmUlrFkD9euzQly7NqxYAV9/zUwW2SRmapyZKUySYVOdTkhP1/nMCjXII3KsBqsa1blyJfsYZp8+cPP0KN/WTaZNvgB9Y8wEeccO6NiRVduICPjXv+DaNRr0zckivR/PsyvPo8jz5/sSY54YnU90U4NIIsdqsKp6nRQFc+awA3TECCgrE2jUTNokAJObZA7If/wBQ4eyfkYI/vY3OHmSC9QdvjFZ9JxZcWnw4MoXX6SLhIXBzp3emU3znsixGVxp+IHqtdHjueegslLYMYaHLAyPL9XokIuL4eWX2atlEYLWreH//o8P6s04LuRXXqEVuXFj+N//buYw1/9Ejs3gT26vNR6ekhIYPJidL4m70cPYkCU5ybiQKyvh44/hlltYJ9eqBe+/D5yjG/kZ4UIuL2efQR88GCiKv4ihY4kcG9p9tPHcXmswPFeuAHOjR0SE+Bs9DAxZqocMCnnXLrjnHlaIw8Ph2Wfh6lVRLHhBzsuDmjXpqm7cbyyqEgNlInJsIGf5NdWr1/rNh1uC10aP//5XvIFGhSweoU9Ow0H+808YNowVYoTgoYeAc/OPD0KfCF/IGzbQFUZGwqFDPgUMHkHk2OAOvGG+b681AKqcHGjYkB5bdeqAz0YPYQiGhCwMKVCqgSBfvw7//neVZeKkJAjm05bmghfytGl0r7n1VoFHbwKxiWU6kWMs3RKkUby9Nsg6tM3utdHjt9+Cbd54kINF6JPfEJArK923eHCXiWvWhPfeC7xM7APXHcELubSUfUhu5EjeckaNJHJsVM9x7ebttdwMeIUzM9mJU8eOcPGiBPMMBlkCQp8i+EPevRvuvZddnQgPh2nTxC4T+8B1R/iD/NtvEB9PN7RmDW9RQ0YSOTak27yM9tdrvbJh8Vb0Rg9ha40EWRiJ6FScIZ89y96J7NmvMWhQcMvEvDQIQP7sM1qOY2LgxAne0saLJHJsPJ/5WizQa30z6xbjtdHj8ceFN3oI22kMyMIYgkzFE/L16zBrFkRHs5PipCSv0/eCxMnJLgx57Fi60bZtTXJFCJFjjvMNGxTutVjAqqiACRPYIStio4ew2QaALAwg+FTcIFdWup9LbNCA9WrNmrBsmcRlYl4+hCE7HHDnnXTrkyfzVmCwSCLHBnMYr7nCvZa3iKaRkjZ6CFuIO2Rh6yWlYgV5zx7o1IkV4vBweOYZuHJFEjD/hQJCPnqU/Rniyy/9V2SQFCLHBnGUoJkBe61gaZUTvTZ6fPqpIu1hDVkRhD6VYAI5Lw8ef5wVYoRg4EA4ftzHXCUixEBesYI2JiEBzpxRolX96iByrB/3yrUsptcq11owNZ09W+VGDwmPnvppDV/IfgyWH607ZIcDZs+uskx8xx2webN8ZH5rEAOZotij6zt3BpfLb234JxA5xt9HgS0U02sD16J4DnkbPYTNwRSysNHyUnWETFHw6afsrh2EoEYNePddJZeJebkRCfnaNWjWjJ4jz5jBW5MxIokcG8NPwlaK7LXClSicKnujh7A9OEIWtlh2ql6Q9+6Fzp3Z1YmwMPjnPzU6U0085L17ITycNnLLFtlc61QBkWOdiFe0WfG9VtFm/VfmtdGjoMB/Vokp2EGWiCOIYtpDPncORo5khRghGDAAcnODsFlm1qAgL1hAm1qnDuTny2xZn+JEjvXhXdlWg+q1yjbNU9uKFeyNHn37qnSsAF6QeVhQPkpLyA6H+zKAmBhWi2+/HTZtUh6UcI1BQa6sdH9aeDah9OoFFRXCdeOYSuQYR68Ea1NQvTbYyoPIT1Hu33qYe83kbfQQbhcXyMJWKpqqDWSKgs8+Y2/xRsh9i+zbb+vzE1mwkC9dYo/LmDdPUfY1qYzIsSY0q9xIsL1WGXOcTvdpMUOGQHKy+++aNcBsk0LIffdZoBs95JihD2Q5FssuqwHkffugSxf28zQsDKZO1WiZmJceCZB/+IH+bmbEa5yIHPN2A4NFSui1chFybpd0D1+rlR3ECMHChXLrD1ReB8iBTFI7XVXI587BqFFVfJiSoukyMS970iDPmkUDadRIz88SXkTCkUSOhfkxRqq0XisdW1aW0N3rzz4rvWbRJbWGLNow9TKqBLmkBObO9V4m/vZb9XAEUbM0yBUV7i9snjWzhx4y0jVORI6D6BzYZpXWayXCcTrdq4kWS5WpFLNebLG4U51OiZWLLqYpZNFWqZpRccgUBZ9/Do0bs56sXh2WLtVnmZiXOsmQz51jr3F6+23eunGMJHKMo1eCtUlyrw22IXf+tDR2+DIq7BVIT5dSczBlNIUcjGHq5VUW8v790LUr68mwMHjqKSgsVM98KTXLgbxxI40uMhIOHpTSuvZliBxrz7nyLcrptUFbM2SI90qxlxZbre5f9lR+aQpZZSwiq1cK8vnzMHo0K8QIQd++cOyYSCs0zSYT8rPP0jBbtlTpeUuF2SByrDChulQns9cGZzOzLOelwty3PXoEV2fwuTWFHLx5apSQD7mkBF57DWJjWS1u1Qo2bsR3dVUm5LIyuPtuGuzjj+MLk+ktRI4ZKgwckNlrg0BeXs4eCcTVX26YzI6DIDSIrHK8TFGwdi00acIKcfXqsGQJRsvEvETIgeypkHuN00cf8TaCUSSRY4ycIdkU+b1WVNO//MLeGcnVX98wWTsWRWhwmSR7+cAB6NaNFWKrFSZPhsuXg2tdl9ySIXOt/fxzGntMjP6P7nEN8w0TOfblxHgxivRaIdgul/thqIgIdkz7SrAnhjxZIcSjrDQJXr5wAf7xjypPwfTpA0ePyjJDy8ISIPOaN24c3XPbtoWSEt4sWEQSOcbCDTKNUKrX8ptx5Ai0b88K8Z13woIF/M8dWyzu+Oxs/noUjVUXsqKmKlVZUJCdTpg/H+LiWL/deits2GCA9VMuXUFB5hb0Cjsc7BrbpEleiRi9JXKMkTMkm6JUr/U2wOVyHyTDTIqtVnjxRfqZYt5deYmJ2mixwJXv3hBM9F6klykK1q2Dpk1ZIU5IgEWL5NwTqxuJIiGLse/YMfbgfGyvcSJyLMaVuOdRsNeyUH/+Ge66ix3TSUmwbx+bCuDW5fR09zNtPXq4/6ana7D7gzFAFchM7VgGxEA+dAjuv591mtUKkyYZY5mYl3IxkHkL8kauWkUzk5AAp0/zZtE5Uq4cOxyO7777bvbs2ePGjRs8ePCIESOefvrp1atXnzp1SgyyJ554AvG9zp07BwDJycleif369QtYrd1uRwgV4vZEe0C7ZWRQtte651GzZ7OneYeFwcyZUFoqw0DliyoMWXkDla9RGHJ+PowZU2WZuHdvIy0T8/IlDJm3iEAkRcHQobQid+qE41Ml0uV49+7do0aNiomJsVqtFp+X1WpNSkp655137Ha7AEG7d+9O57zS0tJiYmLuvPNOT5Hk5OSGDRty0tO3bt0qUJsnichxQIqEMhw+DO3asfOr1q3hwAGh/DqlKTtQdQIRXLP+IDud8Prr3svE2dkGWybm5cIfZN7MYiLtdmjenO7dzz8vpoSmeaTI8bFjx/r372+1WiMiIvr06fPKK69kZ2fv3bv31KlTv/zyy48//rhixYp//OMfTZo0sVgstWrVWrp0aXl5uRhYO3bsQAjNu3lSaXJyclJSkpiC3DxEjrlsBBEuK4NXXqkyKX75ZdwmxQwcxQcqUzO2AV/IFAVffsleE4cQJCS4T9MrK8MWRHCG+UIOrjxf7v372V9DtD9Qn88iNk6KHIeFhTVv3vydd965HOjZxR9//PHxxx8PDw9/7bXX2Db9hyZNmmSxWM7cvJ7bI8fl5eXFxcX+C3mnEDn2ZkTM+0OHoG1bdlLcti3m+/zVGKhieNIxjxfkQ4fYc8s8R5xOnAiXLulooPJNe0FWqoGFC+meXrs2XLigVK0K1CNFjlevXi1ytusx8OTJk99//31AY10uV82aNbt27crkTE5OjoiIiIyMRAjVrVv35Zdfdom4tpvIMUOgqEBpKbz8MoSF0T00PNw9R8Z+fqXSQBXFmE6ZGMgXL8K4cVWWiXv2hCNHdDJLzWYZyMo2QlEwcCDd33v2xOgaJylyrCw1TG0bNmxACL333ntMzJgxY2bPnr1+/fq0tLSHHnoIIfTYY48xqdxAaWmp/eYrLy8PIZSfn+8KmZfD4cjMzHQ4HEEj/uknKimJmRRTbdu69u4NuhI9CkiHrIe1irTpcDjWrcueO7csPp5iduG0aEF9+WV5WZkiLWBXiXpevnDBdcstNI2zZ1dggjw/Px8hJPx7m0f3EFf+1AgPHz48IiJC4ImIJ598EiG0Z88e39ZnzZrl9QxGRkZGJnn5ZyB73boTqamVN2/xqAwLOz5sWNa6df5LkBQ9Gfj668wZM/bWrXudEeKYGNfo0UfXrcvW0ywjt/3aazusVrciW63UvHnbcYCSkZGhmBw7HI6VK1c+++yzzz333AcffFASzG7E4uLimJiYQYMG+UotE3PixAmE0Ny5c5kYJkBmx0HNjsv37KHuvJOdFLdr59q/H5MJgkgz1Js3iTRAy2z797uSkysZIbZaqXHjKs6d09IEfdpS28v//neFh9WGDSkcvk4rNjvet29f3bp1rVZrnTp1EhISLBbLLbfccvjwYUYxhQPp6ekIoc8++0wgm8Ph+OujY9q0aQJ5AICsHQvxU1rq3lnHrBRHRMCrr+L4BKYQBneaSquKgZrVOr2gAJ58ssoycY8elT//rLUZerWntpcrKtx7mDyKjMM1ToqtHXfs2LF3796e7RsAsHPnznr16t13330iHZmSkhIXF+dwOATyHz16FCE0f/58gTxEjoXI2bsXOJNi90kUhv0BSO2BKkSjJmmlpfDmmxAfz3yHgRYtqBde+KmszKVJ+1g0ooGXz5+HWrVokpcs0Rm1RDn2ncaGh4d77dF45plnbDabGHyXLl0KDw8fOXIkN7Pdbi/l7ASjKGro0KEIoYOBLlohs2MujXTY6YQZM9hbPCIi3Ce0iXhMhacqPKI0GKh6AaUo+PpraNGCFeL4eLc0Fxe7MjMzxTxcpJflirerjZe/+YamOiJC5z1PEuU4MjLywQcfZObCANC0aVPuMsL169fbtWvXsmVLMR565513EEKbN2/mZv7hhx/q1as3bdq0ZcuWLViwoGvXrgih8ePHc/Pwhokce9Py009wxx3s4O7QAX75xTuP0d5rM1C1Z+XIEejZk/WVxeJerLh40W2IWSELkKwZ5OeeoznX9xoniXJ87Nixzp07V6tW7d133/Ww+dFHH1kslttvv33o0KGDBw+uWbOmxWJJF3cMeefOnevUqVNRUcF1zOnTp1NTU5s2bWqz2WJiYjp27Pj+++9TFMXNwxsmcszS4nTC889XmRTPm2foSTEDTbOByrSodqCgAMaPZ32FkHtZk/vji/kgB6RUM8hlZXDPPbQijxih2/5yiXIMABRFLV26ND4+vkuXLrm5uQCwa9euoUOHtr/xGjFixE8//RSQbjUyEDmmWd2zB26/nZ1o3X234U+U4XQXzQYqp021gmVl7hOkq1VjfdW8OXz1lbcomAmySCq1hPz776wLPvxQpIEKZ5Muxx5D/vzzzwEDBkRFRc2aNQuTVS0ix+4LD/71L3aiFRnpPmNG3LEhCvcv1arTcqCqBsItuJmZ0LIlK8Tx8fDGG/wnhZgDclBkagx57VraEXpd4yRXjj3kfvrpp3Xq1Lnjjjt27doVFN1qZA51Od69G267jR3f99wDOTlq8KxvnRoPVDXA/vIL9OrFOspicW99zs/325QJIPvF5idBe8jjx9Mead1ah2uclJFjACgsLBw5cmRYWNjkyZOLior80KtFdOjK8bVr8Oyz7EOqkZHwn/+YbFLMdCDtByrTtPzApUswcSL77QUh95nxhw4FqNjQkANg85OsPWTuNU4TJ/oxS7Vo6XJ88ODBSZMmDRw4cNKkSYdudqUtW7Y0b968YcOGWVlZqtkcoOLQlOPtr79Ocb/03nuvKSfFjO+1H6hM03ICZWXuAzATEthJcbNm7kMyRfxETZ6skEN8EGVzcthrnL74IoiC8rNKlOPs7Ozw8PDExMROnTrVqFEjPDx848aNHmtKSkqmTZsWHh6emppaUFAg38Rgawg5OXY4Kp5+mrJY6CEeFeV+SNVcK8W+fcBwckxR7nsEb72VFeK4OPeSvtPpC44/xnCQ+WEEE6sX5NWraTdVq6bpNU4S5fiuu+5q27atZ1GiuLi4bdu27du35/K8b9++tm3bJiYmciO1CYeWHO/YUeWXoM6d4fhxbXjWtxW9Bqo01EePQu/erBBbLO6LlASWiXlbMRZkXgjBRuoFmaJg2DDaX/feq91xsxLl+K8NzdOnT2fInT59enx8PPPWE6ioqAi4odmriCJvQ0WOr1+Hp59mVoorIiMr3ngDo6NbFfGl/0r0Gqj+LeJPuXzZfXnozYPz3CO8e3eJJ/sbBTI/EZJidYRst7MbIzlSJwmG6EIS5fiuu+5q376958y2kpKSu+66q127dqIbVTdjSMjxtm1sZ0Go8r77/m/ZMkweNFTXuzdr13Gg3jQhwP9lZbBoUZVl4qZNYd06UcvEvFXjD5nXbDmR+kLmXuP07bdycIgtK1GOs7KyrFZrzZo177vvvlq1almt1szMTLFtqpzP5HJ8/TpMncp+77XZYNEil9NJTjNQuVsFUT1FwYYN0KoV66W4OJg/P4hlYt7G9NUmXpPUjtQd8uLFtBNr1YLz59WG634+TeJ5x/v27Rs/fvyAAQMmTJiwd+9e1S0V3YCZ5fjHH9mLcBGCrl3h11/JaQaiu4YWGY8dg759WSG2WOAf/1DmQjbdtUkL+qq2oTtkioJBg2hvPvCA6muB0uW4Km8YvTOnHBcXw1NPsaM8OhoWL2Z6h+69Vnv3Ywj58mWYMoU9Shoh6NZNyRPCMISstt9xgHz5MjRoQI+8V19VFzGRY3X5Vab277+vcnt7t25w8iS3Zhx6LdceDcLaQ3Y6IS0Nhgxx3988ZIg7zDyj5nLBkiVQvTr7cdmkCXzxhfRlYl4CtYfMa4aWkZhA3raN/jHWaoVt21QkQIoc+x52LGzg2bNnd+7cKZxHwVRTzY6Li2HyZHaUR0fD0qVQWelFFya91ssqVd9qDDkrCxIT3X7wPCPh+ZuYCFlZ8M03VTalx8bCvHmq7K/VGLKq7hNZOT6Q58yhR2GDBlBYKNL8oLNJkeOwsLA2bdqsWbOmuLhYuMH9+/ePHz8+KiqK94I74bKSU80jx1u3QtOmrBbffz+cOsVLCz69ltc8NSK1hJyV5X6ekNlnw9xZ5xszerSKP/hoCVkNl0moEx/IFRXwwAP0WBw0SOHvPQwzUuT40KFDPXr0sFgssbGxjzzyyJtvvrl169Zjx46dO3fut99+27dvX3p6+lNPPXXbbbdZrdbq1au/8cYb3Hs9mLZVCphBjouK3E+rMuM+Jgbeftt3UswQiE+vZUxSO6AZZKfTPS/2VV7GOZ5A166wf7+6oDWDrC6MYGrHCjL3GqfFi4OBITqvFDn2VP6XBD/66KORkZEWi8Xq8/rr7PkWLVq8+eabV65cEW2MMhkNL8f/93/QpAmrxcnJ8NtvwtRg1WuFTVUqVTPIaWmsK7wkmHk7ZYpa0yUuXZpB5jaqbxg3yN9+S3eGiAhVPn2ly7HHT1evXs3Kynr++edHjBjRr1+/wYMHP/nkk2+//fYR/e7ENLAc2+0wYQI7+mNj4d13BSbFzFDBrdcyhqkX0AzykCFV9tQxEswErFb3L3savDSDrAEWkU1gCPlf/6IHaIsWYLeLxCE2m1w5FtuOhvmMKsf//S80bsxqcY8e8PvvImnDsNeKtFxyNs0gJyezPmEk2CvQo4dkHEEU1AxyEDapnBVDyGVlcO+9dJcYPlzhb0VEjlXuUGKqt9vd91MyQzw2Ft57T8ykmKkbw17L2KZSQDPIZHaskgfFVKuZl8UYw+ThXuO0ejUTrUBAGTnOz89ftmzZ1KlTx4wZ4zHq0qVLe/fu9RxqoYCZwVRhsNnx5s3QqBGrxT17wpkzwcB158Wz1waLIqj8mkEWs3Ys7obeoPDxZNYMMk/bOkVhC/mLL+ghGx2t5LniCsjxsmXLbDab5cbLarV6HHfs2DGr1bpy5Urt/WgYOb52DcaOZYU4Lg7ef1/alx9se6163tcM8ocfsi5ivsAwAYvF/dwFsx9EPbzkQ1dVbiVUzvzKo+A1TnLlODs722Kx3HPPPRs2bJg8eTIjxwBw1113DRgwQAJOmUWMIcebNkHDhuxA79VLwqSYIUozbWJa1D2gDeSFC1kXMRLMBDwPI2dna0SGNpA1AiOuGZwhl5RA69Z09xg/XhyeQLnkynH37t2bNGly/fp1AJg9ezZXjkeOHNm0adNABiifjrscX73qPnucGdPx8bBihbRJMcMdzr2WMVLZgNqQKyvhuedYL/XrR++B9tqVp5kWk9mxsv1Hkdq41zitXatAlXLlOD4+fvLkyR5DvOT4hRdeiI6OVsDGIKvAWo6/+YY9jwQh6NMH/vwzSHw82dXWJp4m9Y5SFXJZGTz+OKvFc+a4Py6dTkhPdz/T1qOH+296ukZrFAzTqkJmWsEqgD/kDz6g+0m1auKfhPLLsVw5jo2Nffrppz3Ve8nxmDFjqlev7rdl1RIwleOrV2H0aHaIx8fDqlUyJ8UMhfj3WsZUpQLqQS4qcn9Ker69WK2gx88f/CSpB5m/PQxi8YdMUTBiBN1b7rlH7jVOcuW4w42Xx3FcOS4vL2/ZsmX37t219ymOcrxxI9xyC6vF/fopMilmuMW/1zKmKhVQCfLFi9CxI+0omw2wuVPBTZtKkJXyiBr1GAIy9xqn556TRYNcOV64cKHFYpk9ezZ37biiouLpp5+2PqjtoQAAIABJREFUWq2rVq2SZZ2kwnjJ8ZUr8MQTrBBXqwYffKDUpJihxxC9lrFWkYAakH/7jb3xKjERNDyFUBQlakAW1bB+mYwC+cABiIigR/k330jnS64cu1yuHj16WK3WW2+9tU2bNlarNTU1tVmzZhaLpV+/fhRFSTdNakl95Jj3NNzsbKhfn9XilBTIy5MKS6icUXqtEIYg0xSHfOAA1KlD+6phQyUfJg0Smd/sikP22xI2CQaCvGQJ3Xlq1YJz5yQyKFeOAaCsrOyll16qUaOG59Fji8WSkJDwwgsvlJWVSTRKXjEd5Jj3NNzISFaIExLgww8VnxQzPBmo1zI2ywwoC/m//4W4ONpdSUkqfWjKREwWK+QSqGp5ioIHH6S7UI8ezEU9wbWpgBx7GqQo6vjx47t27Tp69GhFRUVwViiaW2s59ncaLvMo24ABao9vZbVJUW+oVZmCkD/5BMLD6YHUrRtofgShWIoUhCy2Sb3zGQtyYSG7l2DOHCncyZXjZs2aMQ+6SWlfhTKaynHA03BjYlS5GaIqb8bqtVVtl/hOKcgLFrDfYR5+WANfScRLfsqTTpyGJbdvZ++L+fHHoBuWK8fx8fEvvPBC0M2qWUBTOcbjRAOltElNtyhct3zIlZXw7LOsFk+YIPELpsLA/FcnH7L/ujFNMSLkuXPpTnXLLXD5cnDEypXjrl27DtHmtFfRuDSVYzzO+zJirxXtT/6MMiGXlbGPi/51A96rr6q3sM9vv4RYmZAltKh7ESNCrqiAnj1pRR44MLh+JVeOs7OzIyIivv/+e909xxigqRzjcRquEXst4y9pATmQsd3oIUyFHMjCNWObalDIFy5A7dq0Ii9aFAS7cuX4448/HjhwYHh4+KOPPvrGG2+sWbPm46qvIGxRKKumckxmxwp5LdhqJA/UixehQwd6qNhs7qugjfKSDNkoAH3tNC7kTZvoPhbUNU5y5dhzUR7ziBv33jxP2JditWM0lWOydqy2O/3UL22gnjoFzZvT4wTDjR5+sNLR0iAL14l5qqEhT59O97TmzeHaNVFMy5XjNYFeoqxQNJOmcux00id9MY+1cQNanYZr6F4rzfkSIHM3ejRqhONGD2EqJEAWrhD/VENDdrmgUydakYcOFbWILFeOMfSopnIMAI89RlPOFWKE3HfBWyygyQmMhu610rpQsJC3bIHYWNpR2G70EKYiWMjCtRki1eiQT5+GhAS614k5MILIsbxuefEixMSwcqzTabhG77USfBAUZO5Gj+7d8d3oIcxDUJCFqzJKqgkgr1tHy0N0NBw7FoB4ZeT4zJkzr7322qOPPtq3b99HH330tddeOxP8hW8BLBWdrOnseMoUmuxJk3Q8DdcEvVa0e+mM4iEbaKOHMAniIQvXY6BUc0CeOJEWiaQkcDiE6FdAjpcsWRIZGWm1Wrk/6EVGRi5ZskSoZdXStJPj33+nd9fGxkJBgWqAAldsjl4bGCcnhxjIXhs9Jk7EfaMHBx9PUAxknmJGjjIH5JISaNOGVuQnnxTyh1w53rBhg8ViqV279vz58/fs2fPHH3/89NNPr7/+eu3ata1W68aNG4UaVydNOzlmbox45RV1oIit1Ry9VizaG/kCQjbiRg9hBgJCFi5uxFTTQM7NZRc1P//cryvkyvEDDzxQs2bNPJ9zI8+ePVuzZs2ePXv6bflGwhNPPIH4XuduHlG3a9eurl27RkdH161bd+rUqcXFxcIVAoBGcvzzz+5f6hCCWrXAbg9olaoZTNNrxbMkDLmoCHr3pucjVqv73hUTvIQhmwCgLwQzQWauJI+Ph99+88XqjpErxwkJCf6OEJo0aVJCQgJ/szdjd+/enc55paWlxcTE3HnnnZ70w4cP22y29u3bL1++fObMmVFRUSkpKTeL+v1fIzkeMIAe7osX+zVFqwQz9VqRnAlANu5GD2HsApCFCxo31UyQKYq9gPHuu/mvcZIrx9HR0dOnT+f19/Tp04O9unTHjh0IoXnz5nkq7N+/f/369e03556rVq1CCG3ZsoW3OSZSCzneto3W4saNtb7AksHJCZip13JgCQX9Qfba6LFrl1AlxkrzB9lYKIKy1mSQi4qgZUtaOZ59locJuXLcrl2722+/vby83Kvu8vLyO+64o127dl7xwm8nTZpksVg8T2XY7fbw8HCu1peVlcXFxY0dO1a4EtXlmKLgvvtoUtesETZGm1ST9VoxpPFC3r+fPSugUSPIzRVTk2Hy8EI2jPWSDDUf5IMHgbmXwveXNbly7Lkrr2fPngcOHGAI379/f+/eva1W66Jgzs9wuVw1a9bs2rWrp56dO3cihNauXctUCwDdunXr0KEDN8Y3rLocZ2bSWnznnZj8VG++XuvrVq8YX8jcjR6tW6t94r+XOVq89YWsRau6tmFKyEuX0vpRs6b3NU5y5biiouJvf/ub53iKuLi45s2bx8XFeR56Gzx4cGVlpXhvbtiwASH03nvveYqsW7cOIbR9+3ZuDampqfXq1ePGeMKlpaX2m6+8vDyEUH5+vkuNl9NJ3XGHh87yL79UowUJdTocjszMTIfDIaGsQYt4QV6zpjw8nPLsi+zWrbKgwKCwhMz2giyU1SxppoRcVuYaNKjS01fvv7/S6WS9lZ+fjxBilmd9hY6JQUzIN/Dxxx/37NmzRo0a4eHhNWrU6NWrV1pamm824Zjhw4dHREQUFhZ6sqWlpSGE9u7dyy01cuRI3p8HZ82a5fWARkZGRqYKr4P//KdHi/93222ZX3+tQgukyqAZGD36KLNBvXPn82vXZgddBSlAGNCQgbS0b2rWLPF02qFDjzMtZ2RkKCDHXMWUFi4uLo6JiRk0aBBTHMfZcVER1bgxPTXeupX9UNM7ZMpJhDCpHsjFxY5nnqlgtHj8+AruXEO4BsOlhqyXTfm174cfysPC3N/nrFbqu+/KPb1Rmdkxo6GSA+np6Qihzz77jKkBx7XjxYvpVZ8BAxg7cQiYcolNmFiXy7VuXdbQofSXPoRg7lxRh2YJV4tzamh6OTMz0+Vy4ewXyba99hotJ7fcApcuuauRu3a8YcOGhx9++Pz58142nT9//uGHH/7222+94v29TUlJiYuLc3B2dF+7do33yYoxY8b4q8QTr9ZPeXa7e8eH56i2n38WtkHj1BAcqP/7n6tduwLPvNg0Gz2Eu00IetnckLnXOA0YAJWVsuU4JSWlbdu2vN3orrvuGjhwIG+SV+SlS5fCw8NHjhzpFZ+SklK/fv2ioiJP/OrVqxFCmzZt8srm9VYtOX7lFfqz7PHHvVrU/a25e60vvRcvQvv29A93xrrRwxeL+JhQ83IoXJ7NvcZp+HAYOPCqrLXj+vXrP+nnVIwJEyY0aNBATG975513EEKbN2/2ynzw4MGoqChmV57NZuvbt69XHt+3qshxQQF9XG54OPz+u2+j+saE1ECtutGDMtNGD+FeFFJe9lARCpA3b6aneTe+eF+TJcdRUVEzZ87k7Uaebc28SV6RnTt3rlOnTkVFhVc8AOzYsaNLly42m6127dpTpkxhZsq+OZkYVeR46lSasylTmIbwCYRCr/Wwzd3oUauW48gRc64q8nat0PEyAz8UIGdlsXKMkF2WHDds2PDRRx9l6OMGHn300fr163NjtAkrL8enT0NEhJuz2Fi4eFEbFEG1Egq9FgC4Gz2SkqgPPths1h95eL0fIl7mYjc9ZKcTEhPps8hu/BAiT45HjBgRFRV15MgRLokA8PPPP0dGRg4bNswrXoO3ysvx3/9Of369/LIG9ktowvS9FsB9uH94OO2H7t2hoMBl4t/ceftAKHjZC7jpIftcfSxPjo8cORIVFRUfHz9nzpzdu3f/+eefu3fvnj17dnx8vM1m85VpL7rVeKuwHB85Qn941awp9j5YNVAJ1mn6XvvWW+wXuiFD3Kc2mR6yr8MJZF9OjB4zZAh4LnS7+ey8PDkGgC+//DI2NtbKeVkslvj4+K+//loXshSW44EDaSVYuFAXOGIaNfFArayEadNYLZ40iT4mxMSQ/XmcQPbHjHHjk5PZvq3AYoWHiIKCgjfeeOPRRx/t06dPamrqW2+9dcnzWLMePCkpx9u302w1aoTDQZr+6DTrQC0rg+HD2f7K3ehhVsj+XBwKT335Yje9l5WfHXuRSFHUyZMnz5496xWv2VvF5JiioGtXWgw+/FAz+yU0ZMpea7cL3ehhSsjCrieQhfkxYqrCa8fr168fOXLklStXPFz88ccfrVu39qxbDB06lPfZNbVZU0yOs7NpLb7jDvA50FltFEHVb76BemOjB02/zQbZ2d58mA+yN0Kf9wSyDyWGj1D4yYrevXu3adOGYWXw4MEWi6VXr1533XWX1WpduXIlk6RZQBk5rqiA1q1pPdBpEVw8YyYbqCdPQvPmNPc1agDvRg+TQRbjawJZDEuGy5Od7X5WwHPvptznjm+55Rbmeo6ioqKIiAjPw21/nfCSlJTUuXNn7dlRRo4//pjWg86d8T+ZxkwDlbvRQ+BGDzNBFjlGCGSRRBkuW1aW++ljBXbl2Ww2Zlfet99+a7FYsrKyPHQ888wztWvX1p4aBeS4tBSaNKHl+McftYcQbIumGaibN9N70RFyfzm5eZ84Dx+mgcyDzU8UgeyHGDNEO53uJ+vlnllRp06diRMneviYPn16WFgYs448ffr0mJgY7alSQI6Z61NEXFytPUDfFs0xULkbPe6/H65e9QXKxpgDMotHRIhAFkGSsbPIPWDz/vvvb9CgQWFh4dWrVxs0aHDvvfcyfDz22GPNmjVj3moWkCvHRUXs/ZeHDmlmtpyGjD5QKQp8N3oIE2J0yMLoeFMJZF5azBQpV46//PJLi8Vis9ni4+OtVutHH33EsNO4cePBgwczbzULyJXj2bPpZYrhwzWzWWZDhh6o/jZ6CHNiaMjC0PylEsj+mDFNvFw5BoD33nuv443XW2+9xfDy448/Vq9e/f3332diNAvIkuOCAoiLc8txeDicOqWZzTIbMu5ALS2tstHjtdfE/m5qXMiSfU0gS6bOKAUVkGPcoMqS46efpqfGkyfjhkvAHoMOVLsdevWi+bZaYfVqAYjeSQaF7A0jmPcEcjBsGTIvkWOO286cgchItzzExEB+PicB96ARB2p+PrRvT2txdDTPRg9h0o0IWRhRwFQCOSBFRs9A5JjjwVGjaHnwc6A+JyteQcMN1JMnoVkzmuwaNWD37qD5NBzkoBH6FCCQfSgxWwSR45sePXqU3hlTowa2B2netNX7f2MN1H372EdXGjeG3FxvOGLeGwuyGEQB8xDIASkyegYixzc9+OCD9GyN84PkzTTc/zfQQBW/0UOYdANBFgYiPpVAFs+VQXMSOb7huJ07aS1u2BBKSgznS6MM1LQ09kaPgBs9hL1gFMjCKIJKJZCDosuImYkcg/vRqm7daDkO6td9bByO/0ClKHjzTZpjhMBzo4cc/vCHLAcdb1kCmZcWM0USOQbYuJHWidtvx/wgTX89D/OB6rXRY/Jk+kYPf3DExGMOWQyEYPMQyMEyZrj8IS/HFRXQpg0tx+vXG85/HoNxHqilpTBsGDsvFr/RQ9gXOEMWtlxyKoEsmTqjFAx5OU5Pp6Xi3nvFbgjDz7fYDlTuRo+wsOA2egjTjC1kYbPlpBLIctgzRNnQluOyMmjalJbj7783hMN4jcRzoHpt9Niwgdd2iZF4QpYIRlwxAlkcTwbOFdpy/PbbtBb37WtgHwKOt9zL3+gh7BGiTcL8mCM11LwcwnLMPUjz4EFDd1/ceu2+fVCrFv1JJ3mjh7BHcIMsbK0iqQSyIjTiXEkIy/GcObRgDB2Ks4fE2IbVQN20ib3Ro00boRs9xEDzlwcryP6MVDaeQFaWTwxrC1U5vnQJ4uPdcmyogzT9dSB8BqqCGz38gfXE4wNZ2E4FUwlkBcnEs6pQleNp0+ip8c2bpfB0j0irdBmoTiekpbk3dCQnu/9+/DHMm0eTihA88gg4nSLNl5JNF8hSDFWuDIGsHJeY1hSScvzHH/RBmtHRcP48pp4JxiztBypz963V6pZgz1+EaDlWZKOHMAHaQxa2R4NUAlkDkvVtIiTlePRoWjZefFFf9pVqXeOBmpXlPvzOYmHnwowQIwSPP67FA9waQ1bKU3LqIZDlsGeIsqEnx8eO0XO5xMQAlxUbwoE3jNRyoDqdkJjoV4sRcqequkzhcYuWkDHpCAQyJo5Qz4zQk+O//Y2e1L35pnq0alyzlgM1LY1/UsydIKenq06AlpBVByOuAQJZHE8GzhVicrxrF60lDRoY8SBNfx1Ny4E6ZIj3SjFXiD3ryEOG+LNUsXgtIStmtLyKCGR5/BmgdCjJMUVB9+60HK9aZQDniDZRy4GanBx4dtyjh2jTpWbUErJUGxUuRyArTCh+1YWSHH/7LS0krVoZ9CBNf/1Hs4FKUXDvvQHk2Gp1P/em9kszyGoDEV8/gSyeK4PmDBk5rqyEdu1oIVm3zqDe8me2NgP14kW3znotTfC+JWvH/jwlJ14bL8uxUPGyoQY5ZOT4009pIbn7bi2ew1K8YwpWqHavpSjIyIAaNQJrscVCnqwQdJWMRLW9LMM0tYqGGuTQkOOyMmjenNaS//s/tfqOfvWq2mvz82HwYFaIa9WC55/nf+7Y8zBydrYWRKgKWQsAwbdBIAfPmcFKmFeOz51j9/AyyxR9+hjMP+LMVWmgUhR8+mmVSfFjj8GlS26beHflJSaCNloMWJ4pKs5X0nOp5GXpBqlfMtQgm1aOryUkuGd0Xrt3Fy5Uvwvp0IIavfbCBWAe0UYIatcGryV3pxPS092ryT16uP+mp2ux+4MhVw3ITOV4BghkPP2ioFXmlWPe35gsFve8znQvZQcqRbm1NTGRXaAYNgwuX8aLNWUh44XNjzUEsh9izBONhRwfPHjwwQcfTExMjI6OTkpKWrp0qYfg5ORkVPXVr1+/gNzb7XaEkN2fHGuzhzeglYpmUHCgnj8PDz7ICnGdOoDnha4KQlbUFSpWRiCrSC4eVesvx1u2bImMjOzUqdOiRYtWrlw5Y8aM6dOne8hJTk5u2LBhOue1devWgLwJybFHozV4DiuglYpmUGSgUpT7kMzq1VktHjECu0kxQ5sikJnaDBEgkA3hJjlG6izHdru9bt26Dz/8cGVlpS+M5OTkpKQk33jhmAByrM0uBWETlU6VP1DPnYOBA1khrlsXvv5aaSsVrU8+ZEXN0aIyAlkLlnVtQ2c5Xr58OUIoNzcXAK5fv+4lyh45Li8vLy4uFs9SADlGyP3bk7lecgYqRcFHH4Hnh0/Pl4fHH4fCQtwJkgMZd2x+7COQ/RBjnmid5fiRRx6pVq3ad99916pVK4RQbGzsxIkTnTfPZ0xOTo6IiIiMjEQI1a1b9+WXX3a5XAG5DyDHZHbMYfDcORgwgJ0U16sHmZmcZIyDRJswdo5ipoWal3WW47Zt28bceE2dOnX9+vVTp05FCA0bNszjzzFjxsyePXv9+vVpaWkPPfTQX/Poxx57jNfVpaWl9puvvLw8vz/l3Zj+lX/0kctcL4fDkZmZ6XA4xMMqK3OtWlWekEAxP3k+/njlxYviK9A5pwTIOlssu3kCWTaFuFeQn5/v1i67nVfluJGI+0apcPPmzRFCEzkX1k2YMAEhdPLkSd8mnnzySYTQnj17fJNmzZpV9REM/icrKIulLDY2+4svMkP7tWrV5g4dLjJCnJjofOmlPaFNCUFPGNCfgYyMDD3lOCkpCSG0bds2RmG3bduGEPr444+ZGCZw4sQJhNDcuXOZGCbgOzu+xojNzQBlsVAWS/lXX+H+ERm8feLnTWVlrhUryqtVYyfFf/97ZUFB8E3qXUI8ZL0tVax9AlkxKnGtSOfZcZ8+ff5anThx4gQjrMePH0cILVmyhIlhAg6H46+PjmnTpjExvAHP2nGVXXmevXla7uHltUy1SJFLbH/+CX37sivFt9wCGzeqZpPKFYuErLIVmlZPIGtKtx6N6bx2/MILLyCEuE8Tb926FSH06aef+rJx9OhRhND8+fN9k7gxHjkuPHdOzz28XIPUDwccqBQFq1ZBfDyrxaNHG/umwICQ1Wdd6xYIZK0Z17w9neX40KFDf60UjxgxggE+fPjw8PDw8+fP2+320tJSJp6iqKFDhyKEDh48yETyBmg5xv9ZLV7rJUUKD9Q//4Q+fVghbtAAvvlGUjM4FRKGjJOlitlCICtGJa4V6SzHAPDX4xOeRyaWLVuWmpqKEHrxxRcB4IcffqhXr960adOWLVu2YMGCrl27IoTGjx8fkEkixwxFFAUrVlSZFI8ZY+xJMQONaBNDhYkDoeZl/eXY5XLNnj27SZMmERERLVu2XLx4sad7nT59OjU1tWnTpjabLSYmpmPHju+//z5FUQE7H5FjD0V//AG9e7OT4oYNYdOmgOQZJkOoDVRypqhhuqYMQ/WXYxnG8xclckxRsHw5xMWxWjxuHFy7xk+XQWOJHBvUcUGZHWpeJnIcVPfANDO3154+DT17skLcqBFs3oyp2XLM4kKWU4+ByhLIBnKWNFOJHEvjDa9SnoFaWupatgxiY1ktHj8eRGzwwQuLSGuINokkytDZQs3LRI4N3V1p410u14oV/+3Ro/Lmlhdo3Bj++18zQPOHIdQGKlk79tcTzBRP5Njw3qyshKVLK2y2ckaLJ0ww7aSY8RaRY4YKEwdCzctEjo3dmX/7DZKT2dWJJk3gu++MjUik9aE2UMnsWGTHMHQ2IsdGdV9lJbz9NsTEsFo8YUJFUZFR4QRrN5HjYBkzYv5Q8zKRYyP2Ujh1Cu6/nxXipk2pV1/dKeYwaEOi5TM61AYqmR3z9QKzxRE5NphHb6wUQ3Q0q8WTJ8OVK67MzEwixwbzZZDmkk+gIAkzXnYix0by2cmT0L07K8TNmsH337vtJwPVSF6UaivxslTmDFOOyLExXFVRAYsXV5kUP/UUMDcIkoFqDC/Ks5J4WR5/BihN5NgATvr1V+jalZ0UN28OP/5YxWwyUKvQYdI3xMsmdSwLi8gxywWGoYoKWLgQbDZWi//5T7h+3dtSMlC9GTHje+JlM3q1CiYix1XowOrNiRNw332sELdoAZxLrKpYSgZqFTpM+oZ42aSOZWEROWa5wCdUUQFvvcVOii0WeOYZcDj8GkgGql9qTJRAvGwiZ/JDIXLMz4uOscePQ+fO7KS4ZUvYsSOAOWSgBiDIFMnEy6ZwoxAIIsdC7GicVlEBb74JUVG0FlssMG2a0KSYMY8MVIYKEweIl03sXA80Ise4uDg3Fzp1YifFt94KO3eKtY0MVLFMGTkf8bKRvSfKdiLHomhSNVN5OfznP1Umxc89ByUlQbRJBmoQZBk2K/GyYV0n1nAix2KZUilfTg7ccw87KW7VCnbtCropMlCDpsyABYiXDei04EwmchwcXwrmLi+H11+HyEhai61W+Ne/gpsUM8aQgcpQYeIA8bKJneuBRuRYHxcfPQp3381Oim+/HfbskW4JGajSuTNOSeJl4/hKoqVEjiUSJ7lYeTnMm1dlUvz88+B0Sq7PXZAMVFn0GaQw8bJBHCXdTCLH0rmTUPKXX6BjR3ZSfMcd8NNPEqrxLkIGqjcjZnxPvGxGr1bBROS4Ch3qvXG5YO5ciIhgV4pfeEHupJixlgxUhgoTB4iXTexcDzQix1q4+MgRaN+enRTfeSfs3atku2SgKskmrnURL+PqGcXsInKsGJW8FblcMGcOOykOC4OXXoLSUt680iPJQJXOnXFKEi8bx1cSLSVyLJE4r2JOJ6SlwZAh7nudhwxxh51O+PlnuOsudlKclAT793uVU+YtGajK8Ih3LcTLePtHAeuIHCtAYlYWJCa6ZddqZf/abPRbhCAsDGbOVH5SzJhOBipDhYkDxMsmdq4HGpFjuS7OygKLxf0PIf5/bdrAgQNyWxEuTwaqMD/mSCVeNocfBVAQORYgJ3CS0+meFwtosc0GdnvgemTmIANVJoGGKE68bAg3yTGSyLEc9txrxP4mxUx8erqsJsQUJgNVDEtGz0O8bHQPBrSfyHFAioQyDBnCLhAz+ssNWK3uX/bUfpGBqjbDONRPvIyDF1S1gcixLHqTkwPPjnv0kNWEmMJkoIphyeh5iJeN7sGA9hM5DkiRUAYyOxZiR800ok1qsotL3aHmZSLHsnoeWTuWRZ+MwqE2UMlBUTI6i2GKEjmW5SqnE6pX97teYbG4n7uQeVqbGPuINolhyeh5iJeN7sGA9hM5DkhRgAxjx/LLsedh5OzsAMUVSSYDVREaMa+EeBlzB8k3j8ixLA7tdqhVi5Vj7q68xETQRovJ11hZLjROYSLHxvGVREuJHEskzlPslVdoLR46FNLT3c+09ejh/puersUaBWM6GagMFSYOEC+b2LkeaESOpbu4oABiY91yHB4Ov/8uvR75JclAlc8h/jUQL+PvI5kWEjmWTuDUqfTUeMoU6ZUoUpIMVEVoxLwS4mXMHSTfPCLHEjk8fZo+xTg2Fi5elFiJUsXIQFWKSZzrIV7G2TuK2IaFHB88ePDBBx9MTEyMjo5OSkpaunQpg23Xrl1du3aNjo6uW7fu1KlTi4uLmSR/AbvdjhAqLCz0l0GR+L//nZ4av/yyIvXJqoQMVFn0GaQw8bJBHCXdTP3leMuWLZGRkZ06dVq0aNHKlStnzJgxffp0D6DDhw/bbLb27dsvX7585syZUVFRKSkpAbFqIMdHjtCnuNWsCdeuBbRI9QxkoKpOMQYNEC9j4AR1TdBZju12e926dR9++OHKykpfoP37969fv7795gmVq1atQght2bLFNyc3RgM5HjSInhovXMhtWbcwGai6Ua9hw8TLGpKtT1M6y/Hy5csRQrm5uQBw/fp1rijb7fbw8HBmpgwAZWVlcXFxY8eOFaZKbTnesYPW4kaNNH2aTQA1GagC5JgdCA+QAAAWrUlEQVQmiXjZNK70B0RnOX7kkUeqVav23XfftWrVCiEUGxs7ceJE541txTt37kQIrV27lmt6t27dOnTowI3xDasqxxQFXbvScvzhh76N6xNDBqo+vGvbKvGytnzr0JrOcty2bduYG6+pU6euX79+6tSpCKFhw4YBwLp16xBC27dv57KSmppar149bownXFpaar/5ysvLQwjl5+e7VHh99VW55zjj22+nSkpUaEBSlQ6HIzMz0+FwSCptyEIEsiHdFqTRoebl/Px8hBCzPOsrdEwMYkIKBpo3b44QmjhxIlPnhAkTEEInT55MS0tDCO3du5dJAoCRI0cmJCRwYzzhWbNmoaqvjIyMTKVf69dnNm5s98jxCy/8pHT1pD7CAGEgpBnIyMjQU46TkpIQQtu2bWMUdtu2bQihjz/+GMPZ8Qcf0FPje++tLCsL8oNezeyhNolwuVwEspodCpe6Q83LOs+O+/Tp89fqxIkTJxg5Pn78OEJoyZIluK0dl5ZCkyb0qvEPPzD2YhEgq4pYuEFlI4iXVSZY/+p1Xjt+4YUXEEJbt25lmNi6dStC6NNPP7127RrvkxVjxoxhMvMGVPopb+lSWotFPPrMa5eKkWSgqkguNlUTL2PjCrUM0VmODx069NdK8YgRIxh8w4cPDw8PP3/+PACkpKTUr1+/qKjIk7p69WqE0KZNm5jMvAE15LioCGrXpuX40CHeZvWMJANVT/a1apt4WSumdWtHZzkGgDFjxvz16PFjjz22bNmy1NRUhNCLL77o4ePgwYNRUVHMrjybzda3b9+AVKkhx7Nn01o8fHjA9nXIQAaqDqRr3iTxsuaUa92g/nLscrlmz57dpEmTiIiIli1bLl68mMvBjh07unTpYrPZateuPWXKFGamzM3jFVZcjgsKIC7OLcfh4XDqlFdrWLwlAxULN6hsBPGyygTrX73+cqw4B4rL8dNP01PjyZMVN1aZCslAVYZHvGshXsbbPwpYR+Q4AIlnzkBkpFuOY2LgwoUAmfVKJgNVL+a1bJd4WUu2dWmLyHEA2keNoqfGL70UIKeOyWSg6ki+Zk0TL2tGtV4NETkWYv7oUfogzRo1sDhI05+tZKD6Y8ZM8cTLZvImLxYix7y00JEPPkhPjd96Syib7mlkoOruAg0MIF7WgGR9myBy7Jf/nTtpLW7YEEpK/GbDIYEMVBy8oLYNxMtqM6x7/USO+V1AUdCtGy3Hq1fz58EnlgxUfHyhniXEy+pxi0nNRI75HbFxI63Ft98O5eX8efCJJQMVH1+oZwnxsnrcYlIzkWMeR1RWQps2tByvX8+TAbcoMlBx84ga9hAvq8EqVnUSOeZxR3o6rcX33gsUxZMBtygyUHHziBr2EC+rwSpWdRI59nZHWRk0bUrL8fffe6fi+Z4MVDz9oqxVxMvK8olhbUSOvZ3y9tu0Fos4rci7rF7vyUDVi3kt2yVe1pJtXdoiclyFdu5BmgcPVknC+Q0ZqDh7RynbiJeVYhLbeogcV3HNnDn01Hjo0CrxmL8hAxVzByliHvGyIjT+f3vnAxRV1Ybxl2UX2aUPWDBZMqQAqdxJnTQYbHSJUoYmKGUQSiYdphTHQdTYsC9LDUH9cipURsCxRhgtbLBspsyQYajxX6Y2gqgwRi42NEIIKgOyy55P3OV2Y+/C6i7sPee+O40e3vtn3+f33PN0vdy9K+adYBz/48716+Q//xmIY7mcNDb+Uxf/CCeq+D1yvkN02XmGIt8DxvE/Bq1ebT015n2x9T9LxTzCiSpmd1zVG7rsKpKi3Q/GsdWaP/6wPkhTqST3vhlKtJYJNIYTVQAKcyV0mTlLhwrCOLYSWbLEemo8+M1QQ0mJ+WecqGJ2x1W9ocuuIina/WAcD1hTX09ksoE4VqvJjRuiNctuYzhR7aJhaAG6zJCZwlIwjge4vPKK9dT4f/8TxiTyKk5UkRvkkvbQZZdgFPNOMI7J8ePWLH7kEbE/SNPekYQT1R4ZluroMktuCmqRehybzWTOHGscl5YKIqKgiBOVApOcbhFddhqh2Hcg9Tj+/ntrFkdGUvAgTXtHE05Ue2RYqqPLLLkpqEXScdzfT6ZNs8bxV18J8qGjiBOVDp+c6xJddo4fBVtLOo737bNm8cyZdDxI094BhRPVHhmW6ugyS24KapFuHN+5Q8LCrHF89KggHGqKOFGpscqJRtFlJ+DRsal043jnTmsWz51Lh1XDdIkTdRg4zCxCl5mx0p4QicbxrVskKMgax6dP24NDTR0nKjVWOdEouuwEPDo2lWgc5+VZszglhQ6fhu8SJ+rwfNhYii6z4eMwKqQYx21txNd3II49Pcnly8PAoWYRTlRqrHKiUXTZCXh0bCrFOF6zxnpqvHQpHSaN2CVO1BERMbACusyAicNLkFwcX71Kxo0biGNvb/oepGnPS5yo9siwVEeXWXJTUIvk4jgjw3pqnJsrCITKIk5UKm27z6bR5fsERt/q0orjCxesD9L09ycdHfS5Za9jnKj2yLBUR5dZclNQi7TieP5866nxli2CNGgt4kSl1bn76Rtdvh9aVK4roTg+ccKaxY88Qrq7qXTLXtM4Ue2RYamOLrPkpqAWqcSx2Ux0Omscl5QIoqC4iBOVYvMcbh1ddhgVrStKJY4PH7Zm8eTJpK+PVrfs9Y0T1R4ZluroMktuCmqRRBz395Pp061xfOCAIAe6izhR6fbPse7RZcc4UbwWs3F87Vp7WRlZsGDgGkVUlDWLZ8wg/f0Uu2WvdZyo9siwVEeXWXJTUAuzcezn1wlgva0NwBrHGzcKQqC+iBOVegsdEIAuOwCJ7lWYjWOAgTge8p+HBzl0iG7DBLvHiSqIhbEiusyYobZyGI7jriFZDEA8PIhaTXp6bDnQXcGJSrd/jnWPLjvGieK13BzHNTU1YPM6ceKEhahOpxuyMD4+fkTYXV1d97YSiGNLQJeXj7gPylbAiUqZYQ/ULrr8QNho2kgUcbxy5cpy3qutrc2CUKfTPfroo7wl5dXV1SPSHT6OZbKB3+8x9sKJypihgnLQZUEsLBVFEcdf2fkaZ51Op9Vq7xf38HEMQGJj73eXYl8fJ6rYHXJFf+iyKyiKeh9iieObN28ajcYhqCxxbDQab926NWTRMD8OH8d4djwMOooWYTZRZNYDtyo1l0URxw899BAAeHp6xsbGnuZ9dZ1Op1MoFF5eXgAQFBS0bt26Pgc+UTd8HAMQvHb8wNNDPBtKbaISQlCyeA6/UerEzXF87Nix5OTkPXv2HDp0aPPmzYGBgd7e3mfPnrWozcjI2LBhQ2VlZVlZWVJSEgAsXLhQEERvb2/X4KulpcXer/I8PMz+/uabN/sYe3V3d3/zzTfd3d2M6RpGDkoeBg4zi6TmcmtrKwB0dXUJphy/CPwfRmnc1NSkVCrt3T7x1ltvAQB33wW/h/Xr1w+5B8P2vmMPD7OHh/m//z3xDb6QABJAAuIjsH//fhHFMSEkLS3Ny8vLZDLx09YyvnTp0t1rGnl5ebaLbM+OBz+VZ7732byBP/39zQcPGpk5ceALkdpJRF9fH0rmHwCsjqXmsrjOjgkher3e3v8furu77y5avXq1bRzzK5Zrx9eutZeXD9zTFhs78Gd5OYOf/uBU41VFDgXDA3SZYXMt0tx87diWb3Jysre3d7/Qk37q6uoAoKCgwHYrfsUSx+3t7fwi22OcqGz7a1GHLjPvspvj+Pr163zEv/32m0KhSEpKIoR0dXX19vZyS81mc2pqKgCcOXOGKwoOMI4FsTBWxGxizFBBOVJz2c1x/Pzzz7/00kubNm0qLS1dtWqVSqXy8/NraGgghNTU1Gg0mtWrVxcVFW3btu25554DgKVLlwraxi9iHPNpsDqW2kTFG91YPZL5utwcx4WFhVFRUQEBAXK5PDg4OD09vampydLf77//npKS8thjj3l7e6tUqhkzZhQXF5vNZn73gmOMY0EsjBUxjhkzVFCO1Fx2cxwLeuBkEePYSYBUbC61iYpnx1Qclk42iXHsJEBRbI7ZJAobRrkJdHmUAbt/9xjH7vfA+Q5wojrPUPx7QJfF75GTHWIcOwlQFJvjRBWFDaPcBLo8yoDdv3uMY/d74HwHOFGdZyj+PaDL4vfIyQ4xjp0EKIrNcaKKwoZRbgJdHmXA7t89xrH7PXC+A5yozjMU/x7QZfF75GSHDMZxZ2cnADQ3Nw8+cZP9v9vb2/fv39/e3s6+1EGFKHmQBMt/S83l5uZmAOjs7Bwx1sfiAZsjNuHICleuXLF52CYWkAASQAJ0ELhy5cqIQUdNHN+4cQMADAYDy6cN/9ZmeeJ+S0vLv8ss/4SSWXZ3UJvUXDYYDABw48YNduLY8qk8R56oP6JmWlZAybQ45Uyf6LIz9KjY1nGLqTk7dlwSFQ450iRKdoQS7eugy7Q7OGL/jluMcTwiTLet4LiLbmvR1W+Mkl1NVIz7k5rLjuulJo7vPiV5/fr1/Gcli/FAc2lPKNmlOEW6M3RZpMa4ri3HLaYmjl0HB/eEBJAAEhAjAYxjMbqCPSEBJCBBAhjHEjQdJSMBJCBGAhjHYnQFe0ICSECCBCiI497e3nfeeSc4ONjb2zsqKurHH39k26dffvllxYoVU6ZMUalUISEhKSkply9fZlsyX92mTZsAQKvV8ousjs+cOZOYmKhWq5VKpVarLSwsZFUpIaSxsTE1NXXixIlKpfKJJ57YuHFjd3c3Y3pv3br1wQcfxMfHq9VqAPj888+HCGxoaIiPj/fx8VGr1enp6UO+5ZmCOE5LS5PL5Tk5OSUlJTExMXK5/Oeffx4ikqUfk5OTNRpNVlbW7t278/LygoKCfHx86urqWNJoT0tLS4tKpfLx8ZFCHB85csTLyys6Ovrjjz8uLS3Nzc3V6/X2yNBeNxgM/v7+oaGhmzdvLikpWbJkCQBYvl2edmn8/i2Pp5g0aVJsbKxtHLe0tIwfPz48PLywsDA/P1+tVk+bNu3OnTvcHsQex6dOnQKAjz76yNJxT09PeHh4TEwMJ4C9wbFjx/gONTY2jhs3btGiRewptVWUmpoaFxen0+mYj+Ourq6goKD58+f39/fbcmCvkp+fDwD19fWctDfeeAMAOjo6uAoDg97e3tbWVkLI6dOnbeN4+fLlSqXy6tWrFqVVVVUAUFJSwgkXexzr9XpPT0/+Z6MLCgosD6/gNDA/eObei3mZtbW1np6e58+fl0Ic79q1CwAaGhoIIbdv32Y+lHNzcwGgra2NO4xzc3NlMtnt27e5CksDwTieMGFCSkoKX2ZkZOQLL7zAVcQexy+++OJTTz3FtUsIOXr0KAB8++23/CLDY7PZPHHixHnz5jGskRBiMpmmTp26bNkyQogU4jg5OdnX17eqqioyMvLuv/98fHwyMzN7enpYdfnw4cOWqxPnzp0zGAxffvmlr6/vqlWrWNVrG8fXrl0DgK1bt/Ilp6enBwQEcBWxx7FWq42Li+PaJYRcuHABAIqLi/lFhsfl5eUAsGfPHoY1EkJ27tzp5+dn+c2GFOJ46tSpqnuvrKysysrKrKwsAEhLS2PY5by8PKVSyT0N87333mNYrG0cWyplZWV81Xq9HgC4DxuLPY7DwsISEhL4AiwPPv7kk0/4RVbHFy9e9PX1jYmJMZlMrGokhLS3twcEBGzbts2iUQpxHBYWBgCZmZmcrcuWLQOAxsZGrsLYoLy8PD4+vrS0tLKyMiMjw8PDY8eOHYxp5OTYxvFPP/0EABUVFdw6hJD333+f/+xNscexlM+OW1tbw8LCQkJC/vzzT76F7I0zMzMjIiK4X2BKIY61Wi0A1NbWcm7W1tYCwN69e7kKS4MvvvhCqVS2tLRwopYsWaJSqdrb27kKSwPbOGbh7Fiy1447OzunT58eEBBw4cIFlg5TWy2NjY0ymWz79u3Ng6/o6OjIyMjm5ua///7bdn02KnPnzr17deLSpUucnIsXLwLAp59+ylVYGsyePXvWrFl8RQcPHgSAqqoqfpGZsW0cs3DtOCcnZ8idFZY7ZgwGAzPO2Qrp6emZPXu2SqU6fvy47VLGKjU1Ndz1xCGD7OxsxsRyctauXQsA1dXVXKW6uhoA9u3bx1VYGkRGRkZHR/MVVVRUAMDhw4f5RWbGtnFMCHn44Ydt76zg/25M7BcrTp48yb/vuLe3NyIiYoivzFhoEWIymZKSkuRy+XfffceYNEE5bW1tX//7pdVqJ02a9PXXX58/f15wEwaKZ8+evXul+PXXX+e0vPbaa3K5nNULUy+//LKXlxf/86WvvvqqTCZjVa9gHGdmZiqVSu5U0nKT2K5du7hjQOxxfPdWipSUFLlcrtfrS0pKZs2aJZfL+VfcOCXMDLKzswEgMTGx/N8vZgSOKEQK144JIRkZGXdvPV64cGFRUVFKSgoAvPvuuyPCoXQFy03lEyZM+PDDD4uKihISEgDgzTffpFTOMG3v2LEjLy9v+fLlALBgwYK8ey/L10gbDIbAwMDw8PDt27cXFBSo1eqnn36au62CEEJBHPf09OTk5Gg0mnHjxj377LM//PDDMCwYWKTT6Yb8m93yIwPSHJQgkTju6+vbsGFDaGioQqGIiIhg/mahU6dOJSQkaDQahUIRGRmZn59vNBodPCQoWi00NNR2/jY3N1sk1NfXz5s3T6VS+fv7L1q06K+//uJLoyCO+e3iGAkgASTAKgGMY1adRV1IAAlQRgDjmDLDsF0kgARYJYBxzKqzqAsJIAHKCGAcU2YYtosEkACrBDCOWXUWdSEBJEAZAYxjygzDdpEAEmCVAMYxq86iLiSABCgjgHFMmWHYLhJAAqwSwDhm1VnUhQSQAGUEMI4pMwzbRQJIgFUCGMesOou6kAASoIwAxjFlhmG7LifQ2dmZk5MTHh6uUCh8fX3j4uKk8Jhpl2PEHTpPAOPYeYa4B4oJdHZ2Wr4nKTY2Vq/Xp6amenp6+vn53bx5k2JV2DqdBDCO6fQNu3YRgTVr1gDAli1buP1lZmYCAJ4gc0BwMGYEMI7HDDW+kegImEwmf3//xx9/3Gw2c82tXLlyyLfYcYtwgARGlQDG8ajixZ2LmsCvv/4KAFlZWVyXRqMxJCQkODiYH9DcUhwggVElgHE8qnhx56ImUFJSAgBlZWWWLnt6ehYvXgwAW7duFXXf2ByjBDCOGTUWZTlAwHKZuL6+/sCBA4sXL9ZoNACQnp7e39/vwNa4ChJwMQGMYxcDxd1RRCAqKkqlUplMpqioKMv3mykUinXr1jH5HW4U+SLZVjGOJWu91IWbTCalUhkTE0MIMRqNra2thw4dmjlzJgC8/fbbUqeD+t1BAOPYHdTxPUVAoK6uDgBWrFjB76Wjo0OhUEyePJlfxDESGBsCGMdjwxnfRXQE9u7dCwCfffYZvzOj0ejt7f3MM8/wizhGAmNDAON4bDjju4iOQHZ2NgCcO3eO39mRI0fwYgUfCI7HkgDG8VjSxvcSEYE5c+YAwNq1a7meOjo6pkyZ4uXl1dTUxBVxgATGjADG8ZihxjcSEQGz2ezr62u5m0Kn0+Xm5mZkZAQGBspkst27d4uoUWxFSgQwjqXkNmodJNDY2AgASUlJiYmJfn5+crlco9EkJyfjoyoGCeHfbiCAcewG6PiWbidQUVEBAMXFxW7vBBtAAhwBjGMOBQ4kRCA3NxcATp48KSHNKFX0BDCORW8RNjgKBObOnSuTybq7u0dh37hLJPCABDCOHxAcbkY1gfHjxz/55JNUS8Dm2SPwf7U0aSqgsN18AAAAAElFTkSuQmCC;" vertex="1" parent="1">
          <mxGeometry x="80" y="120" width="280.59" height="280" as="geometry" />
        </mxCell>
      </root>
    </mxGraphModel>
  </diagram>
</mxfile>
